<svg width="50" height="50" viewBox="0 0 50 50" fill="none" xmlns="http://www.w3.org/2000/svg">
<path d="M25.5098 20.4236C22.5645 20.4236 20.1548 22.8333 20.1548 25.7786C20.1548 28.7238 22.5645 31.1336 25.5098 31.1336C28.455 31.1336 30.8647 28.7238 30.8647 25.7786C30.8647 22.8333 28.455 20.4236 25.5098 20.4236ZM25.5098 4.35858C22.5645 4.35858 20.1548 6.76833 20.1548 9.71358C20.1548 12.6588 22.5645 15.0686 25.5098 15.0686C28.455 15.0686 30.8647 12.6588 30.8647 9.71358C30.8647 6.76833 28.455 4.35858 25.5098 4.35858ZM25.5098 36.4886C22.5645 36.4886 20.1548 38.8983 20.1548 41.8436C20.1548 44.7888 22.5645 47.1986 25.5098 47.1986C28.455 47.1986 30.8647 44.7888 30.8647 41.8436C30.8647 38.8983 28.455 36.4886 25.5098 36.4886Z" fill="url(#paint0_linear_35_532)"/>
<defs>
<linearGradient id="paint0_linear_35_532" x1="25.5098" y1="4.35858" x2="25.5098" y2="47.1986" gradientUnits="userSpaceOnUse">
<stop stop-color="#1786FF"/>
<stop offset="1" stop-color="#0152FF"/>
</linearGradient>
</defs>
</svg>
