<svg width="50" height="51" viewBox="0 0 50 51" fill="none" xmlns="http://www.w3.org/2000/svg">
<path d="M15.2551 4.22284C14.4781 2.28024 15.9087 0.167114 18.0009 0.167114H31.2589C33.3512 0.167114 34.7818 2.28024 34.0048 4.22284L30.0803 14.034C33.215 15.7357 35.3449 19.0569 35.3449 22.8767V27.4155C35.3449 28.3955 34.5505 29.19 33.5705 29.19H32.5368L39.9872 34.6126C40.8775 35.2606 41.074 36.5076 40.426 37.3979C39.778 38.2882 38.531 38.4847 37.6407 37.8367L26.4043 29.6585L26.4043 48.3927C26.4043 49.3727 25.6098 50.1671 24.6299 50.1671C23.6499 50.1671 22.8554 49.3727 22.8554 48.3927L22.8555 29.19L15.6894 29.19C14.7094 29.19 13.915 28.3955 13.915 27.4155L13.915 22.8767C13.915 22.1416 13.9939 21.425 14.1436 20.7348L6.22936 14.9745C5.33905 14.3266 5.14261 13.0795 5.79059 12.1892C6.43857 11.2989 7.6856 11.1024 8.5759 11.7504L15.8028 17.0104C16.6871 15.7814 17.8418 14.7603 19.1795 14.034L15.2551 4.22284Z" fill="#0E72FF"/>
</svg>
