<svg width="58" height="50" viewBox="0 0 58 50" fill="none" xmlns="http://www.w3.org/2000/svg">
<path d="M23.543 41.4511L26.627 44.5352C27.7001 45.6083 29.44 45.6083 30.5131 44.5352L33.5972 41.4511" stroke="url(#paint0_linear_35_529)" stroke-width="4.12185" stroke-linecap="round" stroke-linejoin="round"/>
<path d="M28.5702 43.9646L28.5702 28.8831M15.333 6.26086L40.4685 6.26086M15.333 36.4238C12.5566 36.4238 10.3059 34.1731 10.3059 31.3967L10.3059 21.3424M40.4685 36.4238C43.2449 36.4238 45.4956 34.1731 45.4956 31.3967L45.4956 21.3424M8.81351 8.49946L5.4621 13.5266C3.23491 16.8674 5.62978 21.3424 9.6449 21.3424L46.1566 21.3424C50.1717 21.3424 52.5666 16.8675 50.3394 13.5266L46.988 8.49946C46.0556 7.10091 44.486 6.26086 42.8052 6.26086L12.9963 6.26086C11.3155 6.26086 9.74586 7.10091 8.81351 8.49946Z" stroke="url(#paint1_linear_35_529)" stroke-width="4.12185" stroke-linecap="round"/>
<defs>
<linearGradient id="paint0_linear_35_529" x1="28.5701" y1="41.4511" x2="28.5701" y2="46.4783" gradientUnits="userSpaceOnUse">
<stop stop-color="#1786FF"/>
<stop offset="1" stop-color="#0152FF"/>
</linearGradient>
<linearGradient id="paint1_linear_35_529" x1="51.1921" y1="25.1127" x2="4.60935" y2="25.1127" gradientUnits="userSpaceOnUse">
<stop stop-color="#1786FF"/>
<stop offset="1" stop-color="#0152FF"/>
</linearGradient>
</defs>
</svg>
