<svg width="50" height="50" viewBox="0 0 50 50" fill="none" xmlns="http://www.w3.org/2000/svg">
<path fill-rule="evenodd" clip-rule="evenodd" d="M6.33333 4C5.04467 4 4 5.04467 4 6.33334C4 7.622 5.04467 8.66667 6.33333 8.66667H25C26.2887 8.66667 27.3333 7.622 27.3333 6.33334C27.3333 5.04467 26.2887 4 25 4H6.33333ZM6.33333 28.889C5.04467 28.889 4 29.9337 4 31.2224C4 32.511 5.04467 33.5557 6.33333 33.5557H25C26.2887 33.5557 27.3333 32.511 27.3333 31.2224C27.3333 29.9337 26.2887 28.889 25 28.889H6.33333ZM4 18.7777C4 17.489 5.04467 16.4444 6.33333 16.4444H43.6667C44.9554 16.4444 46 17.489 46 18.7777C46 20.0664 44.9554 21.111 43.6667 21.111H6.33333C5.04467 21.111 4 20.0664 4 18.7777ZM6.33333 41.3331C5.04467 41.3331 4 42.3778 4 43.6664C4 44.9551 5.04467 45.9998 6.33333 45.9998H43.6667C44.9554 45.9998 46 44.9551 46 43.6664C46 42.3778 44.9554 41.3331 43.6667 41.3331H6.33333Z" fill="url(#paint0_linear_35_522)"/>
<defs>
<linearGradient id="paint0_linear_35_522" x1="25" y1="4" x2="25" y2="46" gradientUnits="userSpaceOnUse">
<stop stop-color="#1786FF"/>
<stop offset="1" stop-color="#0152FF"/>
</linearGradient>
</defs>
</svg>
