<svg width="51" height="50" viewBox="0 0 51 50" fill="none" xmlns="http://www.w3.org/2000/svg">
<path fill-rule="evenodd" clip-rule="evenodd" d="M6.74442 11.9531H19.9337C20.6114 14.3493 22.8144 16.1049 25.4275 16.1049C28.0406 16.1049 30.2437 14.3493 30.9214 11.9531H44.1106C44.9705 11.9531 45.6675 11.2561 45.6675 10.3962C45.6675 9.53635 44.9705 8.83929 44.1106 8.83929H30.9214C30.2437 6.44319 28.0406 4.6875 25.4275 4.6875C22.8144 4.6875 20.6114 6.44319 19.9337 8.83929H6.74442C5.88456 8.83929 5.1875 9.53635 5.1875 10.3962C5.1875 11.2561 5.88456 11.9531 6.74442 11.9531ZM35.807 19.2189C32.6542 19.2189 30.0983 21.7748 30.0983 24.9276C30.0983 28.0805 32.6542 30.6363 35.807 30.6363C38.4201 30.6363 40.6232 28.8807 41.3009 26.4845H44.1106C44.9705 26.4845 45.6675 25.7875 45.6675 24.9276C45.6675 24.0678 44.9705 23.3707 44.1106 23.3707H41.3009C40.6232 20.9746 38.4201 19.2189 35.807 19.2189ZM5.1875 24.9276C5.1875 24.0678 5.88456 23.3707 6.74442 23.3707H25.4275C26.2874 23.3707 26.9844 24.0678 26.9844 24.9276C26.9844 25.7875 26.2874 26.4845 25.4275 26.4845H6.74442C5.88456 26.4845 5.1875 25.7875 5.1875 24.9276ZM9.55419 41.0157H6.74442C5.88456 41.0157 5.1875 40.3186 5.1875 39.4588C5.1875 38.5989 5.88456 37.9018 6.74442 37.9018H9.55419C10.2319 35.5057 12.4349 33.7501 15.048 33.7501C18.2009 33.7501 20.7567 36.3059 20.7567 39.4588C20.7567 42.6116 18.2009 45.1675 15.048 45.1675C12.4349 45.1675 10.2319 43.4118 9.55419 41.0157ZM23.8706 39.4588C23.8706 38.5989 24.5677 37.9018 25.4275 37.9018H44.1106C44.9705 37.9018 45.6675 38.5989 45.6675 39.4588C45.6675 40.3186 44.9705 41.0157 44.1106 41.0157H25.4275C24.5677 41.0157 23.8706 40.3186 23.8706 39.4588Z" fill="url(#paint0_linear_32_397)"/>
<defs>
<linearGradient id="paint0_linear_32_397" x1="25.4275" y1="4.6875" x2="25.4275" y2="45.1675" gradientUnits="userSpaceOnUse">
<stop stop-color="#1786FF"/>
<stop offset="1" stop-color="#0152FF"/>
</linearGradient>
</defs>
</svg>
