<svg width="604" height="570" viewBox="0 0 604 570" fill="none" xmlns="http://www.w3.org/2000/svg">
<path d="M603.42 560.978C603.42 565.952 468.32 570 301.718 570C135.116 570 0 565.952 0 560.978C0 556.005 135.1 551.957 301.718 551.957C468.336 551.957 603.42 556.005 603.42 560.978Z" fill="url(#paint0_linear_3_1448)"/>
<path opacity="0.3" d="M603.42 560.978C603.42 565.952 468.32 570 301.718 570C135.116 570 0 565.952 0 560.978C0 556.005 135.1 551.957 301.718 551.957C468.336 551.957 603.42 556.005 603.42 560.978Z" fill="white"/>
<path d="M545.661 387.288C545.661 387.367 549.746 383.064 549.969 382.761C552.559 379.286 555.531 371.03 552.718 367.061C552.233 366.416 551.619 365.881 550.914 365.491C550.21 365.1 549.431 364.863 548.629 364.793C547.828 364.724 547.02 364.825 546.259 365.089C545.499 365.354 544.802 365.775 544.215 366.327C541.64 368.591 541.036 372.783 541.259 376.019C541.529 379.812 545.661 387.272 545.661 387.288Z" fill="url(#paint1_linear_3_1448)"/>
<path d="M582.79 372.464C578.816 369.675 570.615 372.719 567.166 375.333C566.864 375.572 562.604 379.653 562.684 379.685H562.779C561.476 380.163 560.093 380.673 558.583 381.279C555.818 382.394 552.702 383.701 549.396 385.327C545.828 387.067 542.357 389.004 539.002 391.129C535.241 393.497 531.699 396.196 528.416 399.194C528.375 399.227 528.338 399.265 528.305 399.306C529.004 398.079 530.864 394.524 530.975 394.269C532.565 390.22 533.248 381.518 529.497 378.409C528.855 377.919 528.118 377.569 527.333 377.382C526.547 377.196 525.732 377.177 524.939 377.328C524.146 377.478 523.393 377.794 522.73 378.255C522.067 378.716 521.508 379.312 521.089 380.003C519.213 382.872 519.722 387.064 520.803 390.125C522.011 393.584 527.494 399.29 527.939 399.688C524.666 402.82 521.608 406.169 518.784 409.714C517.195 411.77 515.526 413.89 514.016 416.09C514.588 415.006 515.097 414.018 515.145 413.874C516.734 409.842 517.417 401.123 513.666 398.015C513.026 397.524 512.29 397.175 511.506 396.988C510.722 396.802 509.907 396.784 509.116 396.934C508.324 397.084 507.573 397.4 506.911 397.861C506.249 398.322 505.691 398.917 505.274 399.609C503.383 402.462 503.907 406.67 504.972 409.714C506.037 412.759 510.647 417.795 511.87 419.087L510.011 421.541C507.15 425.542 504.321 429.511 501.412 433.368C500.395 434.723 499.346 436.03 498.233 437.321C498.742 436.349 499.171 435.536 499.219 435.408C500.808 431.36 501.492 422.657 497.741 419.469C497.1 418.976 496.362 418.624 495.577 418.436C494.791 418.248 493.975 418.229 493.181 418.379C492.387 418.53 491.634 418.847 490.971 419.309C490.308 419.772 489.75 420.369 489.333 421.063C487.441 423.932 487.966 428.124 489.046 431.184C490.127 434.245 494.26 438.772 495.706 440.318C494.594 441.625 493.481 442.916 492.337 444.127C491.542 444.94 490.843 445.721 489.984 446.534L487.552 448.829C485.963 450.232 484.374 451.698 482.705 453.037C481.592 453.978 480.527 454.838 479.526 455.715C480.543 454.392 482.514 451.73 482.705 451.491C484.495 448.12 485.393 444.344 485.311 440.525C485.523 440.158 485.704 439.774 485.852 439.377C486.149 438.626 486.285 437.82 486.252 437.012C486.218 436.204 486.016 435.412 485.658 434.688C485.3 433.964 484.794 433.323 484.173 432.807C483.552 432.291 482.829 431.912 482.053 431.695C477.285 430.531 470.768 436.317 468.495 440.015C468.368 440.238 467.16 442.756 466.445 444.366C466.715 443.362 467.017 442.374 467.287 441.338C467.86 439.282 468.368 437.21 468.877 434.962C469.099 433.878 469.338 432.778 469.576 431.679C469.815 430.579 469.958 429.399 470.164 428.252C470.562 425.574 470.848 422.848 471.086 420.091C472.882 420.585 479.287 422.258 482.498 421.685C485.709 421.111 489.635 419.676 491.256 416.664C491.666 415.968 491.926 415.193 492.017 414.389C492.107 413.586 492.028 412.772 491.783 412.001C491.539 411.231 491.135 410.521 490.597 409.918C490.06 409.315 489.401 408.833 488.665 408.503C484.183 406.622 476.824 411.356 474.011 414.655C473.836 414.863 472.087 417.461 471.15 418.911C471.277 417.317 471.404 415.596 471.483 413.906C471.674 409.124 471.738 404.135 471.817 399.226C471.817 397.728 471.817 396.23 471.913 394.731C472.548 394.907 480.13 397.058 483.722 396.501C486.901 396.022 490.858 394.508 492.495 391.48C492.901 390.781 493.155 390.006 493.242 389.203C493.329 388.4 493.247 387.587 493.002 386.818C492.756 386.049 492.352 385.34 491.816 384.737C491.28 384.134 490.623 383.651 489.889 383.319C485.423 381.454 478.048 386.188 475.234 389.487C475.028 389.726 472.517 393.472 471.913 394.46C471.992 391.161 472.103 387.861 472.342 384.626C472.648 380.252 473.232 375.903 474.09 371.603C474.392 371.603 482.291 373.962 485.979 373.389C489.158 372.91 493.099 371.396 494.737 368.368C495.142 367.67 495.397 366.896 495.486 366.093C495.574 365.291 495.493 364.479 495.249 363.71C495.005 362.941 494.603 362.232 494.068 361.628C493.534 361.025 492.879 360.541 492.146 360.207C487.664 358.342 480.289 363.06 477.491 366.375C477.301 366.582 475.378 369.436 474.503 370.806L474.249 370.711C475.231 366.404 476.598 362.195 478.334 358.135C479.256 355.887 480.257 353.799 481.29 351.759C482.721 352.333 489.237 354.947 492.639 354.756C496.04 354.564 499.95 353.544 501.905 350.723C502.385 350.074 502.723 349.332 502.899 348.544C503.075 347.755 503.083 346.939 502.925 346.147C502.766 345.355 502.443 344.606 501.977 343.947C501.511 343.288 500.913 342.735 500.22 342.323C495.976 339.98 488.125 343.917 484.978 346.834C484.803 346.993 483.245 348.826 482.117 350.181C482.593 349.288 483.07 348.348 483.547 347.487C485.327 344.299 487.139 341.43 488.776 338.928C489.714 337.525 490.588 336.266 491.431 335.086C493.115 334.927 499.95 334.146 502.827 332.504C505.703 330.863 508.755 328.057 509.184 324.646C509.315 323.849 509.277 323.033 509.071 322.252C508.866 321.471 508.499 320.742 507.993 320.113C507.487 319.484 506.855 318.969 506.137 318.602C505.419 318.235 504.633 318.024 503.828 317.984C498.98 317.856 493.815 324.917 492.384 329.014C492.257 329.38 490.954 335.134 491.033 335.118H491.144C490.318 336.181 489.444 337.392 488.522 338.752C486.821 341.223 484.93 344.028 483.086 347.216C481.057 350.636 479.226 354.169 477.603 357.8C475.772 361.861 474.299 366.074 473.2 370.392C473.209 370.445 473.209 370.499 473.2 370.551C473.2 369.133 472.723 365.164 472.66 364.861C471.77 360.621 467.526 352.938 462.71 352.46C461.906 352.399 461.099 352.509 460.34 352.782C459.581 353.055 458.889 353.485 458.307 354.045C457.725 354.604 457.267 355.28 456.963 356.029C456.659 356.777 456.516 357.582 456.543 358.39C456.543 361.817 459.293 365.036 461.868 366.981C464.776 369.197 472.485 370.934 473.105 371.061C472.107 375.489 471.401 379.978 470.991 384.498C470.752 387.128 470.577 389.774 470.434 392.468C470.323 391.241 470.212 390.141 470.18 389.997C469.274 385.742 465.03 378.075 460.215 377.581C459.411 377.52 458.603 377.629 457.845 377.902C457.086 378.175 456.393 378.605 455.811 379.165C455.229 379.724 454.772 380.4 454.468 381.149C454.164 381.898 454.021 382.702 454.048 383.51C454.048 386.937 456.797 390.157 459.372 392.117C461.947 394.078 468.543 395.704 470.276 396.118C470.276 397.138 470.18 398.158 470.148 399.178C469.958 404.088 469.799 408.997 469.497 413.795C469.385 415.484 469.211 417.158 469.052 418.816C468.956 417.732 468.845 416.807 468.829 416.68C467.923 412.424 463.679 404.757 458.864 404.263C458.06 404.202 457.252 404.312 456.494 404.585C455.735 404.858 455.042 405.288 454.46 405.847C453.878 406.407 453.421 407.083 453.117 407.831C452.813 408.58 452.67 409.385 452.697 410.192C452.697 413.635 455.446 416.839 458.021 418.8C460.596 420.76 466.556 422.243 468.607 422.721C468.4 424.426 468.178 426.132 467.891 427.758C467.669 428.873 467.542 429.973 467.256 431.073L466.493 434.261C465.921 436.317 465.364 438.453 464.76 440.445C464.347 441.832 463.934 443.155 463.521 444.494C463.648 442.804 463.823 439.505 463.807 439.218C463.568 434.898 460.532 426.658 455.86 425.446C455.075 425.266 454.262 425.254 453.472 425.409C452.683 425.565 451.935 425.886 451.277 426.35C450.619 426.814 450.065 427.413 449.653 428.105C449.24 428.798 448.978 429.57 448.882 430.372C448.358 433.767 450.583 437.353 452.84 439.68C455.097 442.007 462.376 445.052 463.266 445.402C462.567 447.602 461.883 449.722 461.2 451.778C458.832 458.712 456.607 464.402 455.001 468.355C455.001 468.498 454.89 468.626 454.826 468.753L457.719 470.347C457.815 470.092 457.926 469.837 458.021 469.566C459.611 465.534 461.693 459.732 463.918 452.671C464.633 450.439 465.348 448.048 466.064 445.578C468.489 445.882 470.93 446.042 473.375 446.056C474.249 449.61 478.302 455.444 478.827 456.193C477.046 457.644 475.298 459.046 473.629 460.337C467.844 464.816 462.853 468.307 459.324 470.73L458.911 471.017L462.09 472.77C465.523 470.3 470.037 466.873 475.393 462.601C477.205 461.134 479.129 459.525 481.068 457.819C481.783 458.425 487.584 463.366 491.017 464.354C494.117 465.247 498.329 465.534 501.062 463.478C501.723 463.016 502.279 462.42 502.695 461.728C503.111 461.037 503.377 460.266 503.476 459.464C503.575 458.663 503.504 457.85 503.269 457.077C503.034 456.305 502.64 455.591 502.111 454.982C498.837 451.396 490.175 452.591 486.217 454.408C485.995 454.52 483.611 456.002 482.117 456.895C482.911 456.209 483.706 455.556 484.485 454.838C486.074 453.452 487.664 452.001 489.348 450.439L491.733 448.096C492.543 447.315 493.322 446.407 494.117 445.562C495.929 443.553 497.661 441.433 499.362 439.266C500.601 440.668 505.036 445.641 507.976 446.98C510.917 448.319 515.033 449.244 518.053 447.634C518.774 447.276 519.413 446.77 519.927 446.15C520.441 445.529 520.82 444.807 521.039 444.03C521.257 443.254 521.311 442.44 521.197 441.641C521.082 440.842 520.802 440.077 520.374 439.393C517.672 435.361 508.93 435.217 504.766 436.413C504.496 436.492 501.587 437.688 499.998 438.373C500.999 437.066 502.032 435.759 503.002 434.388C505.847 430.451 508.596 426.419 511.362 422.338L513.921 418.64C514.35 419.134 519.5 425.128 522.806 426.61C525.73 427.965 529.847 428.889 532.867 427.263C533.591 426.909 534.233 426.406 534.75 425.785C535.267 425.165 535.648 424.442 535.867 423.664C536.086 422.886 536.139 422.071 536.022 421.271C535.905 420.471 535.62 419.705 535.187 419.023C532.485 414.99 523.743 414.847 519.579 416.058C519.277 416.138 515.113 417.875 514.08 418.369C515.955 415.66 517.862 412.966 519.849 410.4C522.498 406.912 525.376 403.605 528.464 400.501C528.671 400.74 534.011 407.005 537.38 408.567C540.321 409.937 544.437 410.846 547.457 409.236C548.18 408.88 548.82 408.375 549.336 407.755C549.852 407.134 550.231 406.412 550.45 405.635C550.669 404.857 550.722 404.043 550.607 403.243C550.491 402.444 550.208 401.678 549.778 400.995C547.076 396.947 538.334 396.819 534.17 398.015C533.9 398.094 530.737 399.417 529.243 400.071L529.084 399.832C532.273 396.795 535.725 394.048 539.399 391.623C541.418 390.252 543.404 389.057 545.375 387.957C546.249 389.216 550.302 394.97 553.195 396.724C556.088 398.477 559.95 399.768 563.129 398.493C563.888 398.216 564.581 397.782 565.162 397.218C565.742 396.654 566.197 395.974 566.497 395.222C566.797 394.469 566.936 393.662 566.903 392.852C566.87 392.043 566.667 391.249 566.308 390.523C564.067 386.204 555.389 385.12 551.129 385.853C550.891 385.853 548.57 386.554 546.901 387.064L549.571 385.598C552.83 383.909 555.929 382.538 558.647 381.358C560.236 380.705 561.635 380.131 562.97 379.621C564.48 380.418 570.583 383.558 573.889 383.765C577.195 383.972 581.296 383.335 583.521 380.737C584.03 380.152 584.416 379.471 584.655 378.733C584.895 377.995 584.983 377.217 584.914 376.444C584.846 375.671 584.623 374.92 584.258 374.236C583.893 373.552 583.393 372.95 582.79 372.464Z" fill="url(#paint2_linear_3_1448)"/>
<path d="M471.149 344.012C473.454 347.041 481.004 350.978 481.019 350.978C481.035 350.978 482.1 345.208 482.116 344.825C482.37 340.49 480.304 331.978 475.758 330.225C474.999 329.955 474.191 329.848 473.388 329.911C472.585 329.975 471.804 330.208 471.096 330.594C470.388 330.981 469.77 331.512 469.28 332.154C468.791 332.797 468.442 333.535 468.256 334.321C467.366 337.621 469.258 341.446 471.149 344.012Z" fill="url(#paint3_linear_3_1448)"/>
<g opacity="0.5">
<path d="M545.661 387.288C545.661 387.367 549.746 383.064 549.968 382.761C552.559 379.286 555.531 371.03 552.718 367.061C552.233 366.416 551.619 365.881 550.914 365.491C550.21 365.1 549.431 364.863 548.629 364.793C547.827 364.724 547.02 364.825 546.259 365.089C545.499 365.354 544.802 365.775 544.215 366.327C541.64 368.591 541.036 372.783 541.258 376.019C541.529 379.812 545.661 387.272 545.661 387.288Z" fill="white"/>
<path d="M582.79 372.464C578.816 369.675 570.615 372.719 567.166 375.333C566.864 375.572 562.604 379.653 562.684 379.685H562.779C561.476 380.163 560.093 380.673 558.583 381.279C555.818 382.394 552.702 383.701 549.396 385.327C545.828 387.067 542.357 389.004 539.002 391.129C535.241 393.497 531.699 396.196 528.416 399.194C528.375 399.227 528.338 399.265 528.305 399.306C529.004 398.079 530.864 394.524 530.975 394.269C532.565 390.22 533.248 381.518 529.497 378.409C528.855 377.919 528.118 377.569 527.333 377.382C526.547 377.196 525.732 377.177 524.939 377.328C524.146 377.478 523.393 377.794 522.73 378.255C522.067 378.716 521.508 379.312 521.089 380.003C519.213 382.872 519.722 387.064 520.803 390.125C522.011 393.584 527.494 399.29 527.939 399.688C524.666 402.82 521.608 406.169 518.784 409.714C517.195 411.77 515.526 413.89 514.016 416.09C514.588 415.006 515.097 414.018 515.145 413.874C516.734 409.842 517.417 401.123 513.666 398.015C513.026 397.524 512.29 397.175 511.506 396.988C510.722 396.802 509.907 396.784 509.116 396.934C508.324 397.084 507.573 397.4 506.911 397.861C506.249 398.322 505.691 398.917 505.274 399.609C503.383 402.462 503.907 406.67 504.972 409.714C506.037 412.759 510.647 417.795 511.87 419.087L510.011 421.541C507.15 425.542 504.321 429.511 501.412 433.368C500.395 434.723 499.346 436.03 498.233 437.321C498.742 436.349 499.171 435.536 499.219 435.408C500.808 431.36 501.492 422.657 497.741 419.469C497.1 418.976 496.362 418.624 495.577 418.436C494.791 418.248 493.975 418.229 493.181 418.379C492.387 418.53 491.634 418.847 490.971 419.309C490.308 419.772 489.75 420.369 489.333 421.063C487.441 423.932 487.966 428.124 489.046 431.184C490.127 434.245 494.26 438.772 495.706 440.318C494.594 441.625 493.481 442.916 492.337 444.127C491.542 444.94 490.843 445.721 489.984 446.534L487.552 448.829C485.963 450.232 484.374 451.698 482.705 453.037C481.592 453.978 480.527 454.838 479.526 455.715C480.543 454.392 482.514 451.73 482.705 451.491C484.495 448.12 485.393 444.344 485.311 440.525C485.523 440.158 485.704 439.774 485.852 439.377C486.149 438.626 486.285 437.82 486.252 437.012C486.218 436.204 486.016 435.412 485.658 434.688C485.3 433.964 484.794 433.323 484.173 432.807C483.552 432.291 482.829 431.912 482.053 431.695C477.285 430.531 470.768 436.317 468.495 440.015C468.368 440.238 467.16 442.756 466.445 444.366C466.715 443.362 467.017 442.374 467.287 441.338C467.86 439.282 468.368 437.21 468.877 434.962C469.099 433.878 469.338 432.778 469.576 431.679C469.815 430.579 469.958 429.399 470.164 428.252C470.562 425.574 470.848 422.848 471.086 420.091C472.882 420.585 479.287 422.258 482.498 421.685C485.709 421.111 489.635 419.676 491.256 416.664C491.666 415.968 491.926 415.193 492.017 414.389C492.107 413.586 492.028 412.772 491.783 412.001C491.539 411.231 491.135 410.521 490.597 409.918C490.06 409.315 489.401 408.833 488.665 408.503C484.183 406.622 476.824 411.356 474.011 414.655C473.836 414.863 472.087 417.461 471.15 418.911C471.277 417.317 471.404 415.596 471.483 413.906C471.674 409.124 471.738 404.135 471.817 399.226C471.817 397.728 471.817 396.23 471.913 394.731C472.548 394.907 480.13 397.058 483.722 396.501C486.901 396.022 490.858 394.508 492.495 391.48C492.901 390.781 493.155 390.006 493.242 389.203C493.329 388.4 493.247 387.587 493.002 386.818C492.756 386.049 492.352 385.34 491.816 384.737C491.28 384.134 490.623 383.651 489.889 383.319C485.423 381.454 478.048 386.188 475.234 389.487C475.028 389.726 472.517 393.472 471.913 394.46C471.992 391.161 472.103 387.861 472.342 384.626C472.648 380.252 473.232 375.903 474.09 371.603C474.392 371.603 482.291 373.962 485.979 373.389C489.158 372.91 493.099 371.396 494.737 368.368C495.142 367.67 495.397 366.896 495.486 366.093C495.574 365.291 495.493 364.479 495.249 363.71C495.005 362.941 494.603 362.232 494.068 361.628C493.534 361.025 492.879 360.541 492.146 360.207C487.664 358.342 480.289 363.06 477.491 366.375C477.301 366.582 475.378 369.436 474.503 370.806L474.249 370.711C475.231 366.404 476.598 362.195 478.334 358.135C479.256 355.887 480.257 353.799 481.29 351.759C482.721 352.333 489.237 354.947 492.639 354.756C496.04 354.564 499.95 353.544 501.905 350.723C502.385 350.074 502.723 349.332 502.899 348.544C503.075 347.755 503.083 346.939 502.925 346.147C502.766 345.355 502.443 344.606 501.977 343.947C501.511 343.288 500.913 342.735 500.22 342.323C495.976 339.98 488.125 343.917 484.978 346.834C484.803 346.993 483.245 348.826 482.117 350.181C482.593 349.288 483.07 348.348 483.547 347.487C485.327 344.299 487.139 341.43 488.776 338.928C489.714 337.525 490.588 336.266 491.431 335.086C493.115 334.927 499.95 334.146 502.827 332.504C505.703 330.863 508.755 328.057 509.184 324.646C509.315 323.849 509.277 323.033 509.071 322.252C508.866 321.471 508.499 320.742 507.993 320.113C507.487 319.484 506.855 318.969 506.137 318.602C505.419 318.235 504.633 318.024 503.828 317.984C498.98 317.856 493.815 324.917 492.384 329.014C492.257 329.38 490.954 335.134 491.033 335.118H491.144C490.318 336.181 489.444 337.392 488.522 338.752C486.821 341.223 484.93 344.028 483.086 347.216C481.057 350.636 479.226 354.169 477.603 357.8C475.772 361.861 474.299 366.074 473.2 370.392C473.209 370.445 473.209 370.499 473.2 370.551C473.2 369.133 472.723 365.164 472.66 364.861C471.77 360.621 467.526 352.938 462.71 352.46C461.906 352.399 461.099 352.509 460.34 352.782C459.581 353.055 458.889 353.485 458.307 354.045C457.725 354.604 457.267 355.28 456.963 356.029C456.659 356.777 456.516 357.582 456.543 358.39C456.543 361.817 459.293 365.036 461.868 366.981C464.776 369.197 472.485 370.934 473.105 371.061C472.107 375.489 471.401 379.978 470.991 384.498C470.752 387.128 470.577 389.774 470.434 392.468C470.323 391.241 470.212 390.141 470.18 389.997C469.274 385.742 465.03 378.075 460.215 377.581C459.411 377.52 458.603 377.629 457.845 377.902C457.086 378.175 456.393 378.605 455.811 379.165C455.229 379.724 454.772 380.4 454.468 381.149C454.164 381.898 454.021 382.702 454.048 383.51C454.048 386.937 456.797 390.157 459.372 392.117C461.947 394.078 468.543 395.704 470.276 396.118C470.276 397.138 470.18 398.158 470.148 399.178C469.958 404.088 469.799 408.997 469.497 413.795C469.385 415.484 469.211 417.158 469.052 418.816C468.956 417.732 468.845 416.807 468.829 416.68C467.923 412.424 463.679 404.757 458.864 404.263C458.06 404.202 457.252 404.312 456.494 404.585C455.735 404.858 455.042 405.288 454.46 405.847C453.878 406.407 453.421 407.083 453.117 407.831C452.813 408.58 452.67 409.385 452.697 410.192C452.697 413.635 455.446 416.839 458.021 418.8C460.596 420.76 466.556 422.243 468.607 422.721C468.4 424.426 468.178 426.132 467.891 427.758C467.669 428.873 467.542 429.973 467.256 431.073L466.493 434.261C465.921 436.317 465.364 438.453 464.76 440.445C464.347 441.832 463.934 443.155 463.521 444.494C463.648 442.804 463.823 439.505 463.807 439.218C463.568 434.898 460.532 426.658 455.86 425.446C455.075 425.266 454.262 425.254 453.472 425.409C452.683 425.565 451.935 425.886 451.277 426.35C450.619 426.814 450.065 427.413 449.653 428.105C449.24 428.798 448.978 429.57 448.882 430.372C448.358 433.767 450.583 437.353 452.84 439.68C455.097 442.007 462.376 445.052 463.266 445.402C462.567 447.602 461.883 449.722 461.2 451.778C458.832 458.712 456.607 464.402 455.001 468.355C455.001 468.498 454.89 468.626 454.826 468.753L457.719 470.347C457.815 470.092 457.926 469.837 458.021 469.566C459.611 465.534 461.693 459.732 463.918 452.671C464.633 450.439 465.348 448.048 466.064 445.578C468.489 445.882 470.93 446.042 473.375 446.056C474.249 449.61 478.302 455.444 478.827 456.193C477.046 457.644 475.298 459.046 473.629 460.337C467.844 464.816 462.853 468.307 459.324 470.73L458.911 471.017L462.09 472.77C465.523 470.3 470.037 466.873 475.393 462.601C477.205 461.134 479.129 459.525 481.068 457.819C481.783 458.425 487.584 463.366 491.017 464.354C494.117 465.247 498.329 465.534 501.062 463.478C501.723 463.016 502.279 462.42 502.695 461.728C503.111 461.037 503.377 460.266 503.476 459.464C503.575 458.663 503.504 457.85 503.269 457.077C503.034 456.305 502.64 455.591 502.111 454.982C498.837 451.396 490.175 452.591 486.217 454.408C485.995 454.52 483.611 456.002 482.117 456.895C482.911 456.209 483.706 455.556 484.485 454.838C486.074 453.452 487.664 452.001 489.348 450.439L491.733 448.096C492.543 447.315 493.322 446.407 494.117 445.562C495.929 443.553 497.661 441.433 499.362 439.266C500.601 440.668 505.036 445.641 507.976 446.98C510.917 448.319 515.033 449.244 518.053 447.634C518.774 447.276 519.413 446.77 519.927 446.15C520.441 445.529 520.82 444.807 521.039 444.03C521.257 443.254 521.311 442.44 521.197 441.641C521.082 440.842 520.802 440.077 520.374 439.393C517.672 435.361 508.93 435.217 504.766 436.413C504.496 436.492 501.587 437.688 499.998 438.373C500.999 437.066 502.032 435.759 503.002 434.388C505.847 430.451 508.596 426.419 511.362 422.338L513.921 418.64C514.35 419.134 519.5 425.128 522.806 426.61C525.73 427.965 529.847 428.889 532.867 427.263C533.591 426.909 534.233 426.406 534.75 425.785C535.267 425.165 535.648 424.442 535.867 423.664C536.086 422.886 536.139 422.071 536.022 421.271C535.905 420.471 535.62 419.705 535.187 419.023C532.485 414.99 523.743 414.847 519.579 416.058C519.277 416.138 515.113 417.875 514.08 418.369C515.955 415.66 517.862 412.966 519.849 410.4C522.498 406.912 525.376 403.605 528.464 400.501C528.671 400.74 534.011 407.005 537.38 408.567C540.321 409.937 544.437 410.846 547.457 409.236C548.18 408.88 548.82 408.375 549.336 407.755C549.852 407.134 550.231 406.412 550.45 405.635C550.669 404.857 550.722 404.043 550.607 403.243C550.491 402.444 550.208 401.678 549.778 400.995C547.076 396.947 538.334 396.819 534.17 398.015C533.9 398.094 530.737 399.417 529.243 400.071L529.084 399.832C532.273 396.795 535.725 394.048 539.399 391.623C541.418 390.252 543.404 389.057 545.375 387.957C546.249 389.216 550.302 394.97 553.195 396.724C556.088 398.477 559.95 399.768 563.129 398.493C563.888 398.216 564.581 397.782 565.162 397.218C565.742 396.654 566.197 395.974 566.497 395.222C566.797 394.469 566.936 393.662 566.903 392.852C566.87 392.043 566.667 391.249 566.308 390.523C564.067 386.204 555.389 385.12 551.129 385.853C550.891 385.853 548.57 386.554 546.901 387.064L549.571 385.598C552.83 383.909 555.929 382.538 558.647 381.358C560.236 380.705 561.635 380.131 562.97 379.621C564.48 380.418 570.583 383.558 573.889 383.765C577.195 383.972 581.296 383.335 583.521 380.737C584.03 380.152 584.416 379.471 584.655 378.733C584.895 377.995 584.983 377.217 584.914 376.444C584.846 375.671 584.623 374.92 584.258 374.236C583.893 373.552 583.393 372.95 582.79 372.464Z" fill="white"/>
<path d="M471.149 344.012C473.453 347.041 481.003 350.978 481.019 350.978C481.035 350.978 482.1 345.208 482.116 344.825C482.37 340.49 480.304 331.978 475.758 330.225C474.999 329.955 474.191 329.848 473.387 329.911C472.584 329.975 471.803 330.208 471.095 330.594C470.388 330.981 469.769 331.512 469.28 332.154C468.791 332.797 468.442 333.535 468.256 334.321C467.366 337.621 469.257 341.446 471.149 344.012Z" fill="white"/>
</g>
<path d="M160.912 263.423C161.007 263.423 159.672 256.745 159.529 256.346C157.94 251.564 152.218 243.26 146.623 243.276C145.694 243.305 144.781 243.53 143.944 243.936C143.107 244.342 142.365 244.92 141.765 245.633C141.166 246.345 140.722 247.176 140.464 248.072C140.206 248.968 140.138 249.908 140.265 250.831C140.679 254.768 144.207 258.131 147.402 260.06C151.121 262.339 160.912 263.423 160.912 263.423Z" fill="url(#paint4_linear_3_1448)"/>
<path d="M171.736 218.458C166.459 220.355 163.789 230.142 164.012 235.147C164.012 235.577 165.013 242.32 165.108 242.272H165.22C164.79 243.866 164.361 245.46 163.916 247.293C163.121 250.656 162.327 254.465 161.596 258.673C160.841 263.205 160.342 267.777 160.102 272.365C159.823 277.498 159.998 282.645 160.626 287.747C160.634 287.81 160.634 287.874 160.626 287.938C159.943 286.44 157.876 282.343 157.67 282.04C154.936 277.848 147.18 271.361 141.776 272.859C140.888 273.135 140.067 273.594 139.367 274.208C138.668 274.822 138.104 275.576 137.713 276.422C137.322 277.267 137.112 278.186 137.098 279.118C137.083 280.05 137.263 280.975 137.627 281.833C139.058 285.515 143.349 287.826 146.941 288.846C150.994 290.01 160.022 288.639 160.737 288.528C161.501 293.708 162.611 298.83 164.059 303.861C164.886 306.794 165.808 309.727 166.777 312.66C166.141 311.385 165.553 310.253 165.458 310.109C162.708 305.917 154.968 299.43 149.564 300.928C148.675 301.2 147.853 301.657 147.152 302.268C146.451 302.88 145.886 303.633 145.495 304.478C145.103 305.323 144.894 306.242 144.88 307.174C144.867 308.106 145.049 309.03 145.415 309.886C146.846 313.584 151.137 315.895 154.729 316.915C158.321 317.936 166.078 316.916 168.128 316.645C168.51 317.76 168.875 318.892 169.257 320.008C171.1 325.363 172.976 330.719 174.645 335.947C175.233 337.812 175.741 339.677 176.234 341.526C175.662 340.394 175.185 339.454 175.09 339.326C172.356 335.134 164.6 328.647 159.196 330.145C158.307 330.417 157.485 330.873 156.784 331.485C156.083 332.097 155.518 332.85 155.126 333.695C154.735 334.54 154.526 335.459 154.512 336.391C154.498 337.322 154.681 338.247 155.047 339.103C156.478 342.801 160.769 345.112 164.361 346.132C167.953 347.152 174.963 346.26 177.394 345.909C177.871 347.838 178.348 349.751 178.714 351.631C178.952 352.922 179.254 354.15 179.413 355.473C179.572 356.796 179.763 358.039 179.953 359.298C180.208 361.753 180.478 364.287 180.669 366.694C180.812 368.288 180.907 369.882 181.018 371.476C180.462 369.611 179.27 365.977 179.143 365.69C177.164 361.75 174.215 358.381 170.576 355.903C170.373 355.456 170.128 355.029 169.845 354.628C169.341 353.843 168.679 353.173 167.901 352.661C167.122 352.149 166.245 351.807 165.327 351.657C164.408 351.506 163.468 351.551 162.568 351.789C161.668 352.026 160.828 352.45 160.102 353.034C155.874 356.716 156.923 366.774 158.878 371.396C158.989 371.667 160.578 374.472 161.596 376.178C160.833 375.237 160.118 374.313 159.323 373.341C157.733 371.444 156.144 369.579 154.427 367.571L151.805 364.718C150.947 363.745 149.929 362.837 148.976 361.88C146.751 359.713 144.366 357.625 141.935 355.505C143.524 354.134 149.437 349.129 151.121 345.829C152.806 342.53 153.982 337.748 152.234 334.194C151.852 333.344 151.295 332.584 150.6 331.965C149.905 331.345 149.088 330.88 148.202 330.598C147.315 330.317 146.379 330.226 145.456 330.332C144.532 330.438 143.641 330.738 142.841 331.213C138.072 334.194 137.627 344.299 138.851 349.161C138.931 349.464 140.202 352.843 140.933 354.692C139.455 353.48 137.993 352.253 136.467 351.058C132.033 347.631 127.455 344.299 122.893 340.952C121.495 339.932 120.112 338.88 118.729 337.86C119.333 337.366 126.406 331.643 128.266 327.882C129.935 324.534 131.143 319.801 129.394 316.246C129.012 315.396 128.455 314.637 127.76 314.017C127.065 313.398 126.248 312.932 125.362 312.651C124.475 312.369 123.54 312.279 122.616 312.385C121.692 312.491 120.801 312.791 120.001 313.265C115.233 316.246 114.772 326.352 116.011 331.213C116.011 331.58 117.935 336.457 118.459 337.669C115.407 335.389 112.403 333.094 109.511 330.703C105.586 327.502 101.87 324.052 98.3848 320.374C98.6709 320.151 106.078 314.206 107.921 310.348C109.59 307.001 110.798 302.267 109.05 298.713C108.667 297.863 108.111 297.103 107.416 296.484C106.721 295.864 105.904 295.399 105.017 295.117C104.131 294.836 103.195 294.745 102.271 294.851C101.348 294.957 100.457 295.257 99.6563 295.732C94.8881 298.713 94.4271 308.818 95.6669 313.68C95.6669 313.999 97.145 317.712 97.8444 319.466L97.5742 319.625C94.1832 315.827 91.1405 311.73 88.4827 307.384C86.9887 305.025 85.7013 302.602 84.4933 300.355C85.9715 299.382 92.7582 294.903 94.8722 291.62C96.9861 288.336 98.6073 283.905 97.2563 280.191C96.9693 279.304 96.4994 278.487 95.8769 277.794C95.2545 277.101 94.4935 276.547 93.6434 276.168C92.7934 275.789 91.8734 275.594 90.9431 275.595C90.0129 275.596 89.0934 275.794 88.2443 276.175C83.2059 278.629 81.6324 288.623 82.3158 293.58C82.3158 293.851 83.031 296.561 83.5556 298.522C83.031 297.47 82.4748 296.386 81.9661 295.334C80.1224 291.508 78.6761 287.906 77.4045 284.686C76.7052 282.853 76.1171 281.196 75.5767 279.618C76.5462 277.912 80.3449 270.947 80.7264 267.137C81.1079 263.328 80.5198 258.562 77.5476 255.884C76.8849 255.23 76.0924 254.724 75.2217 254.397C74.351 254.07 73.4216 253.931 72.4938 253.988C71.5659 254.045 70.6604 254.298 69.8361 254.729C69.0118 255.159 68.2871 255.759 67.7091 256.49C64.3714 260.984 67.5661 270.596 70.4588 274.676C70.6972 275.027 75.227 280.112 75.227 280.016V279.904C75.7197 281.498 76.2601 283.092 76.8164 284.814C78.0085 288.002 79.3913 291.715 81.1555 295.589C83.0059 299.79 85.1023 303.877 87.4337 307.83C90.0299 312.269 93.0081 316.472 96.3344 320.39L96.4616 320.518C95.0629 319.657 91.0894 317.33 90.7556 317.234C86.1622 315.258 76.133 314.142 72.4456 318.366C71.8554 319.087 71.423 319.925 71.1763 320.825C70.9296 321.725 70.8742 322.667 71.0135 323.589C71.1529 324.512 71.4839 325.395 71.9853 326.181C72.4866 326.967 73.147 327.639 73.9237 328.153C77.1025 330.432 81.9979 329.986 85.5423 328.854C89.5635 327.579 96.3344 321.442 96.8748 320.884C100.338 324.777 104.055 328.435 108.001 331.835C110.305 333.827 112.689 335.772 115.105 337.669L112.61 336.266C108.017 334.289 97.9874 333.174 94.3 337.413C93.7094 338.133 93.2762 338.968 93.0284 339.866C92.7806 340.764 92.7238 341.704 92.8617 342.625C92.9996 343.547 93.3291 344.429 93.8288 345.214C94.3284 345.999 94.9872 346.671 95.7622 347.184C98.9411 349.48 103.836 349.017 107.397 347.886C110.957 346.754 116.933 341.637 118.427 340.251L121.225 342.434C125.723 345.877 130.221 349.304 134.528 352.795C136.038 354.022 137.484 355.297 138.947 356.557C137.85 355.935 136.928 355.409 136.769 355.345C132.192 353.369 122.146 352.253 118.475 356.477C117.884 357.197 117.451 358.034 117.203 358.933C116.955 359.833 116.898 360.774 117.036 361.696C117.174 362.619 117.503 363.502 118.003 364.289C118.503 365.076 119.162 365.748 119.937 366.264C123.116 368.543 128.011 368.097 131.572 366.965C135.132 365.833 140.488 361.195 142.316 359.569C143.778 360.908 145.225 362.247 146.576 363.618C147.482 364.558 148.404 365.419 149.262 366.423L151.821 369.324C153.41 371.237 155 373.197 156.478 375.094C157.511 376.401 158.48 377.676 159.45 378.951C157.956 377.708 154.968 375.333 154.682 375.174C150.438 372.512 140.695 369.882 136.419 373.58C135.726 374.202 135.172 374.963 134.792 375.815C134.413 376.666 134.217 377.588 134.217 378.521C134.217 379.454 134.413 380.376 134.792 381.227C135.172 382.079 135.726 382.84 136.419 383.462C139.264 386.22 144.128 386.507 147.815 385.933C151.868 385.295 159.227 380.481 160.133 379.876C161.723 381.996 163.312 384.068 164.695 386.06C169.654 392.914 173.516 398.812 176.155 402.972L176.425 403.402L179.842 401.729L179.302 400.916C176.536 396.771 172.515 390.89 167.365 384.084C165.776 381.916 163.98 379.653 162.136 377.341C164.028 375.244 165.801 373.041 167.445 370.743C171.371 372.337 179.572 372.337 180.621 372.337C180.796 374.998 180.939 377.581 181.034 380.019C181.384 388.467 181.368 395.528 181.273 400.469V401.043L185.024 399.21C185.024 394.301 184.849 387.686 184.34 379.844C184.181 377.15 183.959 374.265 183.688 371.316C184.737 371.061 193.225 368.862 196.404 366.296C199.312 363.952 202.38 360.159 202.285 356.206C202.292 355.272 202.102 354.348 201.729 353.493C201.356 352.637 200.808 351.87 200.12 351.242C199.431 350.613 198.619 350.137 197.735 349.845C196.851 349.552 195.915 349.449 194.989 349.543C189.442 350.261 184.785 359.234 183.863 364.176C183.863 364.462 183.577 367.682 183.45 369.707C183.339 368.511 183.243 367.332 183.116 366.088C182.862 363.65 182.544 361.195 182.21 358.581L181.59 354.74C181.416 353.464 181.066 352.141 180.796 350.818C180.128 347.758 179.302 344.714 178.396 341.637C180.526 341.43 188.123 340.522 191.381 338.657C194.64 336.792 198.216 333.508 198.708 329.571C198.857 328.651 198.81 327.709 198.572 326.807C198.333 325.906 197.907 325.065 197.322 324.34C196.737 323.615 196.006 323.022 195.176 322.6C194.347 322.177 193.439 321.935 192.51 321.889C186.915 321.745 180.955 329.858 179.318 334.64C179.206 334.927 178.412 338.465 177.998 340.41C177.442 338.577 176.902 336.744 176.282 334.895C174.47 329.587 172.483 324.279 170.512 318.956L168.748 314.078C169.511 313.999 178.571 313.138 182.21 311.034C185.389 309.169 189.045 305.886 189.538 301.964C189.686 301.043 189.639 300.1 189.401 299.198C189.162 298.296 188.736 297.454 188.151 296.728C187.567 296.002 186.836 295.407 186.007 294.983C185.177 294.559 184.268 294.314 183.339 294.266C177.744 294.138 171.784 302.235 170.147 307.017C170.02 307.384 168.875 312.453 168.637 313.76C167.349 310.173 166.094 306.587 165.013 303C163.504 298.17 162.315 293.244 161.453 288.257C161.802 288.257 171.259 287.364 174.994 285.212C178.173 283.347 181.829 280.064 182.322 276.127C182.468 275.206 182.419 274.266 182.179 273.365C181.939 272.465 181.513 271.625 180.929 270.901C180.344 270.176 179.614 269.583 178.786 269.16C177.958 268.737 177.051 268.493 176.123 268.444C170.528 268.301 164.568 276.414 162.931 281.196C162.82 281.514 161.945 285.372 161.564 287.221H161.246C160.517 282.176 160.235 277.077 160.404 271.983C160.404 269.177 160.674 266.499 160.928 263.901C162.708 263.901 170.83 263.901 174.39 262.307C177.951 260.713 181.765 257.956 182.687 254.099C182.936 253.2 182.993 252.258 182.854 251.335C182.715 250.412 182.383 249.53 181.881 248.744C181.378 247.959 180.716 247.289 179.937 246.778C179.159 246.267 178.281 245.926 177.363 245.778C171.816 245.013 164.997 252.489 162.851 256.936C162.724 257.191 161.818 259.821 161.167 261.718C161.31 260.538 161.437 259.327 161.58 258.211C162.152 254.003 162.931 250.241 163.646 246.814C164.075 244.902 164.488 243.18 164.902 241.57C166.65 240.678 173.675 236.996 176.028 233.999C178.38 231.003 180.557 226.731 179.604 222.842C179.083 221.252 177.984 219.918 176.526 219.105C175.067 218.293 173.357 218.062 171.736 218.458Z" fill="url(#paint5_linear_3_1448)"/>
<path d="M70.5541 304.977C74.925 304.802 83.6667 300.307 83.6826 300.307C83.6985 300.307 78.9144 295.429 78.6283 295.158C74.7184 291.971 65.3408 288.305 60.6839 291.397C59.9218 291.933 59.2812 292.624 58.8038 293.425C58.3264 294.226 58.023 295.119 57.9135 296.046C57.804 296.973 57.8908 297.912 58.1682 298.803C58.4457 299.694 58.9075 300.516 59.5236 301.215C62.0348 304.292 66.819 305.184 70.5541 304.977Z" fill="url(#paint6_linear_3_1448)"/>
<g opacity="0.5">
<path d="M160.912 263.423C161.007 263.423 159.672 256.745 159.529 256.346C157.94 251.564 152.218 243.26 146.623 243.276C145.694 243.305 144.781 243.53 143.944 243.936C143.107 244.342 142.365 244.92 141.765 245.633C141.166 246.345 140.722 247.176 140.464 248.072C140.206 248.968 140.138 249.908 140.265 250.831C140.679 254.768 144.207 258.131 147.402 260.06C151.121 262.339 160.912 263.423 160.912 263.423Z" fill="white"/>
<path d="M171.736 218.458C166.459 220.355 163.789 230.142 164.012 235.147C164.012 235.577 165.013 242.32 165.108 242.272H165.219C164.79 243.866 164.361 245.46 163.916 247.293C163.121 250.656 162.327 254.465 161.596 258.673C160.841 263.205 160.342 267.777 160.102 272.365C159.823 277.498 159.998 282.645 160.626 287.747C160.634 287.81 160.634 287.874 160.626 287.938C159.943 286.44 157.876 282.343 157.67 282.04C154.936 277.848 147.18 271.361 141.776 272.859C140.888 273.135 140.067 273.594 139.367 274.208C138.667 274.822 138.104 275.576 137.713 276.422C137.322 277.267 137.112 278.186 137.097 279.118C137.083 280.05 137.263 280.975 137.627 281.833C139.058 285.515 143.349 287.826 146.941 288.846C150.994 290.01 160.022 288.639 160.737 288.528C161.501 293.708 162.611 298.83 164.059 303.861C164.886 306.794 165.808 309.727 166.777 312.66C166.141 311.385 165.553 310.253 165.458 310.109C162.708 305.917 154.968 299.43 149.564 300.928C148.675 301.2 147.853 301.657 147.152 302.268C146.451 302.88 145.886 303.633 145.495 304.478C145.103 305.323 144.894 306.242 144.88 307.174C144.867 308.106 145.049 309.03 145.415 309.886C146.846 313.584 151.137 315.895 154.729 316.915C158.321 317.936 166.078 316.916 168.128 316.645C168.51 317.76 168.875 318.892 169.257 320.008C171.1 325.363 172.976 330.719 174.645 335.947C175.233 337.812 175.741 339.677 176.234 341.526C175.662 340.394 175.185 339.454 175.09 339.326C172.356 335.134 164.6 328.647 159.196 330.145C158.307 330.417 157.485 330.873 156.784 331.485C156.083 332.097 155.518 332.85 155.126 333.695C154.735 334.54 154.526 335.459 154.512 336.391C154.498 337.322 154.681 338.247 155.047 339.103C156.478 342.801 160.769 345.112 164.361 346.132C167.953 347.152 174.963 346.26 177.394 345.909C177.871 347.838 178.348 349.751 178.714 351.631C178.952 352.922 179.254 354.15 179.413 355.473C179.572 356.796 179.763 358.039 179.953 359.298C180.208 361.753 180.478 364.287 180.669 366.694C180.812 368.288 180.907 369.882 181.018 371.476C180.462 369.611 179.27 365.977 179.143 365.69C177.164 361.75 174.215 358.381 170.576 355.903C170.373 355.456 170.128 355.029 169.845 354.628C169.341 353.843 168.679 353.173 167.9 352.661C167.122 352.149 166.245 351.807 165.327 351.657C164.408 351.506 163.468 351.551 162.568 351.789C161.668 352.026 160.828 352.45 160.102 353.034C155.874 356.716 156.923 366.774 158.878 371.396C158.989 371.667 160.578 374.472 161.596 376.178C160.833 375.237 160.117 374.313 159.323 373.341C157.733 371.444 156.144 369.579 154.427 367.571L151.805 364.718C150.947 363.745 149.929 362.837 148.976 361.88C146.751 359.713 144.366 357.625 141.935 355.505C143.524 354.134 149.437 349.129 151.121 345.829C152.806 342.53 153.982 337.748 152.234 334.194C151.852 333.344 151.295 332.584 150.6 331.965C149.905 331.345 149.088 330.88 148.201 330.598C147.315 330.317 146.379 330.226 145.456 330.332C144.532 330.438 143.641 330.738 142.841 331.213C138.072 334.194 137.627 344.299 138.851 349.161C138.931 349.464 140.202 352.843 140.933 354.692C139.455 353.48 137.993 352.253 136.467 351.058C132.033 347.631 127.455 344.299 122.893 340.952C121.495 339.932 120.112 338.88 118.729 337.86C119.333 337.366 126.406 331.643 128.266 327.882C129.935 324.534 131.142 319.801 129.394 316.246C129.012 315.396 128.455 314.637 127.76 314.017C127.065 313.398 126.248 312.932 125.362 312.651C124.475 312.369 123.54 312.279 122.616 312.385C121.692 312.491 120.801 312.791 120.001 313.265C115.232 316.246 114.772 326.352 116.011 331.213C116.011 331.58 117.934 336.457 118.459 337.669C115.407 335.389 112.403 333.094 109.511 330.703C105.586 327.502 101.87 324.052 98.3847 320.374C98.6708 320.151 106.077 314.206 107.921 310.348C109.59 307.001 110.798 302.267 109.05 298.713C108.667 297.863 108.111 297.103 107.416 296.484C106.721 295.864 105.904 295.399 105.017 295.117C104.131 294.836 103.195 294.745 102.271 294.851C101.348 294.957 100.456 295.257 99.6562 295.732C94.888 298.713 94.4271 308.818 95.6668 313.68C95.6668 313.999 97.145 317.712 97.8443 319.466L97.5741 319.625C94.1832 315.827 91.1404 311.73 88.4827 307.384C86.9886 305.025 85.7012 302.602 84.4932 300.355C85.9714 299.382 92.7582 294.903 94.8721 291.62C96.986 288.336 98.6072 283.905 97.2562 280.191C96.9693 279.304 96.4993 278.487 95.8769 277.794C95.2544 277.101 94.4934 276.547 93.6434 276.168C92.7933 275.789 91.8733 275.594 90.9431 275.595C90.0129 275.596 89.0933 275.794 88.2443 276.175C83.2058 278.629 81.6323 288.623 82.3158 293.58C82.3158 293.851 83.031 296.561 83.5555 298.522C83.031 297.47 82.4747 296.386 81.9661 295.334C80.1224 291.508 78.676 287.906 77.4045 284.686C76.7051 282.853 76.117 281.196 75.5766 279.618C76.5462 277.912 80.3449 270.947 80.7263 267.137C81.1078 263.328 80.5197 258.562 77.5475 255.884C76.8848 255.23 76.0923 254.724 75.2217 254.397C74.351 254.07 73.4215 253.931 72.4937 253.988C71.5659 254.045 70.6604 254.298 69.8361 254.729C69.0118 255.159 68.2871 255.759 67.7091 256.49C64.3713 260.984 67.566 270.596 70.4587 274.676C70.6971 275.027 75.227 280.112 75.227 280.016V279.904C75.7197 281.498 76.2601 283.092 76.8164 284.814C78.0084 288.002 79.3912 291.715 81.1555 295.589C83.0058 299.79 85.1022 303.877 87.4336 307.83C90.0298 312.269 93.0081 316.472 96.3344 320.39L96.4615 320.518C95.0628 319.657 91.0893 317.33 90.7555 317.234C86.1621 315.258 76.1329 314.142 72.4455 318.366C71.8554 319.087 71.423 319.925 71.1763 320.825C70.9296 321.725 70.8741 322.667 71.0135 323.589C71.1528 324.512 71.4839 325.395 71.9852 326.181C72.4865 326.967 73.1469 327.639 73.9236 328.153C77.1025 330.432 81.9979 329.986 85.5423 328.854C89.5635 327.579 96.3344 321.442 96.8748 320.884C100.338 324.777 104.055 328.435 108.001 331.835C110.305 333.827 112.689 335.772 115.105 337.669L112.61 336.266C108.017 334.289 97.9873 333.174 94.2999 337.413C93.7093 338.133 93.2761 338.968 93.0283 339.866C92.7806 340.764 92.7238 341.704 92.8617 342.625C92.9995 343.547 93.329 344.429 93.8287 345.214C94.3284 345.999 94.9871 346.671 95.7622 347.184C98.941 349.48 103.836 349.017 107.397 347.886C110.957 346.754 116.933 341.637 118.427 340.251L121.225 342.434C125.723 345.877 130.221 349.304 134.528 352.795C136.038 354.022 137.484 355.297 138.946 356.557C137.85 355.935 136.928 355.409 136.769 355.345C132.191 353.369 122.146 352.253 118.475 356.477C117.884 357.197 117.451 358.034 117.203 358.933C116.955 359.833 116.898 360.774 117.036 361.696C117.174 362.619 117.503 363.502 118.003 364.289C118.503 365.076 119.162 365.748 119.937 366.264C123.116 368.543 128.011 368.097 131.572 366.965C135.132 365.833 140.488 361.195 142.316 359.569C143.778 360.908 145.225 362.247 146.576 363.618C147.482 364.558 148.403 365.419 149.262 366.423L151.821 369.324C153.41 371.237 155 373.197 156.478 375.094C157.511 376.401 158.48 377.676 159.45 378.951C157.956 377.708 154.968 375.333 154.682 375.174C150.438 372.512 140.695 369.882 136.419 373.58C135.726 374.202 135.172 374.963 134.792 375.815C134.413 376.666 134.217 377.588 134.217 378.521C134.217 379.454 134.413 380.376 134.792 381.227C135.172 382.079 135.726 382.84 136.419 383.462C139.264 386.22 144.128 386.507 147.815 385.933C151.868 385.295 159.227 380.481 160.133 379.876C161.723 381.996 163.312 384.068 164.695 386.06C169.654 392.914 173.516 398.812 176.155 402.972L176.425 403.402L179.842 401.729L179.302 400.916C176.536 396.771 172.515 390.89 167.365 384.084C165.776 381.916 163.98 379.653 162.136 377.341C164.028 375.244 165.801 373.041 167.445 370.743C171.37 372.337 179.572 372.337 180.621 372.337C180.796 374.998 180.939 377.581 181.034 380.019C181.384 388.467 181.368 395.528 181.273 400.469V401.043L185.024 399.21C185.024 394.301 184.849 387.686 184.34 379.844C184.181 377.15 183.959 374.265 183.688 371.316C184.737 371.061 193.225 368.862 196.404 366.296C199.312 363.952 202.38 360.159 202.285 356.206C202.292 355.272 202.102 354.348 201.729 353.493C201.356 352.637 200.808 351.87 200.119 351.242C199.431 350.613 198.619 350.137 197.735 349.845C196.851 349.552 195.915 349.449 194.989 349.543C189.442 350.261 184.785 359.234 183.863 364.176C183.863 364.462 183.577 367.682 183.45 369.707C183.339 368.511 183.243 367.332 183.116 366.088C182.862 363.65 182.544 361.195 182.21 358.581L181.59 354.74C181.416 353.464 181.066 352.141 180.796 350.818C180.128 347.758 179.302 344.714 178.396 341.637C180.525 341.43 188.123 340.522 191.381 338.657C194.639 336.792 198.216 333.508 198.708 329.571C198.857 328.651 198.81 327.709 198.571 326.807C198.332 325.906 197.907 325.065 197.322 324.34C196.737 323.615 196.006 323.022 195.176 322.6C194.347 322.177 193.439 321.935 192.51 321.889C186.915 321.745 180.955 329.858 179.318 334.64C179.206 334.927 178.412 338.465 177.998 340.41C177.442 338.577 176.902 336.744 176.282 334.895C174.47 329.587 172.483 324.279 170.512 318.956L168.748 314.078C169.511 313.999 178.571 313.138 182.21 311.034C185.389 309.169 189.045 305.886 189.537 301.964C189.686 301.043 189.639 300.1 189.401 299.198C189.162 298.296 188.736 297.454 188.151 296.728C187.566 296.002 186.836 295.407 186.007 294.983C185.177 294.559 184.268 294.314 183.339 294.266C177.744 294.138 171.784 302.235 170.147 307.017C170.019 307.384 168.875 312.453 168.637 313.76C167.349 310.173 166.094 306.587 165.013 303C163.504 298.17 162.315 293.244 161.453 288.257C161.802 288.257 171.259 287.364 174.994 285.212C178.173 283.347 181.829 280.064 182.322 276.127C182.468 275.206 182.419 274.266 182.179 273.365C181.939 272.465 181.513 271.625 180.929 270.901C180.344 270.176 179.614 269.583 178.786 269.16C177.958 268.737 177.051 268.493 176.123 268.444C170.528 268.301 164.568 276.414 162.931 281.196C162.819 281.514 161.945 285.372 161.564 287.221H161.246C160.517 282.176 160.235 277.077 160.404 271.983C160.404 269.177 160.674 266.499 160.928 263.901C162.708 263.901 170.83 263.901 174.39 262.307C177.951 260.713 181.765 257.956 182.687 254.099C182.936 253.2 182.993 252.258 182.854 251.335C182.715 250.412 182.383 249.53 181.881 248.744C181.378 247.959 180.716 247.289 179.937 246.778C179.159 246.267 178.281 245.926 177.363 245.778C171.816 245.013 164.997 252.489 162.851 256.936C162.724 257.191 161.818 259.821 161.166 261.718C161.31 260.538 161.437 259.327 161.58 258.211C162.152 254.003 162.931 250.241 163.646 246.814C164.075 244.902 164.488 243.18 164.902 241.57C166.65 240.678 173.675 236.996 176.027 233.999C178.38 231.003 180.557 226.731 179.604 222.842C179.083 221.252 177.984 219.918 176.525 219.105C175.067 218.293 173.357 218.062 171.736 218.458Z" fill="white"/>
<path d="M70.5541 304.977C74.925 304.802 83.6667 300.307 83.6826 300.307C83.6985 300.307 78.9144 295.429 78.6283 295.158C74.7184 291.971 65.3408 288.305 60.6839 291.397C59.9218 291.933 59.2812 292.624 58.8038 293.425C58.3264 294.226 58.023 295.119 57.9135 296.046C57.804 296.973 57.8908 297.912 58.1682 298.803C58.4457 299.694 58.9075 300.516 59.5236 301.215C62.0348 304.292 66.819 305.184 70.5541 304.977Z" fill="white"/>
</g>
<path d="M123.974 425.351C123.974 425.351 150.517 361.195 165.378 363.984C180.239 366.774 139.948 466.267 139.948 466.267C139.948 466.267 186.645 377.931 218.497 377.931C250.348 377.931 206.814 475.56 166.491 508.108C166.491 508.108 230.163 439.298 267.307 454.185C304.452 469.072 193.018 538.791 193.018 538.791C193.018 538.791 257.755 518.341 250.332 534.153C242.91 549.964 222.74 552.738 222.74 552.738L295.964 556.468H41.1976L98.5118 550.889C98.5118 550.889 39.0678 521.13 54.9937 509.048C70.9196 496.966 105.934 522.995 105.934 522.995C105.934 522.995 45.4414 456.05 57.1076 430.93C68.7739 405.809 120.795 476.5 120.795 476.5C120.795 476.5 78.3422 386.299 86.8296 370.535C95.3171 354.772 123.974 425.351 123.974 425.351Z" fill="url(#paint7_linear_3_1448)"/>
<path opacity="0.5" d="M123.974 425.351C123.974 425.351 150.517 361.195 165.378 363.984C180.239 366.774 139.948 466.267 139.948 466.267C139.948 466.267 186.645 377.931 218.497 377.931C250.348 377.931 206.814 475.56 166.491 508.108C166.491 508.108 230.163 439.298 267.307 454.185C304.452 469.072 193.018 538.791 193.018 538.791C193.018 538.791 257.755 518.341 250.332 534.153C242.91 549.964 222.74 552.738 222.74 552.738L295.964 556.468H41.1976L98.5118 550.889C98.5118 550.889 39.0678 521.13 54.9937 509.048C70.9196 496.966 105.934 522.995 105.934 522.995C105.934 522.995 45.4414 456.05 57.1076 430.93C68.7739 405.809 120.795 476.5 120.795 476.5C120.795 476.5 78.3422 386.299 86.8296 370.535C95.3171 354.772 123.974 425.351 123.974 425.351Z" fill="white"/>
<path d="M115.487 428.73C138.835 497.922 138.835 546.888 138.835 546.888C138.835 546.888 111.243 547.94 82.5858 526.661" stroke="#263238" stroke-width="0.815393" stroke-linecap="round" stroke-linejoin="round"/>
<path d="M127.169 465.996C131.969 445.309 138.345 425.023 146.242 405.315" stroke="#263238" stroke-width="0.815393" stroke-linecap="round" stroke-linejoin="round"/>
<path d="M196.149 425.542L136.721 513.894C136.721 513.894 96.3819 479.831 82.5858 460.672" stroke="#263238" stroke-width="0.815393" stroke-linecap="round" stroke-linejoin="round"/>
<path d="M137.786 535.173C137.786 535.173 200.393 505.366 225.871 488.343" stroke="#263238" stroke-width="0.815393" stroke-linecap="round" stroke-linejoin="round"/>
<path d="M466.381 425.351C466.381 425.351 439.854 361.195 425.056 363.984C410.259 366.774 450.487 466.267 450.487 466.267C450.487 466.267 403.79 377.931 371.954 377.931C340.118 377.931 383.62 475.56 423.96 508.108C423.96 508.108 360.272 439.298 323.127 454.185C285.983 469.072 397.432 538.791 397.432 538.791C397.432 538.791 332.68 518.341 340.118 534.153C347.557 549.964 367.71 552.738 367.71 552.738L294.423 556.468H549.174L491.859 550.889C491.859 550.889 551.288 521.13 535.378 509.048C519.467 496.966 484.421 522.995 484.421 522.995C484.421 522.995 544.93 456.05 533.248 430.93C521.566 405.809 469.56 476.5 469.56 476.5C469.56 476.5 512.029 386.299 503.526 370.488C495.022 354.676 466.381 425.351 466.381 425.351Z" fill="url(#paint8_linear_3_1448)"/>
<path opacity="0.5" d="M466.381 425.351C466.381 425.351 439.854 361.195 425.056 363.984C410.259 366.774 450.487 466.267 450.487 466.267C450.487 466.267 403.79 377.931 371.954 377.931C340.118 377.931 383.62 475.56 423.96 508.108C423.96 508.108 360.272 439.298 323.127 454.185C285.983 469.072 397.432 538.791 397.432 538.791C397.432 538.791 332.68 518.341 340.118 534.153C347.557 549.964 367.71 552.738 367.71 552.738L294.423 556.468H549.174L491.859 550.889C491.859 550.889 551.288 521.13 535.378 509.048C519.467 496.966 484.421 522.995 484.421 522.995C484.421 522.995 544.93 456.05 533.248 430.93C521.566 405.809 469.56 476.5 469.56 476.5C469.56 476.5 512.029 386.299 503.526 370.488C495.022 354.676 466.381 425.351 466.381 425.351Z" fill="white"/>
<path d="M474.869 428.73C451.52 497.922 451.52 546.888 451.52 546.888C451.52 546.888 479.113 547.94 507.77 526.661" stroke="#263238" stroke-width="0.815393" stroke-linecap="round" stroke-linejoin="round"/>
<path d="M463.202 465.996C458.403 445.309 452.026 425.023 444.13 405.315" stroke="#263238" stroke-width="0.815393" stroke-linecap="round" stroke-linejoin="round"/>
<path d="M394.206 425.542L453.65 513.894C453.65 513.894 493.973 479.831 507.769 460.672" stroke="#263238" stroke-width="0.815393" stroke-linecap="round" stroke-linejoin="round"/>
<path d="M452.585 535.173C452.585 535.173 389.962 505.366 364.484 488.343" stroke="#263238" stroke-width="0.815393" stroke-linecap="round" stroke-linejoin="round"/>
<path d="M423.53 79.6429H178.125C172.2 79.6429 167.397 84.4599 167.397 90.402V551.192C167.397 557.134 172.2 561.951 178.125 561.951H423.53C429.456 561.951 434.259 557.134 434.259 551.192V90.402C434.259 84.4599 429.456 79.6429 423.53 79.6429Z" fill="#263238" stroke="#263238" stroke-width="0.815393" stroke-miterlimit="10"/>
<path d="M319.281 108.461H286.062C285.614 108.461 285.169 108.373 284.755 108.2C284.34 108.028 283.963 107.776 283.646 107.458C283.329 107.139 283.077 106.762 282.905 106.346C282.734 105.93 282.645 105.484 282.645 105.034C282.645 104.585 282.734 104.14 282.906 103.725C283.077 103.31 283.329 102.934 283.647 102.617C283.965 102.3 284.341 102.049 284.756 101.878C285.17 101.708 285.614 101.621 286.062 101.623H319.281C320.183 101.623 321.048 101.983 321.686 102.622C322.324 103.262 322.682 104.13 322.682 105.034C322.685 105.484 322.598 105.929 322.428 106.345C322.258 106.76 322.008 107.138 321.692 107.457C321.376 107.775 321 108.028 320.586 108.2C320.173 108.373 319.729 108.461 319.281 108.461Z" fill="url(#paint9_linear_3_1448)"/>
<path d="M417.396 518.851H184.261V108.86H239.524L245.739 114.024C247.905 115.84 250.64 116.833 253.464 116.829H350.958C353.884 116.813 356.707 115.738 358.905 113.801L364.516 108.86H417.348L417.396 518.851Z" fill="white" stroke="#263238" stroke-width="0.765342" stroke-linecap="round" stroke-linejoin="round"/>
<path d="M277.368 139.081L274.189 128.369H194.846V139.081V497.078V507.805H407.525V139.081H277.368Z" fill="url(#paint10_linear_3_1448)"/>
<path d="M400.039 158.383H202.316V496.01H400.039V158.383Z" fill="white"/>
<path d="M308.282 531.523C308.286 530.469 307.977 529.438 307.395 528.561C306.814 527.683 305.986 526.998 305.016 526.593C304.047 526.187 302.979 526.08 301.948 526.283C300.917 526.487 299.97 526.993 299.226 527.737C298.482 528.48 297.974 529.429 297.768 530.462C297.562 531.495 297.666 532.567 298.068 533.54C298.469 534.514 299.149 535.346 300.023 535.932C300.896 536.518 301.923 536.83 302.974 536.83C304.378 536.826 305.723 536.266 306.717 535.272C307.712 534.278 308.274 532.93 308.282 531.523Z" fill="url(#paint11_linear_3_1448)"/>
<path d="M286.332 481.266C322.287 481.266 351.434 439.676 351.434 388.372C351.434 337.067 322.287 295.477 286.332 295.477C250.377 295.477 221.23 337.067 221.23 388.372C221.23 439.676 250.377 481.266 286.332 481.266Z" fill="url(#paint12_linear_3_1448)"/>
<path opacity="0.5" d="M286.332 481.266C322.287 481.266 351.434 439.676 351.434 388.372C351.434 337.067 322.287 295.477 286.332 295.477C250.377 295.477 221.23 337.067 221.23 388.372C221.23 439.676 250.377 481.266 286.332 481.266Z" fill="white"/>
<path d="M295.567 284.686C295.567 284.686 291.498 277.864 287.762 277.53C284.027 277.195 239.556 305.184 232.753 319.753C225.95 334.321 219.513 363.554 237.521 391.687C255.084 419.055 282.613 418.146 296.886 416.775C311.159 415.405 320.727 410.75 335.191 399.115C349.654 387.479 362.926 370.344 364.849 358.709C366.772 347.073 359.699 340.601 355.185 338.992C350.671 337.382 324.557 337.701 305.532 318.27C286.507 298.84 295.567 284.686 295.567 284.686Z" fill="#263238" stroke="#263238" stroke-width="0.815393" stroke-linecap="round" stroke-linejoin="round"/>
<path d="M301.336 275.824C301.336 275.824 289.797 280.255 282.661 288.081C275.524 295.908 271.121 308.181 270.788 326.224C270.454 344.268 276.223 364.686 298.618 373.548C321.013 382.41 341.056 375.588 347.509 369.452C353.962 363.315 361.813 345.973 361.813 345.973C361.813 345.973 326.179 355.537 309.204 335.405C292.229 315.274 301.336 275.824 301.336 275.824Z" fill="white" stroke="#263238" stroke-width="0.815393" stroke-linecap="round" stroke-linejoin="round"/>
<path d="M500.776 288.4C492.066 275.298 471.276 271.425 454.842 266.085C438.407 260.745 428.728 250.146 433.083 223.91C437.438 197.674 460.103 155.052 459.673 147.289C459.244 139.527 381.347 140.021 374.084 142.508C366.82 144.994 365.39 144.436 358.619 153.171C354.866 157.888 351.471 162.88 348.462 168.106L356.854 150.413H357.474C358.386 148.088 359.681 145.933 361.305 144.038C368.69 135.446 372.875 124.551 373.146 113.211C373.464 96.5226 361.623 98.1325 359.382 103.265C357.141 108.397 344.028 126.058 340.182 130.872C336.335 135.686 328.34 148.851 328.34 148.851L319.456 179.742C319.456 179.742 317.516 188.955 306.391 223.878C295.265 258.801 300.112 274.9 300.112 274.9C300.112 274.9 297.204 273.449 290.433 294.298C283.662 315.146 286.571 341.813 298.65 354.421C310.73 367.029 326.703 366.551 344.6 359.282C355.609 354.552 364.778 346.348 370.714 335.915C370.714 335.915 389.58 331.133 403.599 320.406C417.618 309.679 428.251 298.585 448.595 299.558C468.94 300.53 492.113 312.166 499.854 311.672C507.594 311.177 509.486 301.486 500.776 288.4Z" fill="white"/>
<mask id="mask0_3_1448" style="mask-type:luminance" maskUnits="userSpaceOnUse" x="286" y="99" width="221" height="266">
<path d="M500.776 288.4C492.066 275.298 471.276 271.425 454.842 266.085C438.407 260.745 428.728 250.146 433.083 223.91C437.438 197.674 460.103 155.052 459.673 147.289C459.244 139.527 381.347 140.021 374.084 142.508C366.82 144.994 365.39 144.436 358.619 153.171C354.866 157.888 351.471 162.88 348.462 168.106L356.854 150.413H357.474C358.386 148.088 359.681 145.933 361.305 144.038C368.69 135.446 372.875 124.551 373.146 113.211C373.464 96.5226 361.623 98.1325 359.382 103.265C357.141 108.397 344.028 126.058 340.182 130.872C336.335 135.686 328.34 148.851 328.34 148.851L319.456 179.742C319.456 179.742 317.516 188.955 306.391 223.878C295.265 258.801 300.112 274.9 300.112 274.9C300.112 274.9 297.204 273.449 290.433 294.298C283.662 315.146 286.571 341.813 298.65 354.421C310.73 367.029 326.703 366.551 344.6 359.282C355.609 354.552 364.778 346.348 370.714 335.915C370.714 335.915 389.58 331.133 403.599 320.406C417.618 309.679 428.251 298.585 448.595 299.558C468.94 300.53 492.113 312.166 499.854 311.672C507.594 311.177 509.486 301.486 500.776 288.4Z" fill="white"/>
</mask>
<g mask="url(#mask0_3_1448)">
<path d="M376.054 243.021C322.253 251.07 305.341 263.949 310.714 281.674C311.828 285.189 313.639 288.441 316.038 291.237C316.038 291.572 316.038 291.939 316.133 292.321C316.133 292.321 317.087 292.895 318.518 293.915C320.401 295.74 322.438 297.398 324.605 298.872C328.133 302.236 331.296 306.444 330.645 310.349C329.262 318.669 309.982 333.206 300.239 333.907C290.496 334.608 287.111 324.901 285.728 335.294C284.345 345.686 305.77 371.317 326.496 368.543C347.222 365.77 364.499 336.664 364.499 336.664C364.499 336.664 361.734 331.883 375.625 317.266C384.748 307.703 397.797 303.479 407.795 299.558C417.233 296.774 426.434 293.235 435.307 288.974C459.896 276.892 489.109 284.957 489.109 284.957C489.109 284.957 429.856 234.876 376.054 243.021Z" fill="url(#paint13_linear_3_1448)"/>
<path opacity="0.5" d="M376.054 243.021C322.253 251.07 305.341 263.949 310.714 281.674C311.828 285.189 313.639 288.441 316.038 291.237C316.038 291.572 316.038 291.939 316.133 292.321C316.133 292.321 317.087 292.895 318.518 293.915C320.401 295.74 322.438 297.398 324.605 298.872C328.133 302.236 331.296 306.444 330.645 310.349C329.262 318.669 309.982 333.206 300.239 333.907C290.496 334.608 287.111 324.901 285.728 335.294C284.345 345.686 305.77 371.317 326.496 368.543C347.222 365.77 364.499 336.664 364.499 336.664C364.499 336.664 361.734 331.883 375.625 317.266C384.748 307.703 397.797 303.479 407.795 299.558C417.233 296.774 426.434 293.235 435.307 288.974C459.896 276.892 489.109 284.957 489.109 284.957C489.109 284.957 429.856 234.876 376.054 243.021Z" fill="white"/>
</g>
<path d="M500.776 288.4C492.066 275.298 471.276 271.425 454.842 266.085C438.407 260.745 428.728 250.146 433.083 223.91C437.438 197.674 460.103 155.052 459.673 147.289C459.244 139.527 381.347 140.021 374.084 142.508C366.82 144.994 365.39 144.436 358.619 153.171C354.866 157.888 351.471 162.88 348.462 168.106L356.854 150.413H357.474C358.386 148.088 359.681 145.933 361.305 144.038C368.69 135.446 372.875 124.551 373.146 113.211C373.464 96.5226 361.623 98.1325 359.382 103.265C357.141 108.397 344.028 126.058 340.182 130.872C336.335 135.686 328.34 148.851 328.34 148.851L319.456 179.742C319.456 179.742 317.516 188.955 306.391 223.878C295.265 258.801 300.112 274.9 300.112 274.9C300.112 274.9 297.204 273.449 290.433 294.298C283.662 315.146 286.571 341.813 298.65 354.421C310.73 367.029 326.703 366.551 344.6 359.282C355.609 354.552 364.778 346.348 370.714 335.915C370.714 335.915 389.58 331.133 403.599 320.406C417.618 309.679 428.251 298.585 448.595 299.558C468.94 300.53 492.113 312.166 499.854 311.672C507.594 311.177 509.486 301.486 500.776 288.4Z" stroke="#263238" stroke-width="0.815393" stroke-linecap="round" stroke-linejoin="round"/>
<path d="M501.046 311.56C501.046 311.56 502.063 307.48 490.524 301.996C478.985 296.513 474.233 300.291 474.233 303.017C474.233 305.742 499.266 311.56 501.046 311.56Z" fill="white" stroke="#263238" stroke-width="0.815393" stroke-linecap="round" stroke-linejoin="round"/>
<path d="M391.711 124.799L362.593 147.273H401.644C401.644 147.273 401.644 119.667 391.711 124.799Z" fill="white" stroke="#263238" stroke-width="0.815393" stroke-linecap="round" stroke-linejoin="round"/>
<path d="M355.186 286.902C359.322 282.215 364.477 278.544 370.253 276.175" stroke="#263238" stroke-width="0.815393" stroke-linecap="round" stroke-linejoin="round"/>
<path d="M349.893 295.621C350.339 294.325 350.92 293.081 351.625 291.907" stroke="#263238" stroke-width="0.815393" stroke-linecap="round" stroke-linejoin="round"/>
<path d="M338.291 325.905C336.733 324.531 335.278 323.045 333.936 321.458" stroke="#263238" stroke-width="0.815393" stroke-linecap="round" stroke-linejoin="round"/>
<path d="M370.714 335.915C361.734 336.94 352.661 335.075 344.806 330.591" stroke="#263238" stroke-width="0.815393" stroke-linecap="round" stroke-linejoin="round"/>
<path d="M479.589 145.345H332.854C312.589 145.345 296.171 161.077 296.171 180.411V249.747C296.171 266.611 308.584 280.701 325.145 284.096L317.405 307.065L353.23 284.941H479.589C499.838 284.941 516.272 269.209 516.272 249.875V180.539C516.272 161.077 499.838 145.345 479.589 145.345Z" fill="url(#paint14_linear_3_1448)" stroke="#263238" stroke-width="1.63079" stroke-miterlimit="10"/>
<path d="M320.06 192.031H485.009" stroke="#263238" stroke-width="1.68304" stroke-miterlimit="10" stroke-linecap="round"/>
<path d="M320.06 209.07H485.009" stroke="#263238" stroke-width="1.68304" stroke-miterlimit="10" stroke-linecap="round"/>
<path d="M320.06 226.093H485.009" stroke="#263238" stroke-width="1.68304" stroke-miterlimit="10" stroke-linecap="round"/>
<path d="M320.06 243.117H485.009" stroke="#263238" stroke-width="1.68304" stroke-miterlimit="10" stroke-linecap="round"/>
<path d="M514.937 206.121C526.235 206.121 535.393 197.351 535.393 186.532C535.393 175.713 526.235 166.943 514.937 166.943C503.64 166.943 494.482 175.713 494.482 186.532C494.482 197.351 503.64 206.121 514.937 206.121Z" fill="#263238"/>
<path d="M513.348 200.367C512.676 199.021 512.374 197.519 512.474 196.016V180.077L508.881 182.085C508.495 182.309 508.057 182.43 507.61 182.436C507.275 182.439 506.943 182.371 506.636 182.237C506.329 182.102 506.055 181.904 505.83 181.655C505.362 181.167 505.105 180.514 505.115 179.838C505.104 179.378 505.237 178.926 505.496 178.546C505.867 178.101 506.307 177.719 506.799 177.415L513.761 173.844C514.538 173.285 515.448 172.939 516.399 172.84C518.768 172.84 519.944 174.625 519.944 178.196V196.574C519.944 200.064 518.704 201.802 516.209 201.802C515.646 201.852 515.081 201.744 514.576 201.491C514.071 201.237 513.646 200.849 513.348 200.367Z" fill="white"/>
<path d="M436.453 135.08C436.453 135.08 437.104 147.911 448.627 154.016C460.151 160.12 474.869 158.798 475.187 151.131C475.504 143.464 466.54 135.399 460.469 125.118C454.397 114.837 440.935 120.639 435.181 127.7" fill="white"/>
<path d="M436.453 135.08C436.453 135.08 437.104 147.911 448.627 154.016C460.151 160.12 474.869 158.798 475.187 151.131C475.504 143.464 466.54 135.399 460.469 125.118C454.397 114.837 440.935 120.639 435.181 127.7" stroke="#263238" stroke-width="0.815393" stroke-linecap="round" stroke-linejoin="round"/>
<path d="M456.304 145.345C455.334 150.477 458.863 153.315 462.058 154.908C465.252 156.502 471.594 155.562 475.186 151.067C475.345 147.305 473.295 143.48 470.418 139.352C466.413 139.862 457.051 141.328 456.304 145.345Z" fill="white" stroke="#263238" stroke-width="0.815393" stroke-linecap="round" stroke-linejoin="round"/>
<path d="M412.453 135.08C412.453 135.08 413.088 147.911 424.612 154.016C436.135 160.12 450.869 158.798 451.187 151.131C451.504 143.464 442.54 135.399 436.453 125.118C430.365 114.837 416.935 120.639 411.165 127.7" fill="white"/>
<path d="M412.453 135.08C412.453 135.08 413.088 147.911 424.612 154.016C436.135 160.12 450.869 158.798 451.187 151.131C451.504 143.464 442.54 135.399 436.453 125.118C430.365 114.837 416.935 120.639 411.165 127.7" stroke="#263238" stroke-width="0.815393" stroke-linecap="round" stroke-linejoin="round"/>
<path d="M432.304 145.345C431.334 150.477 434.863 153.315 438.058 154.908C441.252 156.502 447.594 155.562 451.186 151.067C451.329 147.305 449.279 143.48 446.418 139.352C442.413 139.862 433.051 141.328 432.304 145.345Z" fill="white" stroke="#263238" stroke-width="0.815393" stroke-linecap="round" stroke-linejoin="round"/>
<path d="M390.122 135.08C390.122 135.08 390.757 147.911 402.281 154.016C413.804 160.12 428.522 158.798 428.84 151.131C429.157 143.464 420.209 135.399 414.122 125.118C408.034 114.837 394.588 120.639 388.834 127.7" fill="white"/>
<path d="M390.122 135.08C390.122 135.08 390.757 147.911 402.281 154.016C413.804 160.12 428.522 158.798 428.84 151.131C429.157 143.464 420.209 135.399 414.122 125.118C408.034 114.837 394.588 120.639 388.834 127.7" stroke="#263238" stroke-width="0.815393" stroke-linecap="round" stroke-linejoin="round"/>
<path d="M409.957 145.345C409.003 150.477 412.516 153.315 415.726 154.908C418.937 156.502 425.263 155.562 428.839 151.067C428.998 147.305 426.947 143.48 424.071 139.352C420.065 139.862 410.704 141.328 409.957 145.345Z" fill="white" stroke="#263238" stroke-width="0.815393" stroke-linecap="round" stroke-linejoin="round"/>
<path d="M300.113 274.899C300.113 274.899 301.003 294.632 311.859 307.91" stroke="#263238" stroke-width="0.815393" stroke-linecap="round" stroke-linejoin="round"/>
<path d="M268.515 357.258C268.515 361.275 265.845 364.526 262.555 364.526C259.265 364.526 256.595 361.339 256.595 357.258C256.595 353.178 259.265 349.99 262.555 349.99C265.845 349.99 268.515 353.241 268.515 357.258Z" fill="white"/>
<path d="M253.686 366.311C253.686 370.328 251.016 373.58 247.726 373.58C244.435 373.58 241.765 370.392 241.765 366.311C241.765 362.231 244.435 359.027 247.726 359.027C251.016 359.027 253.686 362.295 253.686 366.311Z" stroke="#263238" stroke-width="0.815393" stroke-linecap="round" stroke-linejoin="round"/>
<defs>
<linearGradient id="paint0_linear_3_1448" x1="301.71" y1="551.957" x2="301.71" y2="570" gradientUnits="userSpaceOnUse">
<stop stop-color="#1786FF"/>
<stop offset="1" stop-color="#0152FF"/>
</linearGradient>
<linearGradient id="paint1_linear_3_1448" x1="547.536" y1="364.772" x2="547.536" y2="387.289" gradientUnits="userSpaceOnUse">
<stop stop-color="#1786FF"/>
<stop offset="1" stop-color="#0152FF"/>
</linearGradient>
<linearGradient id="paint2_linear_3_1448" x1="516.871" y1="317.982" x2="516.871" y2="472.77" gradientUnits="userSpaceOnUse">
<stop stop-color="#1786FF"/>
<stop offset="1" stop-color="#0152FF"/>
</linearGradient>
<linearGradient id="paint3_linear_3_1448" x1="475.083" y1="329.894" x2="475.083" y2="350.978" gradientUnits="userSpaceOnUse">
<stop stop-color="#1786FF"/>
<stop offset="1" stop-color="#0152FF"/>
</linearGradient>
<linearGradient id="paint4_linear_3_1448" x1="150.56" y1="243.276" x2="150.56" y2="263.423" gradientUnits="userSpaceOnUse">
<stop stop-color="#1786FF"/>
<stop offset="1" stop-color="#0152FF"/>
</linearGradient>
<linearGradient id="paint5_linear_3_1448" x1="134.285" y1="218.269" x2="134.285" y2="403.402" gradientUnits="userSpaceOnUse">
<stop stop-color="#1786FF"/>
<stop offset="1" stop-color="#0152FF"/>
</linearGradient>
<linearGradient id="paint6_linear_3_1448" x1="70.7751" y1="290.228" x2="70.7751" y2="305.005" gradientUnits="userSpaceOnUse">
<stop stop-color="#1786FF"/>
<stop offset="1" stop-color="#0152FF"/>
</linearGradient>
<linearGradient id="paint7_linear_3_1448" x1="168.581" y1="363.896" x2="168.581" y2="556.468" gradientUnits="userSpaceOnUse">
<stop stop-color="#1786FF"/>
<stop offset="1" stop-color="#0152FF"/>
</linearGradient>
<linearGradient id="paint8_linear_3_1448" x1="421.798" y1="363.896" x2="421.798" y2="556.468" gradientUnits="userSpaceOnUse">
<stop stop-color="#1786FF"/>
<stop offset="1" stop-color="#0152FF"/>
</linearGradient>
<linearGradient id="paint9_linear_3_1448" x1="302.664" y1="101.623" x2="302.664" y2="108.461" gradientUnits="userSpaceOnUse">
<stop stop-color="#1786FF"/>
<stop offset="1" stop-color="#0152FF"/>
</linearGradient>
<linearGradient id="paint10_linear_3_1448" x1="301.186" y1="128.369" x2="301.186" y2="507.805" gradientUnits="userSpaceOnUse">
<stop stop-color="#1786FF"/>
<stop offset="1" stop-color="#0152FF"/>
</linearGradient>
<linearGradient id="paint11_linear_3_1448" x1="302.974" y1="526.183" x2="302.974" y2="536.83" gradientUnits="userSpaceOnUse">
<stop stop-color="#1786FF"/>
<stop offset="1" stop-color="#0152FF"/>
</linearGradient>
<linearGradient id="paint12_linear_3_1448" x1="286.332" y1="295.477" x2="286.332" y2="481.266" gradientUnits="userSpaceOnUse">
<stop stop-color="#1786FF"/>
<stop offset="1" stop-color="#0152FF"/>
</linearGradient>
<linearGradient id="paint13_linear_3_1448" x1="387.387" y1="242.125" x2="387.387" y2="368.752" gradientUnits="userSpaceOnUse">
<stop stop-color="#1786FF"/>
<stop offset="1" stop-color="#0152FF"/>
</linearGradient>
<linearGradient id="paint14_linear_3_1448" x1="406.221" y1="145.345" x2="406.221" y2="307.065" gradientUnits="userSpaceOnUse">
<stop stop-color="#1786FF"/>
<stop offset="1" stop-color="#0152FF"/>
</linearGradient>
</defs>
</svg>
