<svg width="702" height="524" viewBox="0 0 702 524" fill="none" xmlns="http://www.w3.org/2000/svg">
<path d="M702 459.67H0V460.021H702V459.67Z" fill="#EBEBEB"/>
<path d="M332.759 397.051H61.661C59.5372 397.047 57.5017 396.201 56.0013 394.698C54.5009 393.195 53.6582 391.158 53.6582 389.034V7.94651C53.6767 5.83493 54.5276 3.81592 56.026 2.32802C57.5244 0.840113 59.5493 0.00349518 61.661 -0.00012207H332.759C334.886 -0.00012207 336.925 0.844507 338.428 2.34796C339.932 3.8514 340.776 5.89052 340.776 8.01671V389.034C340.776 391.16 339.932 393.199 338.428 394.703C336.925 396.206 334.886 397.051 332.759 397.051ZM61.661 0.280679C59.6303 0.284398 57.6841 1.09368 56.2495 2.53091C54.8149 3.96813 54.0092 5.91584 54.0092 7.94651V389.034C54.0092 391.065 54.8149 393.012 56.2495 394.45C57.6841 395.887 59.6303 396.696 61.661 396.7H332.759C334.791 396.696 336.739 395.887 338.176 394.451C339.613 393.014 340.422 391.066 340.425 389.034V7.94651C340.422 5.91455 339.613 3.96687 338.176 2.53005C336.739 1.09323 334.791 0.28439 332.759 0.280679H61.661Z" fill="#EBEBEB"/>
<path d="M636.442 397.051H365.329C363.204 397.047 361.167 396.201 359.665 394.699C358.162 393.196 357.316 391.159 357.312 389.034V7.94651C357.335 5.83365 358.189 3.81465 359.689 2.32714C361.19 0.839622 363.216 0.00345573 365.329 -0.00012207H636.442C638.551 0.00718504 640.572 0.845435 642.068 2.33294C643.563 3.82045 644.412 5.83736 644.431 7.94651V389.034C644.431 391.155 643.59 393.19 642.092 394.693C640.595 396.196 638.563 397.043 636.442 397.051ZM365.329 0.280679C363.297 0.28439 361.35 1.09323 359.913 2.53005C358.476 3.96687 357.667 5.91455 357.664 7.94651V389.034C357.667 391.066 358.476 393.014 359.913 394.451C361.35 395.887 363.297 396.696 365.329 396.7H636.442C638.474 396.696 640.422 395.887 641.858 394.451C643.295 393.014 644.104 391.066 644.108 389.034V7.94651C644.104 5.91455 643.295 3.96687 641.858 2.53005C640.422 1.09323 638.474 0.28439 636.442 0.280679H365.329Z" fill="#EBEBEB"/>
<path d="M631.662 482.259H595.158V482.61H631.662V482.259Z" fill="#EBEBEB"/>
<path d="M499.876 486.078H436.654V486.429H499.876V486.078Z" fill="#EBEBEB"/>
<path d="M593.748 469.23H508.398V469.581H593.748V469.23Z" fill="#EBEBEB"/>
<path d="M100.655 471.589H73.6562V471.94H100.655V471.589Z" fill="#EBEBEB"/>
<path d="M190.778 471.589H113.15V471.94H190.778V471.589Z" fill="#EBEBEB"/>
<path d="M342.777 477.514H238.221V477.865H342.777V477.514Z" fill="#EBEBEB"/>
<path d="M390.945 42.6815H108.811V245.222H390.945V42.6815Z" fill="#FAFAFA"/>
<path d="M184.445 245.222L232.827 42.6672H286.685L238.303 245.222H184.445Z" fill="white"/>
<path d="M289.643 245.222L338.024 42.6671H357.666L309.285 245.222H289.643Z" fill="white"/>
<path d="M165.861 245.222L214.257 42.6675H221.628L173.246 245.222H165.861Z" fill="white"/>
<path d="M404.346 35.7035H95.3534C95.1875 35.7035 95.0232 35.7362 94.8699 35.7997C94.7166 35.8632 94.5773 35.9563 94.46 36.0736C94.3426 36.1909 94.2495 36.3302 94.186 36.4835C94.1225 36.6368 94.0898 36.8012 94.0898 36.9671C94.0898 37.1324 94.1226 37.296 94.1863 37.4485C94.25 37.6011 94.3433 37.7395 94.4608 37.8557C94.5783 37.9719 94.7177 38.0636 94.8709 38.1256C95.0242 38.1876 95.1882 38.2185 95.3534 38.2167H404.346C404.679 38.2167 404.998 38.0855 405.234 37.8515C405.471 37.6176 405.606 37.2998 405.609 36.9671C405.606 36.6331 405.472 36.3138 405.235 36.0776C404.999 35.8414 404.68 35.7071 404.346 35.7035Z" fill="#E0E0E0"/>
<path d="M245.097 245.658H257.129V42.2461H245.097L245.097 245.658Z" fill="#F0F0F0"/>
<path d="M257.129 245.658H258.477V42.2461H257.129V245.658Z" fill="#E0E0E0"/>
<path d="M106.852 142.281V145.623L392.888 145.623V142.281L106.852 142.281Z" fill="#F0F0F0"/>
<path d="M392.888 243.818V40.7158H106.852V243.818V247.104H392.888V243.818ZM110.193 243.818V44.0714H389.589V243.818H110.193Z" fill="#F0F0F0"/>
<path d="M392.892 247.16H394.562V40.7159H392.892V247.16Z" fill="#E0E0E0"/>
<path opacity="0.5" d="M343.119 32.6427V369.041H413.642L400.711 32.6427H343.119Z" fill="#EBEBEB"/>
<path opacity="0.5" d="M294.174 32.6426V369.041H364.697L351.766 32.6426H294.174Z" fill="#EBEBEB"/>
<path opacity="0.5" d="M131.165 32.6431V369.041H87.7812L95.7419 32.6431H131.165Z" fill="#EBEBEB"/>
<path opacity="0.5" d="M161.276 32.6428V369.041H117.893L125.839 32.6428H161.276Z" fill="#EBEBEB"/>
<path d="M264.211 459.655H295.338V245.882H264.211V459.655Z" fill="#E6E6E6"/>
<path d="M275.168 459.669H264.203V419.037H286.653L275.168 459.669Z" fill="#F0F0F0"/>
<path d="M593.414 459.655H624.541V245.882H593.414V459.655Z" fill="#E6E6E6"/>
<path d="M264.203 448.577L602.988 448.577V245.896L264.203 245.896V448.577Z" fill="#F0F0F0"/>
<path d="M592.032 459.669H602.997V419.037H580.547L592.032 459.669Z" fill="#F0F0F0"/>
<path d="M491.305 262.674V430.34H591.733V262.674H491.305Z" fill="#E6E6E6"/>
<path d="M531.59 268.571H551.457C559.856 268.651 567.983 265.592 574.244 259.992H508.775C515.043 265.599 523.181 268.658 531.59 268.571Z" fill="#F0F0F0"/>
<path d="M383.385 262.674V430.34H483.813V262.674H383.385Z" fill="#E6E6E6"/>
<path d="M422.599 268.571H442.466C450.875 268.658 459.013 265.599 465.281 259.992H399.826C406.084 265.589 414.205 268.648 422.599 268.571Z" fill="#F0F0F0"/>
<path d="M275.475 262.674V430.34H375.903V262.674H275.475Z" fill="#E6E6E6"/>
<path d="M314.729 268.571H334.596C343.005 268.658 351.143 265.599 357.411 259.992H291.914C298.182 265.599 306.32 268.658 314.729 268.571Z" fill="#F0F0F0"/>
<path d="M612.143 207.104H508.963C508.963 207.104 509.904 233.695 539.486 242.47V245.896H581.606V242.47C611.23 233.695 612.143 207.104 612.143 207.104Z" fill="#E6E6E6"/>
<path d="M584.187 38.5256H449.221V183.053H584.187V38.5256Z" fill="#F0F0F0"/>
<path d="M584.209 183.039H588.674V38.5114H584.209V183.039Z" fill="#E0E0E0"/>
<path d="M561.373 50.9088H472.051V170.642H561.373V50.9088Z" fill="white"/>
<path d="M350.983 523.074C501.327 523.074 623.205 515.959 623.205 507.181C623.205 498.403 501.327 491.288 350.983 491.288C200.639 491.288 78.7617 498.403 78.7617 507.181C78.7617 515.959 200.639 523.074 350.983 523.074Z" fill="#F5F5F5"/>
<path d="M516.457 501.691L505.028 501.508L504.256 474.987L515.684 475.169L516.457 501.691Z" fill="#FF8B7B"/>
<path d="M504.629 493.955L517.11 494.152C517.334 494.155 517.55 494.237 517.719 494.384C517.888 494.53 518.001 494.731 518.037 494.952L519.694 505.145C519.733 505.396 519.716 505.653 519.646 505.897C519.575 506.141 519.452 506.366 519.284 506.558C519.117 506.749 518.91 506.901 518.677 507.004C518.445 507.107 518.193 507.158 517.939 507.153C513.432 507.012 506.946 506.647 501.287 506.549C494.675 506.451 499.883 506.717 492.133 506.549C487.444 506.465 486.419 501.705 488.413 501.312C497.454 499.487 497.918 497.465 501.835 494.755C502.66 494.204 503.637 493.924 504.629 493.955Z" fill="url(#paint0_linear_50_903)"/>
<path d="M472.251 158.877C471.268 162.752 470.131 166.276 468.952 169.94C467.772 173.605 466.452 177.143 465.077 180.723C462.276 187.985 458.929 195.025 455.066 201.783C454.589 202.653 454.041 203.496 453.508 204.352L452.693 205.63L452.3 206.276C452.174 206.472 451.935 206.781 451.767 207.034C450.317 209.098 448.588 210.95 446.628 212.538C443.084 215.353 439.06 217.503 434.75 218.884C430.841 220.17 426.8 221.017 422.704 221.411C420.71 221.635 418.716 221.72 416.737 221.748C414.717 221.778 412.697 221.698 410.686 221.509L410.461 212.917C417.107 211.586 423.55 209.391 429.626 206.388C432.217 205.071 434.585 203.356 436.646 201.306C437.452 200.46 438.15 199.516 438.723 198.498L438.948 198.104L439.243 197.543L439.833 196.42C440.212 195.675 440.619 195.016 440.97 194.159C443.984 187.817 446.642 181.311 448.931 174.672C450.138 171.316 451.247 167.918 452.384 164.521C453.522 161.123 454.547 157.613 455.543 154.37L472.251 158.877Z" fill="#FF8B7B"/>
<path d="M413.157 212.987L400.184 211.583L400.801 224.612C400.801 224.612 410.629 226.999 414.729 219.501L413.157 212.987Z" fill="#FF8B7B"/>
<path d="M389.507 217.353L391.908 222.969C392.104 223.424 392.427 223.812 392.837 224.089C393.248 224.365 393.73 224.517 394.224 224.528L400.809 224.682L400.191 211.653L391.36 213.745C390.986 213.836 390.636 214.007 390.334 214.245C390.032 214.483 389.785 214.783 389.609 215.126C389.433 215.468 389.333 215.844 389.315 216.228C389.298 216.613 389.363 216.997 389.507 217.353Z" fill="#FF8B7B"/>
<path opacity="0.2" d="M504.256 474.987L504.649 488.662L516.078 488.844L515.684 475.169L504.256 474.987Z" fill="black"/>
<path d="M460.645 144.387C454.51 152.095 448.922 166.851 446.605 175.275C453.415 186.605 466.753 184.626 466.753 184.626C466.753 184.626 477.788 175.893 481.397 165.447C485.005 155.001 471.484 130.754 460.645 144.387Z" fill="url(#paint1_linear_50_903)"/>
<path d="M531.52 146.016C534.23 165.756 530.116 191.435 533.233 228.852L472.103 232.727C460.983 185.258 459.79 165.335 458.61 152.236C458.387 149.687 458.984 147.133 460.315 144.948C461.646 142.763 463.642 141.061 466.01 140.091C480.415 134.124 505.125 133.24 522.099 136.23C524.505 136.649 526.715 137.824 528.409 139.583C530.103 141.343 531.193 143.596 531.52 146.016Z" fill="url(#paint2_linear_50_903)"/>
<path d="M486.924 159.143C484.239 159.127 481.595 159.8 479.245 161.098C476.895 162.395 474.918 164.275 473.502 166.556H501.891C500.083 164.309 497.808 162.482 495.224 161.202C492.639 159.922 489.807 159.219 486.924 159.143Z" fill="white"/>
<path d="M502.74 167.623H472.863C472.154 168.956 471.612 170.37 471.248 171.835H505.211C504.541 170.347 503.712 168.935 502.74 167.623Z" fill="white"/>
<path d="M505.828 173.183H470.939C470.721 174.435 470.617 175.704 470.63 176.974H506.937C506.672 175.682 506.301 174.414 505.828 173.183Z" fill="white"/>
<path d="M484.727 197.824H497.195C498.645 197.224 499.994 196.404 501.196 195.395H480.164C481.574 196.398 483.107 197.215 484.727 197.824Z" fill="white"/>
<path d="M477.018 192.615H503.821C504.463 191.732 505.022 190.792 505.491 189.807H474.758C475.44 190.798 476.195 191.737 477.018 192.615Z" fill="white"/>
<path d="M473.27 187.392H506.46C506.783 186.38 507.018 185.341 507.162 184.289H471.922C472.296 185.354 472.747 186.391 473.27 187.392Z" fill="white"/>
<path d="M507.222 178.729H470.718C470.711 178.846 470.711 178.963 470.718 179.08C470.829 180.126 471.012 181.163 471.266 182.183H507.334C507.373 181.147 507.336 180.11 507.222 179.08C507.229 178.963 507.229 178.846 507.222 178.729Z" fill="white"/>
<path d="M502.164 106.901L485.653 121.474C488.026 127.666 488.981 134.335 479.574 137.283C479.06 137.442 478.624 137.787 478.352 138.252C476.134 142.099 475.671 148.08 486.032 147.153C493.775 146.49 501 142.99 506.32 137.325C506.703 136.967 506.932 136.474 506.958 135.95C506.984 135.426 506.806 134.912 506.46 134.517C500.844 128.48 501.224 114.707 502.164 106.901Z" fill="#FF8B7B"/>
<path opacity="0.2" d="M495.422 112.839L485.594 121.474C486.209 122.931 486.68 124.445 486.998 125.995C490.929 125.251 496.011 121.039 496.082 117.318C496.165 115.796 495.941 114.273 495.422 112.839Z" fill="black"/>
<path d="M471.227 86.5005C467.605 91.4987 469.992 103.082 472.631 104.907C479.371 101.748 478.135 83.6503 471.227 86.5005Z" fill="#263238"/>
<path d="M502.464 94.1523C502.464 105.483 502.941 112.109 497.55 118.287C489.449 127.567 475.17 123.313 471.829 112.222C468.824 102.239 469.428 85.3914 480.253 80.1685C482.612 78.9877 485.236 78.4352 487.871 78.5643C490.506 78.6933 493.064 79.4996 495.297 80.9053C497.529 82.311 499.362 84.2685 500.617 86.589C501.873 88.9094 502.509 91.5144 502.464 94.1523Z" fill="#FF8B7B"/>
<path d="M501.708 105.37C503.365 101.579 494.408 103.84 494.408 103.84C494.408 103.84 493.004 91.7093 496.851 86.9918C492.962 89.3084 482.656 89.2382 480.522 86.9918C476.184 89.1821 470.427 89.7998 466.749 87.2867C463.07 84.7735 463.253 78.7925 465.626 75.9424C468.644 78.7504 472.927 74.8753 471.017 72.9799C477.054 69.3576 487.289 71.3232 489.269 73.4011C488.803 72.6582 488.648 71.7619 488.837 70.9056C489.026 70.0494 489.545 69.3018 490.28 68.8241C490.28 68.8241 491.473 73.4152 495.096 73.2186C501.498 72.8676 508.995 75.0579 506.131 81.1091C510.708 81.5864 512.898 86.8093 511.536 90.9371C510.175 95.0648 514.274 95.809 514.738 94.5594C516.282 97.4657 515.046 99.1926 512.365 100.26C519.385 108.375 504.418 110.846 501.638 116.125C501.61 116.069 499.701 109.989 501.708 105.37Z" fill="#263238"/>
<path d="M508.445 104.85C507.231 107.446 505.048 109.462 502.365 110.466C498.799 111.772 496.749 108.669 497.521 105.173C498.209 102.014 500.905 97.5356 504.541 97.7462C508.178 97.9568 509.905 101.663 508.445 104.85Z" fill="#FF8B7B"/>
<path d="M516.395 354.285C512.717 296.721 519.863 229.624 519.863 229.624L472.127 232.656C474.935 254.348 483.359 324.113 486.827 358.216C490.519 394.425 500.46 482.596 500.46 482.596L519.835 482.891C519.835 482.891 521.618 399.662 516.395 354.285Z" fill="#263238"/>
<path opacity="0.2" d="M516.031 348.065C516.031 347.307 515.961 346.563 515.918 345.805C514.739 319.887 515.525 292.804 516.691 271.323L513.742 273.19C501.19 291.793 509.249 326.795 516.199 351.533C516.143 350.382 516.073 349.217 516.031 348.065Z" fill="black"/>
<path d="M498.625 478.623L500.169 486.514L520.289 486.879L521.075 479.423L498.625 478.623Z" fill="#263238"/>
<path d="M486.146 98.7856C486.146 99.6982 485.753 100.484 485.149 100.527C484.546 100.569 484.012 99.8526 483.956 98.926C483.9 97.9993 484.349 97.2271 484.953 97.185C485.556 97.1429 486.09 97.8589 486.146 98.7856Z" fill="#263238"/>
<path d="M473.423 99.7962C473.423 100.709 473.03 101.495 472.427 101.523C471.823 101.551 471.289 100.849 471.233 99.9366C471.177 99.024 471.626 98.2378 472.23 98.1957C472.834 98.1536 473.367 98.8696 473.423 99.7962Z" fill="#263238"/>
<path d="M478.384 99.361C477.438 102.249 476.101 104.993 474.41 107.518C475.069 107.924 475.809 108.182 476.577 108.274C477.345 108.366 478.125 108.29 478.861 108.052L478.384 99.361Z" fill="#FF5652"/>
<path d="M482.882 110.256C483.905 110.065 484.878 109.669 485.744 109.092C486.61 108.515 487.351 107.77 487.922 106.901C487.955 106.836 487.963 106.762 487.945 106.692C487.927 106.623 487.884 106.562 487.824 106.522C487.793 106.504 487.758 106.494 487.723 106.49C487.688 106.487 487.652 106.49 487.618 106.501C487.584 106.511 487.552 106.528 487.525 106.551C487.498 106.574 487.475 106.602 487.459 106.634C486.806 107.582 485.943 108.366 484.937 108.926C483.932 109.487 482.81 109.807 481.66 109.863C481.624 109.865 481.589 109.874 481.556 109.89C481.523 109.906 481.494 109.928 481.47 109.956C481.447 109.984 481.429 110.016 481.418 110.05C481.407 110.085 481.404 110.122 481.408 110.158C481.408 110.194 481.415 110.229 481.429 110.262C481.444 110.294 481.465 110.323 481.491 110.347C481.518 110.371 481.549 110.389 481.583 110.4C481.617 110.411 481.653 110.415 481.689 110.411C482.089 110.383 482.488 110.331 482.882 110.256Z" fill="#263238"/>
<path d="M489.049 93.1272C489.14 93.1105 489.223 93.0664 489.288 93.0008C489.345 92.9572 489.392 92.9024 489.426 92.8398C489.461 92.7772 489.482 92.7082 489.488 92.637C489.495 92.5659 489.487 92.4941 489.464 92.4263C489.442 92.3584 489.406 92.2959 489.358 92.2427C488.813 91.5796 488.117 91.0574 487.327 90.7201C486.538 90.3829 485.679 90.2406 484.823 90.3051C484.682 90.3261 484.554 90.4002 484.465 90.5124C484.376 90.6246 484.334 90.7664 484.346 90.9089C484.354 90.9792 484.377 91.0471 484.412 91.1086C484.447 91.1701 484.494 91.224 484.551 91.2671C484.607 91.3102 484.671 91.3417 484.739 91.3598C484.808 91.3778 484.879 91.382 484.95 91.3722C485.637 91.322 486.327 91.4388 486.96 91.7126C487.594 91.9864 488.151 92.409 488.586 92.9447C488.642 93.0114 488.713 93.0632 488.794 93.0951C488.875 93.1269 488.963 93.138 489.049 93.1272Z" fill="#263238"/>
<path d="M470.333 95.0928C470.422 95.0832 470.508 95.0529 470.584 95.0041C470.659 94.9553 470.723 94.8895 470.768 94.812C471.082 94.2057 471.534 93.6816 472.088 93.2817C472.641 92.8818 473.281 92.6173 473.955 92.5094C474.034 92.5159 474.112 92.5053 474.186 92.4785C474.26 92.4517 474.328 92.4093 474.384 92.3542C474.44 92.299 474.483 92.2324 474.512 92.1589C474.54 92.0854 474.551 92.0067 474.546 91.9282C474.541 91.8497 474.519 91.7732 474.482 91.704C474.445 91.6347 474.393 91.5743 474.33 91.5269C474.267 91.4794 474.195 91.4461 474.118 91.4291C474.041 91.4121 473.962 91.4118 473.885 91.4283C473.034 91.5463 472.223 91.8616 471.516 92.3492C470.809 92.8368 470.226 93.4831 469.813 94.2363C469.747 94.3616 469.732 94.5077 469.771 94.6439C469.811 94.78 469.901 94.8956 470.024 94.9664C470.113 95.0361 470.22 95.0798 470.333 95.0928Z" fill="#263238"/>
<path d="M579.62 502.519L568.164 502.351L562.814 475.815L574.257 475.998L579.62 502.519Z" fill="#FF8B7B"/>
<path d="M577.945 494.208L565.492 494.095C565.391 494.084 565.289 494.096 565.194 494.132C565.099 494.169 565.015 494.227 564.947 494.303C564.88 494.378 564.831 494.469 564.807 494.568C564.782 494.666 564.781 494.769 564.804 494.868L566.334 505.075C566.453 505.632 566.75 506.135 567.181 506.508C567.612 506.88 568.153 507.102 568.721 507.139C573.186 507.139 574.52 506.773 580.164 506.83C586.762 506.83 583.772 507.082 591.508 507.153C596.197 507.153 595.72 502.463 593.614 501.986C586.903 500.498 584.586 497.914 580.978 495.134C580.093 494.508 579.029 494.183 577.945 494.208Z" fill="url(#paint3_linear_50_903)"/>
<path opacity="0.2" d="M562.814 475.829L565.566 489.49L577.023 489.673L574.271 475.998L562.814 475.829Z" fill="black"/>
<path d="M556.384 353.443C548.409 301.396 541.487 249.336 533.274 228.782L492.811 231.337C492.811 231.337 515.569 320.519 527.194 356.616C532.81 394.524 560.736 483.551 560.736 483.551L578.904 482.751C578.904 482.751 564.415 405.489 556.384 353.443Z" fill="#263238"/>
<path d="M557.883 480.35L560.747 488.1L580.88 487.454L580.417 480.013L557.883 480.35Z" fill="#263238"/>
<path d="M533.953 150.031C534.599 151.056 535.076 151.857 535.61 152.755C536.144 153.654 536.579 154.496 537.014 155.381C537.941 157.136 538.825 158.905 539.696 160.674C541.394 164.263 542.908 167.937 544.231 171.681C545.593 175.459 546.718 179.318 547.6 183.236L548.246 186.212L548.765 189.245C548.948 190.242 549.046 191.281 549.159 192.306L549.327 193.85L549.411 194.622V194.805V195.395C549.5 197.078 549.217 198.761 548.583 200.323C548.241 201.182 547.823 202.009 547.333 202.794C546.59 203.964 545.734 205.06 544.778 206.065C543.232 207.673 541.566 209.161 539.794 210.516C536.611 212.926 533.277 215.13 529.811 217.115C523.172 220.951 516.255 224.283 509.117 227.083L505.045 219.529C510.914 215.191 516.923 210.839 522.497 206.36C525.305 204.142 528 201.839 530.359 199.55C531.443 198.523 532.443 197.41 533.35 196.223C533.631 195.837 533.88 195.429 534.094 195.002C534.192 194.805 533.967 194.735 533.813 195.97C533.813 196.083 533.813 196.293 533.813 196.476V196.714V196.56L533.687 195.956L533.434 194.735C533.279 193.92 533.125 193.106 532.9 192.292L532.283 189.863L531.566 187.42C530.57 184.177 529.432 180.948 528.127 177.746C526.821 174.545 525.403 171.358 523.915 168.227C523.157 166.669 522.384 165.096 521.57 163.58L520.334 161.306L519.169 159.2L533.953 150.031Z" fill="#FF8B7B"/>
<path d="M509.219 217.901L497.678 219.08L502.634 231.941C502.634 231.941 512.967 229.61 512.729 223.938L509.219 217.901Z" fill="#FF8B7B"/>
<path d="M489.83 228.333L492.343 232.545C492.83 233.357 493.594 233.966 494.494 234.26C495.394 234.554 496.371 234.513 497.243 234.145L502.62 231.941L497.664 219.024L491.388 222.773C490.919 223.033 490.505 223.384 490.172 223.805C489.839 224.226 489.592 224.71 489.447 225.227C489.303 225.744 489.262 226.285 489.327 226.818C489.393 227.351 489.564 227.866 489.83 228.333Z" fill="#FF8B7B"/>
<path d="M501.899 156.181C505.254 165.293 517.188 177.241 523.197 183.446C536.535 183.278 545.465 170.122 545.465 170.122C545.465 170.122 539.399 147.041 527.55 138.701C518.634 132.439 495.988 140.063 501.899 156.181Z" fill="url(#paint4_linear_50_903)"/>
<path d="M477.347 347.517H200.422V373.239H477.347V347.517Z" fill="#263238"/>
<path opacity="0.2" d="M477.35 347.517H398.74V373.239H477.35V347.517Z" fill="black"/>
<path d="M217.003 373.239H200.422V512.137H217.003V373.239Z" fill="#263238"/>
<path opacity="0.2" d="M216.989 380.441L200.422 376.847V373.239H216.989V380.441Z" fill="black"/>
<path d="M477.357 373.239H460.775V512.137H477.357V373.239Z" fill="#263238"/>
<path opacity="0.2" d="M477.357 373.239H460.775V512.137H477.357V373.239Z" fill="black"/>
<path d="M415.321 373.239H398.74V512.137H415.321V373.239Z" fill="#263238"/>
<path opacity="0.2" d="M415.321 380.441L398.74 376.847V373.239H415.321V380.441Z" fill="black"/>
<path d="M268.894 373.239H252.312V512.137H268.894V373.239Z" fill="#263238"/>
<path opacity="0.2" d="M268.894 373.239H252.312V512.137H268.894V373.239Z" fill="black"/>
<path d="M449.214 218.35H241.604L223.17 299.08H430.779L449.214 218.35Z" fill="#263238"/>
<path d="M449.21 218.35H453.955L435.521 299.08H430.775L449.21 218.35Z" fill="black"/>
<path d="M479.037 250.642H179.803C170.498 250.642 162.955 258.185 162.955 267.49V330.67C162.955 339.975 170.498 347.518 179.803 347.518H479.037C488.342 347.518 495.885 339.975 495.885 330.67V267.49C495.885 258.185 488.342 250.642 479.037 250.642Z" fill="url(#paint5_linear_50_903)"/>
<path opacity="0.2" d="M479.046 250.642H440.787C431.483 250.642 423.939 258.185 423.939 267.49V330.67C423.939 339.974 431.483 347.518 440.787 347.518H479.046C488.351 347.518 495.894 339.974 495.894 330.67V267.49C495.894 258.185 488.351 250.642 479.046 250.642Z" fill="black"/>
<path opacity="0.2" d="M411.647 275.675H175.255C174.511 275.675 173.796 275.379 173.27 274.853C172.743 274.326 172.447 273.612 172.447 272.867C172.447 272.122 172.743 271.408 173.27 270.882C173.796 270.355 174.511 270.059 175.255 270.059H411.647C412.392 270.059 413.106 270.355 413.632 270.882C414.159 271.408 414.455 272.122 414.455 272.867C414.455 273.612 414.159 274.326 413.632 274.853C413.106 275.379 412.392 275.675 411.647 275.675Z" fill="black"/>
<path d="M397.889 301.649H412.098C412.715 301.645 413.305 301.399 413.742 300.962C414.178 300.526 414.425 299.935 414.428 299.318C414.428 298.699 414.183 298.105 413.747 297.665C413.31 297.226 412.717 296.977 412.098 296.974H397.889C397.27 296.977 396.677 297.226 396.24 297.665C395.804 298.105 395.559 298.699 395.559 299.318C395.562 299.935 395.809 300.526 396.245 300.962C396.682 301.399 397.272 301.645 397.889 301.649Z" fill="white"/>
<path d="M397.889 311.604H412.098C412.717 311.6 413.31 311.351 413.747 310.912C414.183 310.473 414.428 309.878 414.428 309.259C414.425 308.642 414.178 308.051 413.742 307.615C413.305 307.179 412.715 306.932 412.098 306.928H397.889C397.272 306.932 396.682 307.179 396.245 307.615C395.809 308.051 395.562 308.642 395.559 309.259C395.559 309.878 395.804 310.473 396.24 310.912C396.677 311.351 397.27 311.6 397.889 311.604Z" fill="white"/>
<path d="M397.889 321.516H412.098C412.717 321.512 413.31 321.263 413.747 320.824C414.183 320.385 414.428 319.791 414.428 319.171C414.428 318.552 414.183 317.957 413.747 317.518C413.31 317.079 412.717 316.83 412.098 316.826H397.889C397.27 316.83 396.677 317.079 396.24 317.518C395.804 317.957 395.559 318.552 395.559 319.171C395.559 319.791 395.804 320.385 396.24 320.824C396.677 321.263 397.27 321.512 397.889 321.516Z" fill="white"/>
<path d="M230.39 272.867C233.128 249.181 216.14 229.989 192.482 229.989H365.441C389.127 229.989 406.157 249.181 403.349 272.867H230.39Z" fill="url(#paint6_linear_50_903)"/>
<g opacity="0.3">
<path d="M230.398 272.867C233.136 249.182 216.148 229.989 192.49 229.989H365.449C389.134 229.989 406.165 249.182 403.357 272.867H230.398Z" fill="white"/>
</g>
<path d="M192.457 229.989H365.444C341.772 229.989 320.361 249.181 317.624 272.867L297.968 443.214C295.244 466.9 273.833 486.092 250.147 486.092H162.959C139.274 486.092 122.243 466.9 125.051 443.214L144.707 272.867C147.403 249.181 168.772 229.989 192.457 229.989Z" fill="url(#paint7_linear_50_903)"/>
<path opacity="0.7" d="M192.457 229.989H365.444C341.772 229.989 320.361 249.181 317.624 272.867L297.968 443.214C295.244 466.9 273.833 486.092 250.147 486.092H162.959C139.274 486.092 122.243 466.9 125.051 443.214L144.707 272.867C147.403 249.181 168.772 229.989 192.457 229.989Z" fill="white"/>
<path d="M212.26 443.215C209.522 466.9 226.51 486.093 250.168 486.093H77.209C53.5235 486.093 36.493 466.9 39.301 443.215H212.26Z" fill="url(#paint8_linear_50_903)"/>
<path opacity="0.5" d="M212.26 443.215C209.522 466.9 226.51 486.093 250.168 486.093H77.209C53.5235 486.093 36.493 466.9 39.301 443.215H212.26Z" fill="white"/>
<path d="M297.306 335.121H150.645L152.554 318.497H299.216L297.306 335.121Z" fill="url(#paint9_linear_50_903)"/>
<path opacity="0.8" d="M297.294 335.121H150.633L149.074 348.683H295.736L297.294 335.121Z" fill="white"/>
<path d="M287.168 423.123H242.535L243.448 415.106H288.095L287.168 423.123Z" fill="url(#paint10_linear_50_903)"/>
<path opacity="0.8" d="M287.153 423.123H242.52L241.762 429.68H286.395L287.153 423.123Z" fill="white"/>
<path opacity="0.5" d="M294.179 362.26H147.518L149.09 348.683H295.752L294.179 362.26Z" fill="white"/>
<path opacity="0.8" d="M294.17 362.26H147.508L145.949 375.837H292.611L294.17 362.26Z" fill="white"/>
<path opacity="0.5" d="M291.043 389.399H144.367L145.94 375.836H292.601L291.043 389.399Z" fill="white"/>
<path opacity="0.8" d="M291.051 389.399H144.375L142.816 402.976H289.478L291.051 389.399Z" fill="white"/>
<defs>
<linearGradient id="paint0_linear_50_903" x1="503.581" y1="493.953" x2="503.581" y2="507.153" gradientUnits="userSpaceOnUse">
<stop stop-color="#1786FF"/>
<stop offset="1" stop-color="#0152FF"/>
</linearGradient>
<linearGradient id="paint1_linear_50_903" x1="464.299" y1="140.331" x2="464.299" y2="184.759" gradientUnits="userSpaceOnUse">
<stop stop-color="#1786FF"/>
<stop offset="1" stop-color="#0152FF"/>
</linearGradient>
<linearGradient id="paint2_linear_50_903" x1="495.899" y1="134.563" x2="495.899" y2="232.727" gradientUnits="userSpaceOnUse">
<stop stop-color="#1786FF"/>
<stop offset="1" stop-color="#0152FF"/>
</linearGradient>
<linearGradient id="paint3_linear_50_903" x1="579.967" y1="494.091" x2="579.967" y2="507.153" gradientUnits="userSpaceOnUse">
<stop stop-color="#1786FF"/>
<stop offset="1" stop-color="#0152FF"/>
</linearGradient>
<linearGradient id="paint4_linear_50_903" x1="523.196" y1="136.517" x2="523.196" y2="183.446" gradientUnits="userSpaceOnUse">
<stop stop-color="#1786FF"/>
<stop offset="1" stop-color="#0152FF"/>
</linearGradient>
<linearGradient id="paint5_linear_50_903" x1="329.42" y1="250.642" x2="329.42" y2="347.518" gradientUnits="userSpaceOnUse">
<stop stop-color="#1786FF"/>
<stop offset="1" stop-color="#0152FF"/>
</linearGradient>
<linearGradient id="paint6_linear_50_903" x1="298.067" y1="229.989" x2="298.067" y2="272.867" gradientUnits="userSpaceOnUse">
<stop stop-color="#1786FF"/>
<stop offset="1" stop-color="#0152FF"/>
</linearGradient>
<linearGradient id="paint7_linear_50_903" x1="245.096" y1="229.989" x2="245.096" y2="486.092" gradientUnits="userSpaceOnUse">
<stop stop-color="#1786FF"/>
<stop offset="1" stop-color="#0152FF"/>
</linearGradient>
<linearGradient id="paint8_linear_50_903" x1="144.583" y1="443.215" x2="144.583" y2="486.093" gradientUnits="userSpaceOnUse">
<stop stop-color="#1786FF"/>
<stop offset="1" stop-color="#0152FF"/>
</linearGradient>
<linearGradient id="paint9_linear_50_903" x1="224.93" y1="318.497" x2="224.93" y2="335.121" gradientUnits="userSpaceOnUse">
<stop stop-color="#1786FF"/>
<stop offset="1" stop-color="#0152FF"/>
</linearGradient>
<linearGradient id="paint10_linear_50_903" x1="265.315" y1="415.106" x2="265.315" y2="423.123" gradientUnits="userSpaceOnUse">
<stop stop-color="#1786FF"/>
<stop offset="1" stop-color="#0152FF"/>
</linearGradient>
</defs>
</svg>
