<svg width="798" height="594" viewBox="0 0 798 594" fill="none" xmlns="http://www.w3.org/2000/svg">
<path d="M797.386 521.998H0.199219V522.397H797.386V521.998Z" fill="#EBEBEB"/>
<path d="M219.681 532.856H166.875V533.254H219.681V532.856Z" fill="#EBEBEB"/>
<path d="M338.031 547.46H273.061V547.859H338.031V547.46Z" fill="#EBEBEB"/>
<path d="M165.28 542.47H83.8398V542.868H165.28V542.47Z" fill="#EBEBEB"/>
<path d="M717.508 535.534H569.008V535.933H717.508V535.534Z" fill="#EBEBEB"/>
<path d="M554.819 535.534H544.727V535.933H554.819V535.534Z" fill="#EBEBEB"/>
<path d="M509.506 542.263H442.176V542.661H509.506V542.263Z" fill="#EBEBEB"/>
<path d="M378.067 450.889H70.209C67.7973 450.885 65.4858 449.924 63.7819 448.217C62.0781 446.51 61.1211 444.197 61.1211 441.785V9.02416C61.1421 6.62626 62.1083 4.33347 63.8099 2.64382C65.5115 0.954166 67.811 0.00410773 70.209 0H378.067C380.481 0 382.797 0.959156 384.504 2.66646C386.211 4.37377 387.171 6.68938 387.171 9.10387V441.785C387.171 444.2 386.211 446.515 384.504 448.223C382.797 449.93 380.481 450.889 378.067 450.889ZM70.209 0.318876C67.903 0.3231 65.6929 1.24212 64.0638 2.87422C62.4347 4.50632 61.5197 6.71813 61.5197 9.02416V441.785C61.5197 444.091 62.4347 446.303 64.0638 447.935C65.6929 449.567 67.903 450.486 70.209 450.49H378.067C380.374 450.486 382.586 449.568 384.218 447.936C385.849 446.304 386.768 444.093 386.772 441.785V9.02416C386.768 6.71667 385.849 4.50489 384.218 2.87325C382.586 1.2416 380.374 0.323091 378.067 0.318876H70.209Z" fill="#EBEBEB"/>
<path d="M722.944 450.889H415.071C412.657 450.885 410.344 449.924 408.638 448.218C406.932 446.511 405.971 444.198 405.967 441.785V9.02416C405.992 6.6248 406.962 4.33204 408.666 2.64282C410.37 0.953609 412.671 0.00406293 415.071 0H722.944C725.34 0.00829791 727.635 0.96021 729.333 2.64942C731.031 4.33862 731.995 6.62901 732.016 9.02416V441.785C732.016 444.194 731.062 446.505 729.361 448.211C727.661 449.918 725.353 450.881 722.944 450.889ZM415.071 0.318876C412.763 0.323091 410.551 1.2416 408.92 2.87325C407.288 4.50489 406.37 6.71667 406.365 9.02416V441.785C406.37 444.093 407.288 446.304 408.92 447.936C410.551 449.568 412.763 450.486 415.071 450.49H722.944C725.252 450.486 727.464 449.568 729.095 447.936C730.727 446.304 731.645 444.093 731.65 441.785V9.02416C731.645 6.71667 730.727 4.50489 729.095 2.87325C727.464 1.2416 725.252 0.323091 722.944 0.318876H415.071Z" fill="#EBEBEB"/>
<path d="M367.527 521.998V201.242H238.782L238.782 521.998H367.527Z" fill="#F0F0F0"/>
<path d="M360.447 303.712V209.293H245.844V303.712H360.447Z" fill="#E6E6E6"/>
<path d="M360.465 406.613V312.194H245.861V406.613H360.465Z" fill="#E6E6E6"/>
<path d="M360.465 509.498V415.079H245.861V509.498H360.465Z" fill="#E6E6E6"/>
<path d="M360.465 303.712V209.293H315.392V303.712H360.465Z" fill="#E0E0E0"/>
<path d="M360.447 406.597V312.178H315.374V406.597H360.447Z" fill="#E0E0E0"/>
<path d="M295.206 368.89H263.973V406.613H295.206V368.89Z" fill="#FAFAFA"/>
<path d="M250.787 406.597H263.973V368.874H250.787V406.597Z" fill="#F0F0F0"/>
<path d="M345.652 368.89H314.418V406.613H345.652V368.89Z" fill="#FAFAFA"/>
<path d="M301.248 406.597H314.434V368.874H301.248V406.597Z" fill="#F0F0F0"/>
<path d="M320.988 331.167H289.754V368.89H320.988V331.167Z" fill="#FAFAFA"/>
<path d="M276.568 368.89H289.754V331.167H276.568V368.89Z" fill="#F0F0F0"/>
<path d="M360.465 509.498V415.079H315.392V509.498H360.465Z" fill="#E0E0E0"/>
<path d="M238.781 521.998L238.781 201.242H203.817L203.817 521.998H238.781Z" fill="#F5F5F5"/>
<path d="M352.683 428.695H259.619V509.498H352.683V428.695Z" fill="#F0F0F0"/>
<path d="M245.861 509.482H259.637V428.679H245.861V509.482Z" fill="#E0E0E0"/>
<path d="M352.683 222.909H259.619V303.712H352.683V222.909Z" fill="#F0F0F0"/>
<path d="M245.861 303.696H259.637V222.894H245.861V303.696Z" fill="#E0E0E0"/>
<path d="M679.402 521.998V52.0882L457.593 52.0882V521.998H679.402Z" fill="#FAFAFA"/>
<path d="M457.594 521.998L457.594 52.0882H456.765L456.765 521.998H457.594Z" fill="#F0F0F0"/>
<path d="M654.69 67.5058H473.633V521.998H654.69V67.5058Z" fill="#E6E6E6"/>
<path d="M664.383 67.5058H478.16V521.998H664.383V67.5058Z" fill="#F0F0F0"/>
<path d="M650.816 298.531V304.254L656.54 298.531H650.816Z" fill="#E0E0E0"/>
<path d="M650.816 508.43V81.0899L491.73 81.0899V508.43H650.816Z" fill="#FAFAFA"/>
<path d="M621.24 296.203C620.073 296.203 618.954 296.666 618.129 297.492C617.303 298.317 616.84 299.436 616.84 300.603C616.84 301.77 617.303 302.89 618.129 303.715C618.954 304.54 620.073 305.004 621.24 305.004H649.11V296.203H621.24Z" fill="#F5F5F5"/>
<path d="M526.629 508.43L575.178 81.0899H607.878L559.33 508.43H526.629Z" fill="white"/>
<path d="M566.361 508.43L614.91 81.0899H627.665L579.116 508.43H566.361Z" fill="white"/>
<path d="M650.816 508.414V81.0739H649.094V508.414H650.816Z" fill="#E6E6E6"/>
<path d="M655.024 299.152H627.17C626.004 299.148 624.887 298.683 624.063 297.859C623.239 297.035 622.774 295.918 622.77 294.752C622.774 293.586 623.239 292.469 624.063 291.645C624.887 290.821 626.004 290.356 627.17 290.351H655.024C656.191 290.351 657.31 290.815 658.135 291.64C658.961 292.466 659.424 293.585 659.424 294.752C659.424 295.919 658.961 297.038 658.135 297.864C657.31 298.689 656.191 299.152 655.024 299.152Z" fill="#EBEBEB"/>
<path d="M180.459 106.584H102.191V231.089H180.459V106.584Z" fill="#E0E0E0"/>
<path d="M185.163 106.584H104.248V231.089H185.163V106.584Z" fill="#F5F5F5"/>
<path d="M111.039 115.656V222.001H178.401V115.656H111.039Z" fill="white"/>
<path d="M290.965 46.5079H212.697V171.013H290.965V46.5079Z" fill="#E0E0E0"/>
<path d="M295.684 46.5079H214.77V171.013H295.684V46.5079Z" fill="#F5F5F5"/>
<path d="M221.547 55.5958V161.941H288.909V55.5958H221.547Z" fill="white"/>
<path d="M398.793 594C569.523 594 707.927 585.919 707.927 575.952C707.927 565.984 569.523 557.903 398.793 557.903C228.064 557.903 89.6602 565.984 89.6602 575.952C89.6602 585.919 228.064 594 398.793 594Z" fill="#F5F5F5"/>
<path d="M261.088 111.973C264.516 116.517 264.93 122.097 261.247 131.105C259.653 134.804 257.58 138.424 252.957 132.221C248.333 126.019 244.363 114.683 251.362 113.679C258.362 112.674 261.088 111.973 261.088 111.973Z" fill="#263238"/>
<path d="M259.605 561.044H271.452L271.962 533.605H260.116L259.605 561.044Z" fill="#FFC3BD"/>
<path d="M171.658 539.998L183.138 542.916L195.016 517.645L183.536 514.728L171.658 539.998Z" fill="#FFC3BD"/>
<path d="M184.669 541.704L172.058 537.447C171.838 537.372 171.598 537.375 171.38 537.456C171.162 537.538 170.979 537.692 170.862 537.894L165.521 547.189C165.393 547.419 165.317 547.675 165.299 547.938C165.281 548.201 165.322 548.464 165.418 548.71C165.514 548.955 165.663 549.176 165.854 549.357C166.046 549.538 166.275 549.674 166.525 549.756C170.958 551.175 173.174 551.637 178.722 553.519C182.134 554.667 191.844 558.748 196.564 560.343C201.283 561.937 203.34 557.457 201.554 556.373C193.502 551.59 188.257 546.472 186.264 543.028C185.909 542.409 185.343 541.94 184.669 541.704Z" fill="#263238"/>
<path d="M271.34 559.625H258.489C258.258 559.624 258.033 559.703 257.853 559.848C257.673 559.993 257.548 560.196 257.5 560.423L255.3 571.009C255.253 571.268 255.264 571.533 255.331 571.787C255.399 572.041 255.521 572.276 255.69 572.477C255.859 572.678 256.071 572.84 256.309 572.95C256.548 573.06 256.807 573.116 257.07 573.114C261.726 573.114 268.47 572.763 274.321 572.763C281.193 572.763 282.628 573.13 290.663 573.13C295.526 573.13 296.754 568.219 294.713 567.773C285.386 565.748 282.325 565.524 274.194 560.598C273.349 560.019 272.362 559.683 271.34 559.625Z" fill="#263238"/>
<path d="M268.264 186.398L284.431 181.217C284.431 181.217 301.14 219.896 306.752 222.304C314.373 225.492 320.336 230.929 330.109 231.87C331.433 233.384 333.601 238.247 333.394 240.065C320.272 245.007 300.055 239.762 294.491 234.612C281.752 222.909 268.264 186.398 268.264 186.398Z" fill="#FFC3BD"/>
<path d="M264.484 177.502C259.94 187.865 278.196 220.773 278.196 220.773L302.351 209.612C299.385 199.568 295.371 189.864 290.377 180.659C282.788 167.409 269.475 166.118 264.484 177.502Z" fill="url(#paint0_linear_38_26528)"/>
<path opacity="0.5" d="M264.484 177.502C259.94 187.865 278.196 220.773 278.196 220.773L302.351 209.612C299.385 199.568 295.371 189.864 290.377 180.659C282.788 167.409 269.475 166.118 264.484 177.502Z" fill="black"/>
<path d="M328.1 231.886L337.219 227.103L341.859 240.511C341.859 240.511 338.878 241.835 330.364 240.782L328.1 231.886Z" fill="#FFC3BD"/>
<path d="M346.307 223.739L349.224 235.202L341.858 240.559L337.219 227.15L346.307 223.739Z" fill="#FFC3BD"/>
<path opacity="0.2" d="M271.961 533.621L271.706 547.763H259.844L260.115 533.621H271.961Z" fill="black"/>
<path opacity="0.2" d="M183.521 514.728L195.016 517.645L188.878 530.671L177.398 527.754L183.521 514.728Z" fill="black"/>
<path d="M279.966 170.773C279.966 170.773 294.825 211.478 283.154 278.091H219.826C219.14 268.365 224.099 215.99 213.592 170.168C220.573 168.814 227.635 167.919 234.733 167.489C243.702 166.97 252.693 166.97 261.662 167.489C267.838 168.114 273.957 169.212 279.966 170.773Z" fill="url(#paint1_linear_38_26528)"/>
<path opacity="0.5" d="M279.966 170.773C279.966 170.773 294.825 211.478 283.154 278.091H219.826C219.14 268.365 224.099 215.99 213.592 170.168C220.573 168.814 227.635 167.919 234.733 167.489C243.702 166.97 252.693 166.97 261.662 167.489C267.838 168.114 273.957 169.212 279.966 170.773Z" fill="black"/>
<path opacity="0.2" d="M227.638 181.488C228.866 189.029 226.936 206.998 220.256 227.916C219.933 210.054 218.034 192.255 214.58 174.727V174.632C218.741 174.217 226.442 174.409 227.638 181.488Z" fill="black"/>
<path d="M237.634 142.298C239.547 150.971 240.648 161.701 234.732 167.489C234.732 167.489 238.431 176.274 254.535 176.274C269.251 176.274 261.661 167.489 261.661 167.489C251.952 165.177 252.095 153.235 253.69 146.507L237.634 142.298Z" fill="#FFC3BD"/>
<path d="M254.534 176.274C252.853 178.744 251.858 181.616 251.648 184.597C251.648 184.597 231.304 177.486 231.99 167.059C231.99 167.059 234.812 165.353 236.597 163.965C236.597 163.981 237.458 172.192 254.534 176.274Z" fill="white"/>
<path d="M254.535 176.274C256.264 178.638 257.659 181.23 258.681 183.975C258.681 183.975 267.673 177.789 264.675 167.489C262.982 166.822 261.239 166.289 259.462 165.895C259.462 165.895 260.833 174.058 254.535 176.274Z" fill="white"/>
<path opacity="0.2" d="M253.706 146.507C252.512 151.192 252.65 156.118 254.104 160.729C252.601 160.505 251.14 160.059 249.768 159.406C244.251 156.839 241.461 152.805 238.527 146.794C238.272 145.2 237.985 143.765 237.65 142.298L253.706 146.507Z" fill="black"/>
<path d="M268.484 139.157C267.876 140.472 267.01 141.651 265.936 142.624C264.862 143.596 263.603 144.342 262.234 144.817C258.551 146.061 256.447 142.76 257.244 139.125C257.961 135.936 260.736 131.281 264.53 131.616C265.364 131.712 266.162 132.01 266.855 132.485C267.547 132.96 268.113 133.597 268.502 134.34C268.892 135.084 269.094 135.911 269.091 136.751C269.088 137.59 268.88 138.416 268.484 139.157Z" fill="#FFC3BD"/>
<path opacity="0.2" d="M268.484 139.157C267.876 140.472 267.01 141.651 265.936 142.624C264.862 143.596 263.603 144.342 262.234 144.817C258.551 146.061 256.447 142.76 257.244 139.125C257.961 135.936 260.736 131.281 264.53 131.616C265.364 131.712 266.162 132.01 266.855 132.485C267.547 132.96 268.113 133.597 268.502 134.34C268.892 135.084 269.094 135.911 269.091 136.751C269.088 137.59 268.88 138.416 268.484 139.157Z" fill="black"/>
<path d="M232.245 129.862C234.414 141.517 235.099 148.452 241.684 153.857C251.601 162.004 265.233 155.133 266.54 143.111C267.72 132.301 263.989 115.05 252.079 111.558C249.47 110.779 246.703 110.692 244.05 111.306C241.398 111.921 238.95 113.215 236.949 115.061C234.948 116.908 233.462 119.244 232.637 121.839C231.813 124.434 231.677 127.199 232.245 129.862Z" fill="#FFC3BD"/>
<path d="M240.313 116.533C242.992 121.539 241.589 124.808 237.89 133.72C236.296 137.419 233.777 141.357 229.599 134.836C225.661 128.682 219.65 117.298 224.816 116.055C231.72 114.492 240.313 116.533 240.313 116.533Z" fill="#263238"/>
<path d="M236.949 119.801C241.732 121.396 245.527 118.988 246.436 116.692C250.262 118.382 255.284 118.606 256.911 116.437C260.099 116.437 263.511 117.011 265.042 112.451C266.572 107.891 264.675 103.794 259.669 101.482C259.557 102.502 256.958 103.826 254.519 102.136C253.151 101.365 251.59 101.007 250.023 101.103C248.456 101.199 246.95 101.746 245.686 102.678C240.473 101.322 236.79 100.573 233.792 104.001C228.834 102.965 222.791 107.461 223.62 111.367C219.73 116.15 223.493 120.12 227.478 120.806C228.276 122.767 235.897 121.826 236.949 119.801Z" fill="#263238"/>
<path d="M228.625 143.35C230.47 145.679 233.155 147.19 236.102 147.559C239.977 148.006 241.22 144.371 239.562 140.99C238.064 137.945 234.237 134.071 230.634 135.171C227.03 136.271 226.361 140.448 228.625 143.35Z" fill="#FFC3BD"/>
<path d="M241.541 278.091C241.541 278.091 242.801 292.982 244.395 313.167C246.228 336.046 248.477 365.781 249.816 388.374C249.816 388.501 249.816 388.597 249.816 388.692C250.071 392.981 250.294 397.015 250.47 400.698C252.271 437.608 255.97 545.021 255.97 545.021H276.027C276.027 545.021 286.12 435.408 286.55 397.844C286.949 361.716 283.154 278.091 283.154 278.091H241.541Z" fill="#263238"/>
<path d="M254.503 538.898C254.423 538.898 254.662 545.451 254.662 545.451H277.796L278.594 538.085L254.503 538.898Z" fill="url(#paint2_linear_38_26528)"/>
<path opacity="0.2" d="M244.395 313.167C246.228 336.046 248.476 365.781 249.815 388.374C249.815 388.501 249.815 388.597 249.815 388.693C254.726 367.232 256.719 340.542 256.018 296.601L244.395 313.167Z" fill="black"/>
<path d="M260.706 278.091C260.706 278.091 249.545 363.677 242.929 397.669C235.754 434.802 194.842 529.444 194.842 529.444L173.812 524.103C173.812 524.103 203.771 437.799 207.486 401.033C211.503 361.174 219.826 278.17 219.826 278.17L260.706 278.091Z" fill="#263238"/>
<path d="M175.071 518.506C174.992 518.506 172.68 524.15 172.68 524.15L195.782 530.034L199.385 523.768L175.071 518.506Z" fill="url(#paint3_linear_38_26528)"/>
<path d="M250.215 131.297C250.343 132.253 250.933 132.971 251.555 132.891C252.177 132.811 252.575 131.998 252.448 131.042C252.32 130.085 251.73 129.447 251.124 129.447C250.518 129.447 250.104 130.34 250.215 131.297Z" fill="#263238"/>
<path d="M260.881 130.181C260.993 131.137 261.583 131.775 262.205 131.775C262.826 131.775 263.225 130.882 263.097 129.926C262.97 128.969 262.396 128.251 261.774 128.331C261.152 128.411 260.754 129.224 260.881 130.181Z" fill="#263238"/>
<path d="M257.547 131.01C259.029 133.814 260.885 136.405 263.063 138.711C262.475 139.245 261.774 139.641 261.013 139.87C260.251 140.099 259.449 140.155 258.663 140.034L257.547 131.01Z" fill="#ED847E"/>
<path d="M256.289 142.697C256.36 142.681 256.424 142.641 256.468 142.582C256.512 142.523 256.533 142.451 256.528 142.378C256.516 142.304 256.476 142.238 256.417 142.194C256.357 142.149 256.283 142.129 256.209 142.138C255.031 142.32 253.826 142.221 252.693 141.849C251.56 141.478 250.531 140.845 249.688 140.002C249.633 139.954 249.562 139.927 249.489 139.927C249.415 139.927 249.345 139.954 249.289 140.002C249.238 140.056 249.209 140.127 249.209 140.201C249.209 140.276 249.238 140.347 249.289 140.401C250.189 141.313 251.294 141.997 252.511 142.396C253.729 142.795 255.024 142.898 256.289 142.697Z" fill="#263238"/>
<path d="M246.579 128.14C246.662 128.129 246.742 128.101 246.814 128.057C246.885 128.013 246.946 127.954 246.993 127.885C247.323 127.269 247.796 126.743 248.374 126.351C248.952 125.96 249.616 125.714 250.31 125.637C250.383 125.633 250.455 125.614 250.521 125.582C250.587 125.55 250.646 125.506 250.695 125.451C250.744 125.396 250.782 125.332 250.806 125.263C250.83 125.193 250.84 125.12 250.836 125.047C250.828 124.897 250.761 124.757 250.651 124.656C250.541 124.554 250.396 124.5 250.246 124.505C249.366 124.585 248.52 124.882 247.783 125.369C247.046 125.856 246.44 126.517 246.021 127.295C245.95 127.425 245.933 127.576 245.971 127.719C246.01 127.862 246.102 127.984 246.228 128.06C246.33 128.131 246.456 128.16 246.579 128.14Z" fill="#263238"/>
<path d="M265.186 125.844C265.267 125.829 265.343 125.796 265.409 125.748C265.47 125.706 265.521 125.651 265.559 125.588C265.598 125.525 265.623 125.455 265.634 125.382C265.644 125.309 265.64 125.234 265.62 125.163C265.601 125.091 265.567 125.025 265.521 124.967C265.018 124.227 264.347 123.617 263.563 123.187C262.778 122.758 261.903 122.521 261.009 122.496C260.935 122.498 260.862 122.515 260.795 122.546C260.727 122.577 260.667 122.622 260.618 122.677C260.569 122.732 260.531 122.797 260.508 122.867C260.485 122.938 260.476 123.012 260.483 123.086C260.491 123.235 260.557 123.375 260.667 123.477C260.778 123.578 260.923 123.632 261.073 123.628C261.781 123.655 262.472 123.85 263.09 124.197C263.708 124.543 264.235 125.031 264.628 125.621C264.692 125.705 264.778 125.769 264.876 125.809C264.975 125.848 265.082 125.86 265.186 125.844Z" fill="#263238"/>
<path d="M207.469 187.865L222.728 196.044C222.728 196.044 205.349 233.687 207.613 239.284C210.69 246.905 215.585 263.741 220.846 272.032C220.432 273.945 217.849 278.41 216.254 279.382C204.089 271.889 190.091 246.331 189.836 238.885C189.262 221.921 207.469 187.865 207.469 187.865Z" fill="#FFC3BD"/>
<path d="M213.592 170.168C202.431 171.762 190.537 210.633 190.537 210.633L214.453 223.93C214.453 223.93 224.37 205.451 229.137 191.739C234.095 177.374 225.566 168.414 213.592 170.168Z" fill="url(#paint4_linear_38_26528)"/>
<path opacity="0.5" d="M213.592 170.168C202.431 171.762 190.537 210.633 190.537 210.633L214.453 223.93C214.453 223.93 224.37 205.451 229.137 191.739C234.095 177.374 225.566 168.414 213.592 170.168Z" fill="black"/>
<path d="M187.763 544.941C188.499 545.257 189.32 545.313 190.091 545.101C190.348 544.992 190.575 544.822 190.75 544.605C190.925 544.388 191.044 544.131 191.096 543.857C191.143 543.699 191.147 543.532 191.108 543.372C191.068 543.212 190.987 543.066 190.872 542.948C189.836 541.896 185.515 542.948 185.021 542.948C184.968 542.96 184.92 542.988 184.883 543.028C184.846 543.068 184.822 543.118 184.814 543.171C184.808 543.228 184.819 543.285 184.844 543.335C184.87 543.386 184.909 543.429 184.957 543.458C185.831 544.061 186.773 544.559 187.763 544.941ZM190.155 543.171C190.278 543.192 190.39 543.254 190.474 543.347C190.508 543.402 190.526 543.465 190.526 543.53C190.526 543.595 190.508 543.658 190.474 543.713C190.441 543.901 190.363 544.077 190.246 544.227C190.129 544.377 189.978 544.496 189.804 544.574C188.357 544.722 186.909 544.311 185.755 543.426C187.188 543.036 188.686 542.949 190.155 543.171Z" fill="url(#paint5_linear_38_26528)"/>
<path d="M185.005 543.57H185.148C186.503 543.315 189.517 541.609 189.676 540.254C189.699 540.043 189.65 539.831 189.537 539.651C189.424 539.472 189.254 539.336 189.054 539.265C188.857 539.182 188.646 539.139 188.432 539.139C188.219 539.139 188.007 539.182 187.811 539.265C186.216 539.903 184.893 543.076 184.829 543.203C184.805 543.247 184.793 543.297 184.793 543.347C184.793 543.397 184.805 543.446 184.829 543.49C184.875 543.539 184.938 543.567 185.005 543.57ZM188.703 539.743H188.815C189.15 539.903 189.134 540.078 189.118 540.158C189.118 540.939 187.013 542.342 185.594 542.821C186.025 541.912 186.966 540.142 188.018 539.727C188.241 539.654 188.484 539.659 188.703 539.743Z" fill="url(#paint6_linear_38_26528)"/>
<path d="M276.331 561.73C277.336 561.821 278.343 561.568 279.185 561.012C279.371 560.84 279.512 560.625 279.598 560.387C279.684 560.148 279.712 559.893 279.679 559.641C279.668 559.487 279.618 559.337 279.534 559.206C279.451 559.076 279.337 558.968 279.201 558.892C277.734 558.095 273.031 560.486 272.505 560.789C272.453 560.815 272.412 560.857 272.386 560.909C272.36 560.961 272.352 561.019 272.361 561.076C272.37 561.134 272.396 561.188 272.436 561.231C272.475 561.273 272.527 561.303 272.585 561.315C273.819 561.564 275.073 561.702 276.331 561.73ZM278.404 559.29C278.584 559.282 278.764 559.315 278.93 559.386C278.985 559.416 279.032 559.46 279.065 559.513C279.099 559.566 279.118 559.626 279.121 559.689C279.146 559.855 279.13 560.024 279.074 560.183C279.018 560.341 278.925 560.483 278.803 560.598C278.085 561.236 276.14 561.347 273.509 560.917C275.036 560.1 276.692 559.55 278.404 559.29Z" fill="url(#paint7_linear_38_26528)"/>
<path d="M272.648 561.315H272.839C274.258 560.662 277.016 558.127 276.777 556.771C276.777 556.452 276.474 556.054 275.709 555.99C275.425 555.946 275.134 555.966 274.858 556.048C274.582 556.131 274.328 556.275 274.115 556.468C272.632 557.696 272.393 560.885 272.393 561.028C272.387 561.077 272.394 561.126 272.413 561.171C272.433 561.216 272.464 561.255 272.504 561.283C272.55 561.304 272.598 561.315 272.648 561.315ZM275.422 556.532H275.582C276.092 556.532 276.124 556.771 276.14 556.835C276.283 557.648 274.418 559.657 272.951 560.534C273.043 559.193 273.556 557.915 274.418 556.883C274.695 556.64 275.053 556.509 275.422 556.516V556.532Z" fill="url(#paint8_linear_38_26528)"/>
<path d="M218.629 270.502L229.79 271.649L222.025 282.906C222.025 282.906 212.236 281.582 211.773 273.834L218.629 270.502Z" fill="#FFC3BD"/>
<path d="M236.231 276.002L228.706 285.839L222.137 282.906L229.901 271.649L236.231 276.002Z" fill="#FFC3BD"/>
<path d="M638.253 269.88L649.413 399.152C650.306 409.674 643.881 418.906 635.064 419.655L389.753 440.701C380.984 441.466 373.06 433.462 372.215 422.955L361.055 293.668C360.833 291.241 361.022 288.794 361.613 286.429C363.367 279.207 368.692 273.674 375.356 273.18L620.667 252.118C627.315 251.544 633.422 256.025 636.467 262.817C637.448 265.056 638.052 267.443 638.253 269.88Z" fill="url(#paint9_linear_38_26528)"/>
<path opacity="0.1" d="M638.253 269.88L649.413 399.152C650.306 409.674 643.881 418.906 635.064 419.655L389.753 440.701C380.984 441.466 373.06 433.462 372.215 422.955L361.055 293.668C360.833 291.241 361.022 288.794 361.613 286.429C363.367 279.207 368.692 273.674 375.356 273.18L620.667 252.118C627.315 251.544 633.422 256.025 636.467 262.817C637.448 265.056 638.052 267.443 638.253 269.88Z" fill="black"/>
<path d="M667.376 346.085L665.635 346.295L666.339 352.12L668.08 351.91L667.376 346.085Z" fill="url(#paint10_linear_38_26528)"/>
<path d="M663.983 317.962L662.242 318.172L664.864 339.873L666.606 339.663L663.983 317.962Z" fill="url(#paint11_linear_38_26528)"/>
<path d="M649.238 246.761L665.277 379.349C666.568 390.127 660.287 399.853 651.294 400.937L399.718 431.374C390.726 432.458 382.292 424.518 380.984 413.724L364.945 281.152C364.64 278.659 364.747 276.132 365.264 273.674C366.858 266.197 372.088 260.377 378.927 259.548L630.504 229.128C637.344 228.298 643.849 232.683 647.149 239.571C648.236 241.836 648.942 244.266 649.238 246.761Z" fill="url(#paint12_linear_38_26528)"/>
<path opacity="0.1" d="M647.15 239.571L533.041 316.404C527.456 320.221 521.035 322.638 514.319 323.451C507.604 324.264 500.791 323.449 494.457 321.075L365.312 273.674C366.907 266.197 372.136 260.377 378.976 259.548L630.553 229.128C637.345 228.298 643.85 232.683 647.15 239.571Z" fill="black"/>
<path d="M604.579 268.222L571.799 290.288L561.068 297.526L533.039 316.404C527.599 320.136 521.356 322.535 514.816 323.405C508.276 324.274 501.623 323.591 495.396 321.41L494.392 321.075L478.671 315.303L443.276 302.309L426.726 296.235L407.977 289.347L406.621 256.2L403.576 182.54L547.596 176.689L602.49 218.286L603.064 232.428L604.579 268.222Z" fill="url(#paint13_linear_38_26528)"/>
<path opacity="0.7" d="M604.579 268.222L571.799 290.288L561.068 297.526L533.039 316.404C527.599 320.136 521.356 322.535 514.816 323.405C508.276 324.274 501.623 323.591 495.396 321.41L494.392 321.075L478.671 315.303L443.276 302.309L426.726 296.235L407.977 289.347L406.621 256.2L403.576 182.54L547.596 176.689L602.49 218.286L603.064 232.428L604.579 268.222Z" fill="#FAFAFA"/>
<g opacity="0.9">
<path d="M584.284 232.938L424.846 239.411C423.957 239.446 423.089 239.133 422.428 238.537C421.767 237.941 421.364 237.111 421.307 236.222C421.276 235.336 421.592 234.472 422.187 233.814C422.782 233.156 423.61 232.756 424.496 232.699L583.933 226.226C584.822 226.191 585.69 226.504 586.351 227.1C587.013 227.696 587.415 228.526 587.472 229.414C587.507 230.302 587.193 231.168 586.597 231.827C586.001 232.486 585.17 232.885 584.284 232.938Z" fill="white"/>
<path d="M585.129 254.127L425.692 260.6C424.803 260.636 423.935 260.322 423.274 259.726C422.612 259.13 422.21 258.3 422.152 257.412C422.121 256.523 422.437 255.658 423.032 254.997C423.626 254.337 424.455 253.934 425.341 253.872L584.779 247.399C585.667 247.368 586.533 247.683 587.193 248.278C587.853 248.873 588.257 249.701 588.318 250.588C588.345 251.475 588.029 252.338 587.435 252.998C586.84 253.657 586.015 254.062 585.129 254.127Z" fill="white"/>
<path d="M585.989 275.301L426.552 281.774C425.663 281.809 424.795 281.495 424.133 280.899C423.472 280.304 423.07 279.473 423.012 278.585C422.977 277.697 423.292 276.831 423.888 276.173C424.484 275.514 425.314 275.115 426.201 275.061L585.639 268.588C586.526 268.553 587.392 268.868 588.051 269.464C588.71 270.06 589.109 270.89 589.162 271.777C589.197 272.662 588.885 273.526 588.292 274.184C587.7 274.842 586.873 275.243 585.989 275.301Z" fill="white"/>
<path d="M571.801 290.288L561.07 297.526L443.278 302.309L426.729 296.235C426.866 296.218 427.005 296.218 427.143 296.235L571.801 290.288Z" fill="white"/>
<path d="M528.162 316.675V316.802C528.164 317.67 527.835 318.505 527.243 319.139C526.65 319.773 525.839 320.157 524.973 320.214L495.461 321.41L494.457 321.075L478.736 315.303L524.702 313.422C525.588 313.409 526.445 313.741 527.091 314.348C527.736 314.955 528.121 315.789 528.162 316.675Z" fill="white"/>
</g>
<path opacity="0.1" d="M602.554 218.286L564.417 216.644L547.66 176.689L602.554 218.286Z" fill="#263238"/>
<path d="M602.554 218.286L565.549 211.956L547.66 176.689L602.554 218.286Z" fill="url(#paint14_linear_38_26528)"/>
<path d="M675.911 63.6634C675.911 96.0929 640.373 127.964 635.047 127.964C629.722 127.964 594.184 96.077 594.184 63.6634C594.184 41.9321 612.471 24.2983 635.047 24.2983C657.624 24.2983 675.911 41.9321 675.911 63.6634Z" fill="url(#paint15_linear_38_26528)"/>
<path opacity="0.1" d="M627.458 55.5799C620.06 63.6953 610.016 66.597 605.025 61.9574C600.035 57.3178 601.98 47.1457 609.362 39.0303C616.744 30.9149 626.804 28.0132 631.811 32.5571C636.817 37.1011 634.856 47.4645 627.458 55.5799Z" fill="white"/>
<path opacity="0.1" d="M605.665 88.2486C604.692 85.8251 604.947 83.4655 606.239 82.9234C607.53 82.3813 609.427 83.9438 610.336 86.3672C611.245 88.7907 611.054 91.1503 609.762 91.6765C608.471 92.2026 606.637 90.6561 605.665 88.2486Z" fill="white"/>
<path d="M633.295 230.004C633.123 230 632.959 229.93 632.837 229.808C632.715 229.687 632.645 229.523 632.641 229.351C632.594 227.2 633.242 225.092 634.491 223.34C635.561 221.77 636.133 219.914 636.133 218.015C636.133 216.115 635.561 214.259 634.491 212.689C633.286 210.916 632.642 208.822 632.642 206.679C632.642 204.535 633.286 202.441 634.491 200.668C635.561 199.101 636.134 197.248 636.134 195.351C636.134 193.453 635.561 191.6 634.491 190.033C633.285 188.264 632.641 186.172 632.641 184.031C632.641 181.889 633.285 179.798 634.491 178.028C635.561 176.461 636.134 174.608 636.134 172.711C636.134 170.813 635.561 168.96 634.491 167.393C633.285 165.623 632.641 163.532 632.641 161.391C632.641 159.249 633.285 157.158 634.491 155.388C635.561 153.821 636.134 151.968 636.134 150.07C636.134 148.173 635.561 146.32 634.491 144.753C633.285 142.983 632.641 140.892 632.641 138.75C632.641 136.609 633.285 134.518 634.491 132.748C635.582 131.197 636.142 129.334 636.085 127.438C636.109 127.28 636.19 127.137 636.311 127.033C636.432 126.929 636.587 126.872 636.747 126.872C636.906 126.872 637.061 126.929 637.182 127.033C637.303 127.137 637.384 127.28 637.408 127.438C637.453 129.584 636.805 131.686 635.559 133.433C634.47 134.991 633.911 136.858 633.964 138.758C633.908 140.654 634.467 142.517 635.559 144.068C636.764 145.838 637.408 147.929 637.408 150.07C637.408 152.212 636.764 154.303 635.559 156.073C634.48 157.636 633.902 159.491 633.902 161.391C633.902 163.29 634.48 165.145 635.559 166.708C636.764 168.478 637.408 170.569 637.408 172.711C637.408 174.852 636.764 176.943 635.559 178.713C634.48 180.277 633.902 182.131 633.902 184.031C633.902 185.93 634.48 187.785 635.559 189.348C636.764 191.118 637.408 193.209 637.408 195.351C637.408 197.492 636.764 199.584 635.559 201.353C634.478 202.919 633.899 204.776 633.899 206.679C633.899 208.581 634.478 210.438 635.559 212.004C636.763 213.777 637.407 215.871 637.407 218.015C637.407 220.158 636.763 222.252 635.559 224.025C634.465 225.581 633.905 227.45 633.964 229.351C633.964 229.438 633.947 229.524 633.913 229.605C633.879 229.685 633.83 229.758 633.767 229.819C633.705 229.88 633.631 229.927 633.55 229.959C633.469 229.991 633.382 230.007 633.295 230.004Z" fill="#263238"/>
<path d="M635.047 126.434C633.787 126.434 625.48 133.927 625.48 141.549H644.645C644.645 133.927 636.354 126.434 635.047 126.434Z" fill="url(#paint16_linear_38_26528)"/>
<path d="M636.928 126.689H633.165C632.857 126.689 632.607 126.939 632.607 127.247V127.646C632.607 127.954 632.857 128.204 633.165 128.204H636.928C637.236 128.204 637.486 127.954 637.486 127.646V127.247C637.486 126.939 637.236 126.689 636.928 126.689Z" fill="#263238"/>
<path d="M419.521 93.9724C419.521 126.386 383.982 158.258 378.657 158.258C373.332 158.258 337.793 126.37 337.793 93.9724C337.793 72.2251 356.08 54.5913 378.657 54.5913C401.233 54.5913 419.521 72.2251 419.521 93.9724Z" fill="#263238"/>
<path opacity="0.1" d="M372.032 87.2015C379.426 79.0839 381.373 68.8164 376.38 64.2684C371.387 59.7204 361.345 62.6141 353.951 70.7317C346.557 78.8493 344.61 89.1168 349.603 93.6648C354.596 98.2128 364.638 95.3191 372.032 87.2015Z" fill="white"/>
<path opacity="0.1" d="M350.229 119.865C349.256 117.442 349.512 115.082 350.803 114.54C352.094 113.998 353.992 115.56 354.901 117.984C355.809 120.407 355.618 122.767 354.327 123.309C353.035 123.851 351.202 122.288 350.229 119.865Z" fill="white"/>
<path d="M376.84 260.298C376.666 260.298 376.5 260.229 376.377 260.106C376.255 259.984 376.186 259.817 376.186 259.644C376.139 257.493 376.787 255.385 378.035 253.633C379.105 252.063 379.678 250.208 379.678 248.308C379.678 246.408 379.105 244.552 378.035 242.983C376.831 241.209 376.187 239.115 376.187 236.972C376.187 234.828 376.831 232.734 378.035 230.961C379.127 229.41 379.686 227.547 379.63 225.652C379.683 223.752 379.124 221.885 378.035 220.327C376.83 218.557 376.186 216.465 376.186 214.324C376.186 212.183 376.83 210.091 378.035 208.321C379.127 206.77 379.686 204.907 379.63 203.012C379.683 201.112 379.124 199.245 378.035 197.687C376.83 195.917 376.186 193.825 376.186 191.684C376.186 189.542 376.83 187.451 378.035 185.681C379.105 184.117 379.677 182.266 379.677 180.372C379.677 178.477 379.105 176.626 378.035 175.062C376.83 173.292 376.186 171.201 376.186 169.06C376.186 166.918 376.83 164.827 378.035 163.057C379.124 161.498 379.683 159.632 379.63 157.731C379.634 157.559 379.704 157.395 379.826 157.274C379.948 157.152 380.111 157.082 380.284 157.078C380.457 157.078 380.623 157.147 380.746 157.269C380.868 157.392 380.937 157.558 380.937 157.731C380.987 159.88 380.344 161.987 379.104 163.742C378.024 165.302 377.445 167.154 377.445 169.052C377.445 170.949 378.024 172.801 379.104 174.361C380.298 176.135 380.937 178.225 380.937 180.364C380.937 182.502 380.298 184.592 379.104 186.366C378.015 187.925 377.456 189.792 377.509 191.692C377.453 193.587 378.012 195.45 379.104 197.001C380.298 198.775 380.937 200.865 380.937 203.004C380.937 205.142 380.298 207.233 379.104 209.007C378.015 210.565 377.456 212.432 377.509 214.332C377.453 216.227 378.012 218.09 379.104 219.641C380.298 221.415 380.937 223.505 380.937 225.644C380.937 227.783 380.298 229.873 379.104 231.647C378.023 233.212 377.444 235.07 377.444 236.972C377.444 238.874 378.023 240.731 379.104 242.297C380.3 244.073 380.939 246.166 380.939 248.308C380.939 250.449 380.3 252.542 379.104 254.319C378.013 255.876 377.454 257.743 377.509 259.644C377.509 259.731 377.492 259.817 377.458 259.898C377.424 259.978 377.375 260.051 377.312 260.112C377.25 260.173 377.176 260.221 377.095 260.252C377.014 260.284 376.927 260.3 376.84 260.298Z" fill="url(#paint17_linear_38_26528)"/>
<path d="M378.594 156.743C377.334 156.743 369.027 164.221 369.027 171.842H388.16C388.192 164.221 379.837 156.743 378.594 156.743Z" fill="#263238"/>
<path d="M380.475 156.982H376.712C376.404 156.982 376.154 157.232 376.154 157.54V157.939C376.154 158.247 376.404 158.497 376.712 158.497H380.475C380.783 158.497 381.033 158.247 381.033 157.939V157.54C381.033 157.232 380.783 156.982 380.475 156.982Z" fill="url(#paint18_linear_38_26528)"/>
<path d="M657.173 259.605C666.83 250.737 667.47 235.719 658.602 226.062C649.734 216.404 634.716 215.764 625.059 224.632C615.401 233.5 614.761 248.518 623.629 258.176C632.497 267.833 647.515 268.473 657.173 259.605Z" fill="#DE5753"/>
<path d="M645.826 230.658V254.574H639.225V238.917C638.251 239.668 637.21 240.33 636.116 240.894C634.902 241.471 633.644 241.951 632.354 242.329V236.988C634.225 236.453 635.981 235.577 637.535 234.405C638.761 233.396 639.747 232.127 640.421 230.69L645.826 230.658Z" fill="white"/>
<defs>
<linearGradient id="paint0_linear_38_26528" x1="283.054" y1="169.767" x2="283.054" y2="220.773" gradientUnits="userSpaceOnUse">
<stop stop-color="#1786FF"/>
<stop offset="1" stop-color="#0152FF"/>
</linearGradient>
<linearGradient id="paint1_linear_38_26528" x1="250.609" y1="167.1" x2="250.609" y2="278.091" gradientUnits="userSpaceOnUse">
<stop stop-color="#1786FF"/>
<stop offset="1" stop-color="#0152FF"/>
</linearGradient>
<linearGradient id="paint2_linear_38_26528" x1="266.54" y1="538.085" x2="266.54" y2="545.451" gradientUnits="userSpaceOnUse">
<stop stop-color="#1786FF"/>
<stop offset="1" stop-color="#0152FF"/>
</linearGradient>
<linearGradient id="paint3_linear_38_26528" x1="186.033" y1="518.506" x2="186.033" y2="530.034" gradientUnits="userSpaceOnUse">
<stop stop-color="#1786FF"/>
<stop offset="1" stop-color="#0152FF"/>
</linearGradient>
<linearGradient id="paint4_linear_38_26528" x1="210.555" y1="169.949" x2="210.555" y2="223.93" gradientUnits="userSpaceOnUse">
<stop stop-color="#1786FF"/>
<stop offset="1" stop-color="#0152FF"/>
</linearGradient>
<linearGradient id="paint5_linear_38_26528" x1="187.973" y1="542.48" x2="187.973" y2="545.227" gradientUnits="userSpaceOnUse">
<stop stop-color="#1786FF"/>
<stop offset="1" stop-color="#0152FF"/>
</linearGradient>
<linearGradient id="paint6_linear_38_26528" x1="187.237" y1="539.139" x2="187.237" y2="543.57" gradientUnits="userSpaceOnUse">
<stop stop-color="#1786FF"/>
<stop offset="1" stop-color="#0152FF"/>
</linearGradient>
<linearGradient id="paint7_linear_38_26528" x1="276.025" y1="558.73" x2="276.025" y2="561.748" gradientUnits="userSpaceOnUse">
<stop stop-color="#1786FF"/>
<stop offset="1" stop-color="#0152FF"/>
</linearGradient>
<linearGradient id="paint8_linear_38_26528" x1="274.591" y1="555.967" x2="274.591" y2="561.315" gradientUnits="userSpaceOnUse">
<stop stop-color="#1786FF"/>
<stop offset="1" stop-color="#0152FF"/>
</linearGradient>
<linearGradient id="paint9_linear_38_26528" x1="505.23" y1="252.069" x2="505.23" y2="440.752" gradientUnits="userSpaceOnUse">
<stop stop-color="#1786FF"/>
<stop offset="1" stop-color="#0152FF"/>
</linearGradient>
<linearGradient id="paint10_linear_38_26528" x1="666.505" y1="346.19" x2="667.209" y2="352.015" gradientUnits="userSpaceOnUse">
<stop stop-color="#1786FF"/>
<stop offset="1" stop-color="#0152FF"/>
</linearGradient>
<linearGradient id="paint11_linear_38_26528" x1="663.113" y1="318.067" x2="665.735" y2="339.768" gradientUnits="userSpaceOnUse">
<stop stop-color="#1786FF"/>
<stop offset="1" stop-color="#0152FF"/>
</linearGradient>
<linearGradient id="paint12_linear_38_26528" x1="515.11" y1="229.027" x2="515.11" y2="431.473" gradientUnits="userSpaceOnUse">
<stop stop-color="#1786FF"/>
<stop offset="1" stop-color="#0152FF"/>
</linearGradient>
<linearGradient id="paint13_linear_38_26528" x1="504.078" y1="176.689" x2="504.078" y2="323.771" gradientUnits="userSpaceOnUse">
<stop stop-color="#1786FF"/>
<stop offset="1" stop-color="#0152FF"/>
</linearGradient>
<linearGradient id="paint14_linear_38_26528" x1="575.107" y1="176.689" x2="575.107" y2="218.286" gradientUnits="userSpaceOnUse">
<stop stop-color="#1786FF"/>
<stop offset="1" stop-color="#0152FF"/>
</linearGradient>
<linearGradient id="paint15_linear_38_26528" x1="635.047" y1="24.2983" x2="635.047" y2="127.964" gradientUnits="userSpaceOnUse">
<stop stop-color="#1786FF"/>
<stop offset="1" stop-color="#0152FF"/>
</linearGradient>
<linearGradient id="paint16_linear_38_26528" x1="635.063" y1="126.434" x2="635.063" y2="141.549" gradientUnits="userSpaceOnUse">
<stop stop-color="#1786FF"/>
<stop offset="1" stop-color="#0152FF"/>
</linearGradient>
<linearGradient id="paint17_linear_38_26528" x1="378.562" y1="157.078" x2="378.562" y2="260.298" gradientUnits="userSpaceOnUse">
<stop stop-color="#1786FF"/>
<stop offset="1" stop-color="#0152FF"/>
</linearGradient>
<linearGradient id="paint18_linear_38_26528" x1="378.594" y1="156.982" x2="378.594" y2="158.497" gradientUnits="userSpaceOnUse">
<stop stop-color="#1786FF"/>
<stop offset="1" stop-color="#0152FF"/>
</linearGradient>
</defs>
</svg>
