<svg width="57" height="57" viewBox="0 0 57 57" fill="none" xmlns="http://www.w3.org/2000/svg">
<path d="M16.7954 14.4545V16.2102C17.3824 16.2102 17.9306 15.9168 18.2562 15.4284L16.7954 14.4545ZM20.0873 9.51657L18.6265 8.5427V8.5427L20.0873 9.51657ZM36.9125 9.51658L38.3733 8.5427L36.9125 9.51658ZM40.2045 14.4545L38.7436 15.4284C39.0693 15.9168 39.6174 16.2102 40.2045 16.2102V14.4545ZM33.767 32.0113C33.767 34.9202 31.4088 37.2784 28.4999 37.2784V40.7897C33.3481 40.7897 37.2783 36.8595 37.2783 32.0113H33.767ZM28.4999 37.2784C25.591 37.2784 23.2329 34.9202 23.2329 32.0113H19.7215C19.7215 36.8595 23.6517 40.7897 28.4999 40.7897V37.2784ZM23.2329 32.0113C23.2329 29.1024 25.591 26.7443 28.4999 26.7443V23.2329C23.6517 23.2329 19.7215 27.1631 19.7215 32.0113H23.2329ZM28.4999 26.7443C31.4088 26.7443 33.767 29.1024 33.767 32.0113H37.2783C37.2783 27.1631 33.3481 23.2329 28.4999 23.2329V26.7443ZM18.2562 15.4284L21.5481 10.4905L18.6265 8.5427L15.3345 13.4806L18.2562 15.4284ZM23.9828 9.18744H33.017V5.67608H23.9828V9.18744ZM35.4517 10.4905L38.7436 15.4284L41.6653 13.4806L38.3733 8.5427L35.4517 10.4905ZM33.017 9.18744C33.9954 9.18744 34.909 9.67641 35.4517 10.4905L38.3733 8.5427C37.1794 6.75179 35.1694 5.67608 33.017 5.67608V9.18744ZM21.5481 10.4905C22.0908 9.6764 23.0045 9.18744 23.9828 9.18744V5.67608C21.8304 5.67608 19.8204 6.75179 18.6265 8.5427L21.5481 10.4905ZM50.1533 23.8181V40.2045H53.6647V23.8181H50.1533ZM42.5454 47.8124H14.4545V51.3238H42.5454V47.8124ZM6.8465 40.2045V23.8181H3.33514V40.2045H6.8465ZM14.4545 47.8124C10.2527 47.8124 6.8465 44.4062 6.8465 40.2045H3.33514C3.33514 46.3455 8.31343 51.3238 14.4545 51.3238V47.8124ZM50.1533 40.2045C50.1533 44.4062 46.7471 47.8124 42.5454 47.8124V51.3238C48.6864 51.3238 53.6647 46.3455 53.6647 40.2045H50.1533ZM42.5454 16.2102C46.7471 16.2102 50.1533 19.6164 50.1533 23.8181H53.6647C53.6647 17.6771 48.6864 12.6988 42.5454 12.6988V16.2102ZM14.4545 12.6988C8.31343 12.6988 3.33514 17.6771 3.33514 23.8181H6.8465C6.8465 19.6164 10.2527 16.2102 14.4545 16.2102V12.6988ZM14.4545 16.2102H16.7954V12.6988H14.4545V16.2102ZM42.5454 12.6988H40.2045V16.2102H42.5454V12.6988Z" fill="url(#paint0_linear_38_1687)"/>
<circle cx="28.5001" cy="14.4545" r="2.34091" fill="url(#paint1_linear_38_1687)"/>
<defs>
<linearGradient id="paint0_linear_38_1687" x1="28.4999" y1="7.43176" x2="28.4999" y2="49.5681" gradientUnits="userSpaceOnUse">
<stop stop-color="#1786FF"/>
<stop offset="1" stop-color="#0152FF"/>
</linearGradient>
<linearGradient id="paint1_linear_38_1687" x1="28.5001" y1="12.1136" x2="28.5001" y2="16.7954" gradientUnits="userSpaceOnUse">
<stop stop-color="#1786FF"/>
<stop offset="1" stop-color="#0152FF"/>
</linearGradient>
</defs>
</svg>
