<svg width="57" height="57" viewBox="0 0 57 57" fill="none" xmlns="http://www.w3.org/2000/svg">
<path d="M31.0229 4.90912V14.2728C31.0229 19.4441 35.2151 23.6364 40.3865 23.6364L49.7501 23.6364M7.61377 14.2728L7.61377 42.3637C7.61377 47.5351 11.806 51.7273 16.9774 51.7273H40.3865C45.5579 51.7273 49.7501 47.5351 49.7501 42.3637V27.5149C49.7501 25.0315 48.7636 22.6499 47.0076 20.8938L33.7654 7.65166C32.0094 5.89564 29.6277 4.90912 27.1443 4.90912L16.9774 4.90912C11.806 4.90912 7.61377 9.10136 7.61377 14.2728Z" stroke="url(#paint0_linear_38_1706)" stroke-width="3.51136" stroke-linejoin="round"/>
<path d="M14.4077 32.1382H18.118C18.9547 32.1382 19.5925 32.2022 20.0314 32.3302C20.6212 32.504 21.1264 32.8126 21.547 33.2561C21.9677 33.6996 22.2877 34.2436 22.5072 34.8883C22.7266 35.5284 22.8364 36.3194 22.8364 37.2612C22.8364 38.0888 22.7335 38.802 22.5277 39.401C22.2763 40.1325 21.9174 40.7246 21.451 41.1772C21.099 41.5201 20.6235 41.7876 20.0245 41.9796C19.5765 42.1213 18.9775 42.1922 18.2277 42.1922H14.4077V32.1382ZM16.4377 33.839V40.4983H17.9534C18.5203 40.4983 18.9295 40.4662 19.181 40.4022C19.5102 40.3199 19.7822 40.1805 19.9971 39.9839C20.2166 39.7873 20.3949 39.465 20.532 39.0169C20.6692 38.5643 20.7378 37.9493 20.7378 37.1721C20.7378 36.3948 20.6692 35.7981 20.532 35.3821C20.3949 34.966 20.2028 34.6414 19.9559 34.4082C19.7091 34.1751 19.3959 34.0173 19.0164 33.935C18.7329 33.871 18.1774 33.839 17.3499 33.839H16.4377Z" fill="url(#paint1_linear_38_1706)"/>
<path d="M24.1531 37.2269C24.1531 36.2028 24.3063 35.3432 24.6126 34.6483C24.8412 34.1362 25.1521 33.6767 25.5453 33.2698C25.9431 32.8629 26.3774 32.5611 26.8484 32.3645C27.4747 32.0993 28.1971 31.9667 29.0155 31.9667C30.4969 31.9667 31.6811 32.4262 32.568 33.3452C33.4596 34.2642 33.9054 35.5421 33.9054 37.1789C33.9054 38.802 33.4642 40.073 32.5818 40.992C31.6994 41.9065 30.5198 42.3637 29.043 42.3637C27.5479 42.3637 26.3592 41.9087 25.4767 40.9989C24.5943 40.0845 24.1531 38.8272 24.1531 37.2269ZM26.2449 37.1583C26.2449 38.2968 26.5077 39.1609 27.0335 39.7507C27.5593 40.3359 28.2269 40.6286 29.0361 40.6286C29.8454 40.6286 30.5083 40.3382 31.025 39.7576C31.5462 39.1723 31.8068 38.2968 31.8068 37.1309C31.8068 35.9787 31.553 35.1192 31.0455 34.5523C30.5426 33.9853 29.8728 33.7018 29.0361 33.7018C28.1994 33.7018 27.525 33.9899 27.013 34.566C26.5009 35.1375 26.2449 36.0016 26.2449 37.1583Z" fill="url(#paint2_linear_38_1706)"/>
<path d="M41.9294 38.4957L43.8977 39.1198C43.5959 40.2171 43.093 41.0332 42.3889 41.5681C41.6894 42.0985 40.8001 42.3637 39.7211 42.3637C38.386 42.3637 37.2887 41.9087 36.4292 40.9989C35.5696 40.0845 35.1398 38.8363 35.1398 37.2544C35.1398 35.581 35.5719 34.2825 36.436 33.3589C37.3002 32.4308 38.4363 31.9667 39.8445 31.9667C41.0744 31.9667 42.0734 32.3302 42.8415 33.0572C43.2987 33.487 43.6416 34.1042 43.8702 34.9089L41.8608 35.3889C41.7419 34.8677 41.4928 34.4562 41.1133 34.1545C40.7384 33.8527 40.2812 33.7018 39.7417 33.7018C38.9964 33.7018 38.3906 33.9693 37.9242 34.5042C37.4625 35.0392 37.2316 35.9056 37.2316 37.1035C37.2316 38.3745 37.4602 39.2798 37.9174 39.8193C38.3746 40.3588 38.969 40.6286 39.7005 40.6286C40.24 40.6286 40.7041 40.4571 41.0927 40.1142C41.4813 39.7713 41.7602 39.2318 41.9294 38.4957Z" fill="url(#paint3_linear_38_1706)"/>
<defs>
<linearGradient id="paint0_linear_38_1706" x1="28.682" y1="4.90912" x2="28.682" y2="51.7273" gradientUnits="userSpaceOnUse">
<stop stop-color="#1786FF"/>
<stop offset="1" stop-color="#0152FF"/>
</linearGradient>
<linearGradient id="paint1_linear_38_1706" x1="29.1527" y1="31.9667" x2="29.1527" y2="42.3637" gradientUnits="userSpaceOnUse">
<stop stop-color="#1786FF"/>
<stop offset="1" stop-color="#0152FF"/>
</linearGradient>
<linearGradient id="paint2_linear_38_1706" x1="29.1527" y1="31.9667" x2="29.1527" y2="42.3637" gradientUnits="userSpaceOnUse">
<stop stop-color="#1786FF"/>
<stop offset="1" stop-color="#0152FF"/>
</linearGradient>
<linearGradient id="paint3_linear_38_1706" x1="29.1527" y1="31.9667" x2="29.1527" y2="42.3637" gradientUnits="userSpaceOnUse">
<stop stop-color="#1786FF"/>
<stop offset="1" stop-color="#0152FF"/>
</linearGradient>
</defs>
</svg>
