<svg width="47" height="46" viewBox="0 0 47 46" fill="none" xmlns="http://www.w3.org/2000/svg">
<path fill-rule="evenodd" clip-rule="evenodd" d="M12.5698 -0.000366211C13.4753 -0.000366211 14.2093 0.733678 14.2093 1.63917V3.30651C15.6565 3.27867 17.251 3.27869 19.0046 3.2787H27.9954C29.749 3.27869 31.3435 3.27867 32.7907 3.30651V1.63917C32.7907 0.733678 33.5247 -0.000366211 34.4302 -0.000366211C35.3357 -0.000366211 36.0698 0.733678 36.0698 1.63917V3.44722C36.638 3.49054 37.1761 3.545 37.6853 3.61346C40.2483 3.95804 42.3227 4.68407 43.9587 6.32002C45.5946 7.95598 46.3207 10.0304 46.6652 12.5934C46.7754 13.4125 46.8493 14.3064 46.8989 15.2803C46.9643 15.4573 47 15.6487 47 15.8485C47 16 46.9794 16.1467 46.941 16.286C47 18.0392 47 20.0298 47 22.2833V26.902C47 30.9194 47.0001 34.1015 46.6652 36.5919C46.3207 39.1549 45.5946 41.2293 43.9587 42.8653C42.3227 44.5012 40.2483 45.2273 37.6853 45.5718C35.1949 45.9067 32.0128 45.9066 27.9954 45.9066H19.0046C14.9872 45.9066 11.8051 45.9067 9.31469 45.5718C6.75173 45.2273 4.67728 44.5012 3.04132 42.8653C1.40537 41.2293 0.679343 39.1549 0.334761 36.5919C-6.1566e-05 34.1015 -3.39563e-05 30.9195 7.03066e-07 26.902V22.2833C-1.87114e-05 20.0298 -3.59095e-05 18.0392 0.0590429 16.286C0.020561 16.1467 1.48486e-06 16 1.48486e-06 15.8485C1.48486e-06 15.6487 0.03573 15.4573 0.101146 15.2802C0.150737 14.3064 0.224638 13.4125 0.334761 12.5934C0.679343 10.0304 1.40537 7.95598 3.04132 6.32002C4.67728 4.68407 6.75173 3.95804 9.3147 3.61346C9.82388 3.545 10.362 3.49054 10.9302 3.44722V1.63917C10.9302 0.733678 11.6643 -0.000366211 12.5698 -0.000366211ZM3.30768 17.488C3.27977 18.9149 3.27907 20.5397 3.27907 22.4066V26.7787C3.27907 30.9471 3.28255 33.9085 3.58459 36.155C3.88029 38.3543 4.43482 39.6215 5.35997 40.5466C6.28513 41.4718 7.55227 42.0263 9.75162 42.322C11.9981 42.6241 14.9595 42.6275 19.1279 42.6275H27.8721C32.0405 42.6275 35.0019 42.6241 37.2484 42.322C39.4477 42.0263 40.7149 41.4718 41.64 40.5466C42.5652 39.6215 43.1197 38.3543 43.4154 36.155C43.7174 33.9085 43.7209 30.9471 43.7209 26.7787V22.4066C43.7209 20.5397 43.7202 18.9149 43.6923 17.488H3.30768ZM43.5424 14.2089H3.45763C3.49264 13.7949 3.53451 13.4028 3.58459 13.0303C3.88029 10.831 4.43482 9.56383 5.35997 8.63868C6.28513 7.71352 7.55227 7.15899 9.75162 6.86329C11.9981 6.56125 14.9595 6.55777 19.1279 6.55777H27.8721C32.0405 6.55777 35.0019 6.56125 37.2484 6.86329C39.4477 7.15899 40.7149 7.71352 41.64 8.63868C42.5652 9.56383 43.1197 10.831 43.4154 13.0303C43.4655 13.4028 43.5074 13.7949 43.5424 14.2089Z" fill="url(#paint0_linear_38_1702)"/>
<defs>
<linearGradient id="paint0_linear_38_1702" x1="23.5" y1="-0.000366211" x2="23.5" y2="45.9066" gradientUnits="userSpaceOnUse">
<stop stop-color="#1786FF"/>
<stop offset="1" stop-color="#0152FF"/>
</linearGradient>
</defs>
</svg>
