<svg width="96" height="96" viewBox="0 0 96 96" fill="none" xmlns="http://www.w3.org/2000/svg">
<circle cx="48" cy="48" r="48" fill="url(#paint0_linear_38_1446)"/>
<path fill-rule="evenodd" clip-rule="evenodd" d="M32.8027 29.1069L66.2137 45.8081C67.1468 46.2744 67.7363 47.2279 67.7363 48.2711C67.7363 49.3142 67.1468 50.2678 66.2137 50.734L32.8027 67.4352C31.8345 67.9194 30.6725 67.7916 29.8328 67.1085C28.993 66.4254 28.6312 65.3138 28.9082 64.2673L33.1451 48.2711L28.9082 32.2748C28.6312 31.2283 28.993 30.1167 29.8328 29.4336C30.6725 28.7505 31.8345 28.6227 32.8027 29.1069Z" fill="white"/>
<path d="M45.7158 48.2713H33.1436" stroke="url(#paint1_linear_38_1446)" stroke-width="3.32578" stroke-linecap="round" stroke-linejoin="round"/>
<defs>
<linearGradient id="paint0_linear_38_1446" x1="48" y1="0" x2="48" y2="96" gradientUnits="userSpaceOnUse">
<stop stop-color="#1786FF"/>
<stop offset="1" stop-color="#0152FF"/>
</linearGradient>
<linearGradient id="paint1_linear_38_1446" x1="39.4297" y1="47.1265" x2="39.4297" y2="49.4161" gradientUnits="userSpaceOnUse">
<stop stop-color="#1786FF"/>
<stop offset="1" stop-color="#0152FF"/>
</linearGradient>
</defs>
</svg>
