<svg width="57" height="57" viewBox="0 0 57 57" fill="none" xmlns="http://www.w3.org/2000/svg">
<path d="M51.909 33.2728L45.029 28.3192C41.454 25.7452 36.5683 26.0112 33.2939 28.9582L23.7059 37.5874C20.4315 40.5343 15.5458 40.8004 11.9708 38.2264L5.09082 33.2728M14.4545 52.0001H42.5454C47.7168 52.0001 51.909 47.8078 51.909 42.6364V14.5455C51.909 9.37413 47.7168 5.18188 42.5454 5.18188H14.4545C9.28306 5.18188 5.09082 9.37413 5.09082 14.5455V42.6364C5.09082 47.8078 9.28306 52.0001 14.4545 52.0001ZM26.159 20.3978C26.159 23.6299 23.5388 26.2501 20.3067 26.2501C17.0746 26.2501 14.4545 23.6299 14.4545 20.3978C14.4545 17.1657 17.0746 14.5455 20.3067 14.5455C23.5388 14.5455 26.159 17.1657 26.159 20.3978Z" stroke="url(#paint0_linear_38_1692)" stroke-width="3.51136" stroke-linecap="round"/>
<defs>
<linearGradient id="paint0_linear_38_1692" x1="28.4999" y1="5.18188" x2="28.4999" y2="52.0001" gradientUnits="userSpaceOnUse">
<stop stop-color="#1786FF"/>
<stop offset="1" stop-color="#0152FF"/>
</linearGradient>
</defs>
</svg>
