<svg width="51" height="50" viewBox="0 0 51 50" fill="none" xmlns="http://www.w3.org/2000/svg">
<path fill-rule="evenodd" clip-rule="evenodd" d="M22.5785 2.60413H28.9925C32.3329 2.60411 34.9515 2.6041 37.0436 2.80302C39.176 3.00577 40.922 3.42614 42.4612 4.36937C44.0731 5.35713 45.4283 6.71233 46.4161 8.32419C47.3593 9.86341 47.7797 11.6095 47.9824 13.7418C48.1813 15.8339 48.1813 18.4526 48.1813 21.7929V24.0163C48.1813 26.394 48.1813 28.2582 48.0786 29.7642C47.974 31.2964 47.7579 32.5716 47.2695 33.7509C46.0536 36.6861 43.7216 39.0181 40.7864 40.2339C39.1093 40.9286 37.1992 41.0827 34.584 41.1278C33.6692 41.1435 33.0898 41.1551 32.6481 41.204C32.2354 41.2497 32.0754 41.3167 31.9818 41.3711C31.883 41.4286 31.7485 41.5333 31.5149 41.8538C31.262 42.2007 30.9763 42.6801 30.5233 43.4455L29.394 45.3535C27.7823 48.0763 23.7885 48.0763 22.1769 45.3535L21.0475 43.4455C20.5945 42.6801 20.3088 42.2007 20.056 41.8538C19.8224 41.5333 19.6878 41.4286 19.5891 41.3711C19.4954 41.3167 19.3355 41.2497 18.9227 41.204C18.481 41.1551 17.9016 41.1435 16.9868 41.1278C14.3717 41.0827 12.4616 40.9286 10.7846 40.2339C7.84935 39.0181 5.51732 36.6861 4.30151 33.7509C3.81304 32.5716 3.59693 31.2964 3.49239 29.7642C3.38964 28.2582 3.38964 26.394 3.38965 24.0163L3.38965 21.793C3.38964 18.4526 3.38963 15.8339 3.58854 13.7418C3.79129 11.6095 4.21167 9.86341 5.1549 8.32419C6.14265 6.71233 7.49786 5.35713 9.10972 4.36937C10.6489 3.42614 12.395 3.00577 14.5274 2.80302C16.6194 2.6041 19.2381 2.60411 22.5785 2.60413ZM14.8232 5.91399C12.9195 6.09499 11.7082 6.44211 10.7425 7.03387C9.55115 7.76395 8.54947 8.76563 7.8194 9.957C7.22763 10.9227 6.88051 12.134 6.69951 14.0376C6.5163 15.9645 6.51465 18.4349 6.51465 21.875V23.9583C6.51465 26.4064 6.5155 28.1643 6.61014 29.5515C6.70383 30.9246 6.88418 31.8199 7.18863 32.555C8.08728 34.7245 9.81095 36.4482 11.9805 37.3468C13.0547 37.7918 14.4252 37.9581 17.0407 38.0032L17.107 38.0044C17.9361 38.0186 18.6627 38.0311 19.2667 38.098C19.9156 38.1698 20.5503 38.3151 21.1602 38.6698C21.765 39.0215 22.2012 39.4914 22.5814 40.0132C22.9328 40.4953 23.2939 41.1054 23.7029 41.7965L24.8661 43.7618C25.2677 44.4402 26.3032 44.4402 26.7047 43.7618L27.868 41.7965C28.277 41.1054 28.6381 40.4953 28.9894 40.0132C29.3697 39.4914 29.8059 39.0215 30.4107 38.6698C31.0206 38.3151 31.6553 38.1698 32.3042 38.098C32.9081 38.0311 33.6347 38.0186 34.4639 38.0044L34.5302 38.0032C37.1457 37.9581 38.5162 37.7918 39.5905 37.3468C41.76 36.4482 43.4837 34.7245 44.3823 32.555C44.6868 31.8199 44.8671 30.9246 44.9608 29.5515C45.0555 28.1643 45.0563 26.4064 45.0563 23.9583V21.875C45.0563 18.4349 45.0547 15.9645 44.8715 14.0376C44.6905 12.134 44.3433 10.9227 43.7516 9.957C43.0215 8.76563 42.0198 7.76395 40.8284 7.03387C39.8628 6.44211 38.6514 6.09499 36.7478 5.91399C34.8209 5.73077 32.3506 5.72913 28.9105 5.72913H22.6605C19.2204 5.72913 16.7501 5.73077 14.8232 5.91399ZM33.1403 17.6451C33.7505 18.2553 33.7505 19.2446 33.1403 19.8548L24.807 28.1881C24.2056 28.7896 23.2336 28.7995 22.6201 28.2105L18.4534 24.2105C17.8309 23.6128 17.8107 22.6237 18.4083 22.0012C19.0059 21.3787 19.995 21.3585 20.6176 21.9561L23.6798 24.8959L30.9306 17.6451C31.5408 17.0349 32.5301 17.0349 33.1403 17.6451Z" fill="#1C274C"/>
</svg>
