<svg width="54" height="54" viewBox="0 0 54 54" fill="none" xmlns="http://www.w3.org/2000/svg">
<path fill-rule="evenodd" clip-rule="evenodd" d="M27.2858 34.1769C28.2005 34.1769 28.9421 34.9184 28.9421 35.8332V45.0846L30.5313 43.4954C31.1781 42.8486 32.2268 42.8486 32.8736 43.4954C33.5204 44.1422 33.5204 45.1908 32.8736 45.8377L28.457 50.2543C27.8101 50.9011 26.7615 50.9011 26.1147 50.2543L21.698 45.8377C21.0512 45.1908 21.0512 44.1422 21.698 43.4954C22.3448 42.8486 23.3935 42.8486 24.0403 43.4954L25.6296 45.0846V35.8332C25.6296 34.9184 26.3711 34.1769 27.2858 34.1769Z" fill="#1C274C"/>
<path d="M27.7853 8.229C21.7122 8.229 16.8225 13.0892 16.8225 19.0433C16.8225 20.0639 16.9654 21.0495 17.2319 21.9828C18.3299 22.2997 19.3577 22.7795 20.2864 23.3938C21.0493 23.8985 21.2586 24.9261 20.754 25.689C20.2493 26.4519 19.2217 26.6612 18.4588 26.1566C17.6179 25.6003 16.6619 25.2012 15.6331 25.0016C15.1432 24.9065 14.6357 24.8565 14.1147 24.8565C9.78388 24.8565 6.30664 28.3208 6.30664 32.5531C6.30664 36.7855 9.78388 40.2498 14.1147 40.2498C15.0294 40.2498 15.7709 40.9914 15.7709 41.9061C15.7709 42.8208 15.0294 43.5623 14.1147 43.5623C7.99151 43.5623 2.99414 38.6518 2.99414 32.5531C2.99414 26.5813 7.78595 21.7486 13.7344 21.5503C13.5869 20.736 13.51 19.8981 13.51 19.0433C13.51 11.2229 19.9198 4.9165 27.7853 4.9165C34.7594 4.9165 40.5853 9.87133 41.8198 16.4468C46.8987 18.6027 50.4733 23.5974 50.4733 29.4355C50.4733 36.2239 45.6422 41.8714 39.2259 43.2436C38.3314 43.4349 37.4512 42.8648 37.2599 41.9703C37.0686 41.0758 37.6387 40.1956 38.5332 40.0043C43.4793 38.9466 47.1608 34.6031 47.1608 29.4355C47.1608 24.7169 44.0928 20.6859 39.7903 19.2147C38.6672 18.8306 37.4592 18.6212 36.198 18.6212C34.9114 18.6212 33.6801 18.8391 32.5378 19.2381C31.6743 19.5398 30.7297 19.0842 30.4281 18.2207C30.1264 17.3571 30.5819 16.4125 31.4455 16.1109C32.9345 15.5908 34.5348 15.3087 36.198 15.3087C36.8505 15.3087 37.4933 15.3521 38.1236 15.4363C36.6205 11.2463 32.5685 8.229 27.7853 8.229Z" fill="#1C274C"/>
</svg>
