<svg width="48" height="46" viewBox="0 0 48 46" fill="none" xmlns="http://www.w3.org/2000/svg">
<path fill-rule="evenodd" clip-rule="evenodd" d="M13.3559 0.0464478C14.2614 0.0464478 14.9954 0.780492 14.9954 1.68598V3.35332C16.4427 3.32549 18.0371 3.3255 19.7907 3.32552H28.7816C30.5352 3.3255 32.1296 3.32549 33.5768 3.35332V1.68598C33.5768 0.780492 34.3109 0.0464478 35.2164 0.0464478C36.1219 0.0464478 36.8559 0.780492 36.8559 1.68598V3.49403C37.4241 3.53736 37.9622 3.59182 38.4714 3.66028C41.0344 4.00486 43.1089 4.73088 44.7448 6.36684C46.3808 8.00279 47.1068 10.0772 47.4514 12.6402C47.5615 13.4593 47.6354 14.3532 47.685 15.3271C47.7504 15.5041 47.7861 15.6955 47.7861 15.8953C47.7861 16.0468 47.7656 16.1936 47.7271 16.3329C47.7862 18.086 47.7861 20.0766 47.7861 22.3301V26.9488C47.7862 30.9663 47.7862 34.1483 47.4514 36.6387C47.1068 39.2017 46.3808 41.2761 44.7448 42.9121C43.1089 44.548 41.0344 45.2741 38.4714 45.6187C35.9811 45.9535 32.799 45.9534 28.7815 45.9534H19.7907C15.7733 45.9534 12.5912 45.9535 10.1008 45.6187C7.53786 45.2741 5.46341 44.548 3.82746 42.9121C2.1915 41.2761 1.46548 39.2017 1.12089 36.6387C0.786071 34.1483 0.786099 30.9663 0.786134 26.9488V22.3301C0.786114 20.0766 0.786097 18.086 0.845176 16.3329C0.806694 16.1936 0.786134 16.0468 0.786134 15.8953C0.786134 15.6955 0.821863 15.5041 0.887278 15.327C0.93687 14.3532 1.01077 13.4593 1.12089 12.6402C1.46548 10.0772 2.1915 8.00279 3.82746 6.36684C5.46341 4.73088 7.53786 4.00486 10.1008 3.66028C10.61 3.59182 11.1481 3.53736 11.7164 3.49403V1.68598C11.7164 0.780492 12.4504 0.0464478 13.3559 0.0464478ZM4.09381 17.5348C4.0659 18.9617 4.0652 20.5865 4.0652 22.4534V26.8255C4.0652 30.9939 4.06869 33.9553 4.37072 36.2018C4.66642 38.4011 5.22095 39.6683 6.14611 40.5934C7.07126 41.5186 8.3384 42.0731 10.5378 42.3688C12.7843 42.6709 15.7456 42.6743 19.914 42.6743H28.6582C32.8266 42.6743 35.788 42.6709 38.0345 42.3688C40.2339 42.0731 41.501 41.5186 42.4262 40.5934C43.3513 39.6683 43.9058 38.4011 44.2015 36.2018C44.5036 33.9553 44.5071 30.9939 44.5071 26.8255V22.4534C44.5071 20.5865 44.5064 18.9617 44.4785 17.5348H4.09381ZM44.3285 14.2557H4.24377C4.27877 13.8417 4.32065 13.4496 4.37072 13.0771C4.66642 10.8778 5.22095 9.61065 6.14611 8.68549C7.07126 7.76033 8.3384 7.2058 10.5378 6.9101C12.7843 6.60807 15.7456 6.60459 19.914 6.60459H28.6582C32.8266 6.60459 35.788 6.60807 38.0345 6.9101C40.2339 7.2058 41.501 7.76033 42.4262 8.68549C43.3513 9.61065 43.9058 10.8778 44.2015 13.0771C44.2516 13.4496 44.2935 13.8417 44.3285 14.2557Z" fill="black"/>
</svg>
