<svg width="57" height="56" viewBox="0 0 57 56" fill="none" xmlns="http://www.w3.org/2000/svg">
<path d="M49.1886 36.6813L47.6962 35.7674V35.7674L49.1886 36.6813ZM46.9613 40.3186L48.4537 41.2325H48.4537L46.9613 40.3186ZM8.38368 19.3186L6.89125 18.4047L6.89125 18.4047L8.38368 19.3186ZM10.611 15.6813L12.1034 16.5951L10.611 15.6813ZM16.696 14.144L17.5327 12.6069L17.5327 12.6069L16.696 14.144ZM10.0142 25.0559L9.17747 26.5929H9.17747L10.0142 25.0559ZM40.8763 41.8559L40.0396 43.3929L40.8763 41.8559ZM47.5581 30.944L46.7214 32.481H46.7214L47.5581 30.944ZM10.611 40.3186L9.11853 41.2325H9.11853L10.611 40.3186ZM8.38367 36.6813L9.8761 35.7674H9.8761L8.38367 36.6813ZM46.9613 15.6813L48.4537 14.7674L48.4537 14.7674L46.9613 15.6813ZM49.1886 19.3186L47.6962 20.2325V20.2325L49.1886 19.3186ZM47.5581 25.0559L48.3948 26.5929H48.3948L47.5581 25.0559ZM40.8763 14.144L41.713 15.681V15.681L40.8763 14.144ZM10.0142 30.944L10.8508 32.481L10.8508 32.481L10.0142 30.944ZM16.696 41.8559L15.8593 40.3189L15.8593 40.3189L16.696 41.8559ZM40.6395 14.2729L39.8028 12.7359L40.6395 14.2729ZM16.9328 14.2729L16.0961 15.8099L16.0961 15.8099L16.9328 14.2729ZM40.6395 41.727L41.4762 40.19H41.4762L40.6395 41.727ZM16.9328 41.727L17.7695 43.264L17.7695 43.264L16.9328 41.727ZM26.5588 8.74994H31.0134V5.24994H26.5588V8.74994ZM31.0134 47.2499H26.5588V50.7499H31.0134V47.2499ZM26.5588 47.2499C24.9667 47.2499 23.8543 46.0574 23.8543 44.7999H20.3543C20.3543 48.1816 23.2306 50.7499 26.5588 50.7499V47.2499ZM33.718 44.7999C33.718 46.0574 32.6055 47.2499 31.0134 47.2499V50.7499C34.3417 50.7499 37.218 48.1816 37.218 44.7999H33.718ZM31.0134 8.74994C32.6055 8.74994 33.718 9.94243 33.718 11.1999H37.218C37.218 7.81825 34.3417 5.24994 31.0134 5.24994V8.74994ZM26.5588 5.24994C23.2306 5.24994 20.3543 7.81825 20.3543 11.1999H23.8543C23.8543 9.94243 24.9667 8.74994 26.5588 8.74994V5.24994ZM47.6962 35.7674L45.4689 39.4047L48.4537 41.2325L50.681 37.5951L47.6962 35.7674ZM9.8761 20.2325L12.1034 16.5951L9.11853 14.7674L6.89125 18.4047L9.8761 20.2325ZM12.1034 16.5951C12.8235 15.4191 14.5074 14.9451 15.8593 15.681L17.5327 12.6069C14.6234 11.0233 10.8586 11.9258 9.11853 14.7674L12.1034 16.5951ZM10.8509 23.5189C9.55354 22.8127 9.19616 21.3428 9.8761 20.2325L6.89125 18.4047C5.11101 21.312 6.21361 24.9795 9.17747 26.5929L10.8509 23.5189ZM45.4689 39.4047C44.7487 40.5808 43.0649 41.0548 41.713 40.3189L40.0396 43.3929C42.9488 44.9766 46.7137 44.074 48.4537 41.2325L45.4689 39.4047ZM50.681 37.5951C52.4613 34.6879 51.3587 31.0203 48.3948 29.4069L46.7214 32.481C48.0187 33.1872 48.3761 34.657 47.6962 35.7674L50.681 37.5951ZM12.1034 39.4047L9.8761 35.7674L6.89125 37.5952L9.11853 41.2325L12.1034 39.4047ZM45.4689 16.5952L47.6962 20.2325L50.681 18.4047L48.4537 14.7674L45.4689 16.5952ZM47.6962 20.2325C48.3761 21.3429 48.0187 22.8127 46.7214 23.5189L48.3948 26.5929C51.3587 24.9795 52.4613 21.312 50.681 18.4047L47.6962 20.2325ZM41.713 15.681C43.0649 14.9451 44.7487 15.4191 45.4689 16.5952L48.4537 14.7674C46.7137 11.9258 42.9488 11.0233 40.0396 12.607L41.713 15.681ZM9.8761 35.7674C9.19616 34.657 9.55354 33.1872 10.8508 32.481L9.17747 29.407C6.21361 31.0204 5.11101 34.6879 6.89125 37.5952L9.8761 35.7674ZM9.11853 41.2325C10.8586 44.0741 14.6234 44.9766 17.5327 43.3929L15.8593 40.3189C14.5074 41.0548 12.8235 40.5808 12.1034 39.4047L9.11853 41.2325ZM41.4762 15.8099L41.713 15.681L40.0396 12.607L39.8028 12.7359L41.4762 15.8099ZM15.8593 15.681L16.0961 15.8099L17.7695 12.7358L17.5327 12.6069L15.8593 15.681ZM41.713 40.3189L41.4762 40.19L39.8028 43.264L40.0396 43.3929L41.713 40.3189ZM16.0961 40.19L15.8593 40.3189L17.5327 43.3929L17.7695 43.264L16.0961 40.19ZM9.17747 26.5929C10.2922 27.1997 10.2922 28.8001 9.17747 29.407L10.8508 32.481C14.4011 30.5484 14.4011 25.4515 10.8509 23.5189L9.17747 26.5929ZM17.7695 43.264C18.9348 42.6297 20.3543 43.4732 20.3543 44.7999H23.8543C23.8543 40.8178 19.5936 38.2861 16.0961 40.19L17.7695 43.264ZM37.218 44.7999C37.218 43.4732 38.6375 42.6297 39.8028 43.264L41.4762 40.19C37.9787 38.2861 33.718 40.8178 33.718 44.7999H37.218ZM48.3948 29.4069C47.2801 28.8001 47.2801 27.1997 48.3948 26.5929L46.7214 23.5189C43.1712 25.4515 43.1712 30.5484 46.7214 32.481L48.3948 29.4069ZM16.0961 15.8099C19.5936 17.7138 23.8543 15.1821 23.8543 11.1999H20.3543C20.3543 12.5267 18.9348 13.3702 17.7695 12.7358L16.0961 15.8099ZM39.8028 12.7359C38.6375 13.3702 37.218 12.5267 37.218 11.1999H33.718C33.718 15.1821 37.9787 17.7138 41.4762 15.8099L39.8028 12.7359ZM34.0362 27.9999C34.0362 30.8994 31.6856 33.2499 28.7862 33.2499V36.7499C33.6186 36.7499 37.5362 32.8324 37.5362 27.9999H34.0362ZM28.7862 33.2499C25.8867 33.2499 23.5362 30.8994 23.5362 27.9999H20.0362C20.0362 32.8324 23.9537 36.7499 28.7862 36.7499V33.2499ZM23.5362 27.9999C23.5362 25.1004 25.8867 22.7499 28.7862 22.7499V19.2499C23.9537 19.2499 20.0362 23.1674 20.0362 27.9999H23.5362ZM28.7862 22.7499C31.6856 22.7499 34.0362 25.1004 34.0362 27.9999H37.5362C37.5362 23.1674 33.6186 19.2499 28.7862 19.2499V22.7499Z" fill="#28303F"/>
</svg>
